G04 #@! TF.FileFunction,Legend,Bot*
%FSLAX46Y46*%
G04 Gerber Fmt 4.6, Leading zero omitted, Abs format (unit mm)*
G04 Created by KiCad (PCBNEW 4.0.2-stable) date 22/10/2018 19:31:19*
%MOMM*%
G01*
G04 APERTURE LIST*
%ADD10C,0.100000*%
%ADD11C,0.300000*%
%ADD12C,0.150000*%
G04 APERTURE END LIST*
D10*
D11*
X78978569Y-49328571D02*
X79478569Y-48614286D01*
X79835712Y-49328571D02*
X79835712Y-47828571D01*
X79264284Y-47828571D01*
X79121426Y-47900000D01*
X79049998Y-47971429D01*
X78978569Y-48114286D01*
X78978569Y-48328571D01*
X79049998Y-48471429D01*
X79121426Y-48542857D01*
X79264284Y-48614286D01*
X79835712Y-48614286D01*
X77835712Y-48542857D02*
X78335712Y-48542857D01*
X78335712Y-49328571D02*
X78335712Y-47828571D01*
X77621426Y-47828571D01*
X75264284Y-49257143D02*
X75407141Y-49328571D01*
X75692855Y-49328571D01*
X75835713Y-49257143D01*
X75907141Y-49185714D01*
X75978570Y-49042857D01*
X75978570Y-48614286D01*
X75907141Y-48471429D01*
X75835713Y-48400000D01*
X75692855Y-48328571D01*
X75407141Y-48328571D01*
X75264284Y-48400000D01*
X74407141Y-49328571D02*
X74549999Y-49257143D01*
X74621427Y-49185714D01*
X74692856Y-49042857D01*
X74692856Y-48614286D01*
X74621427Y-48471429D01*
X74549999Y-48400000D01*
X74407141Y-48328571D01*
X74192856Y-48328571D01*
X74049999Y-48400000D01*
X73978570Y-48471429D01*
X73907141Y-48614286D01*
X73907141Y-49042857D01*
X73978570Y-49185714D01*
X74049999Y-49257143D01*
X74192856Y-49328571D01*
X74407141Y-49328571D01*
X73264284Y-48328571D02*
X73264284Y-49328571D01*
X73264284Y-48471429D02*
X73192856Y-48400000D01*
X73049998Y-48328571D01*
X72835713Y-48328571D01*
X72692856Y-48400000D01*
X72621427Y-48542857D01*
X72621427Y-49328571D01*
X72121427Y-48328571D02*
X71549998Y-48328571D01*
X71907141Y-47828571D02*
X71907141Y-49114286D01*
X71835713Y-49257143D01*
X71692855Y-49328571D01*
X71549998Y-49328571D01*
X71049998Y-49328571D02*
X71049998Y-48328571D01*
X71049998Y-48614286D02*
X70978570Y-48471429D01*
X70907141Y-48400000D01*
X70764284Y-48328571D01*
X70621427Y-48328571D01*
X69907141Y-49328571D02*
X70049999Y-49257143D01*
X70121427Y-49185714D01*
X70192856Y-49042857D01*
X70192856Y-48614286D01*
X70121427Y-48471429D01*
X70049999Y-48400000D01*
X69907141Y-48328571D01*
X69692856Y-48328571D01*
X69549999Y-48400000D01*
X69478570Y-48471429D01*
X69407141Y-48614286D01*
X69407141Y-49042857D01*
X69478570Y-49185714D01*
X69549999Y-49257143D01*
X69692856Y-49328571D01*
X69907141Y-49328571D01*
X68549998Y-49328571D02*
X68692856Y-49257143D01*
X68764284Y-49114286D01*
X68764284Y-47828571D01*
X67764284Y-49328571D02*
X67907142Y-49257143D01*
X67978570Y-49114286D01*
X67978570Y-47828571D01*
X66621428Y-49257143D02*
X66764285Y-49328571D01*
X67049999Y-49328571D01*
X67192856Y-49257143D01*
X67264285Y-49114286D01*
X67264285Y-48542857D01*
X67192856Y-48400000D01*
X67049999Y-48328571D01*
X66764285Y-48328571D01*
X66621428Y-48400000D01*
X66549999Y-48542857D01*
X66549999Y-48685714D01*
X67264285Y-48828571D01*
X65907142Y-49328571D02*
X65907142Y-48328571D01*
X65907142Y-48614286D02*
X65835714Y-48471429D01*
X65764285Y-48400000D01*
X65621428Y-48328571D01*
X65478571Y-48328571D01*
X64907143Y-49257143D02*
X64907143Y-49328571D01*
X64978571Y-49471429D01*
X65050000Y-49542857D01*
X63264285Y-48328571D02*
X62907142Y-49328571D01*
X62550000Y-48328571D01*
X61978571Y-49185714D02*
X61907143Y-49257143D01*
X61978571Y-49328571D01*
X62050000Y-49257143D01*
X61978571Y-49185714D01*
X61978571Y-49328571D01*
X60978571Y-47828571D02*
X60835714Y-47828571D01*
X60692857Y-47900000D01*
X60621428Y-47971429D01*
X60549999Y-48114286D01*
X60478571Y-48400000D01*
X60478571Y-48757143D01*
X60549999Y-49042857D01*
X60621428Y-49185714D01*
X60692857Y-49257143D01*
X60835714Y-49328571D01*
X60978571Y-49328571D01*
X61121428Y-49257143D01*
X61192857Y-49185714D01*
X61264285Y-49042857D01*
X61335714Y-48757143D01*
X61335714Y-48400000D01*
X61264285Y-48114286D01*
X61192857Y-47971429D01*
X61121428Y-47900000D01*
X60978571Y-47828571D01*
X59835714Y-49185714D02*
X59764286Y-49257143D01*
X59835714Y-49328571D01*
X59907143Y-49257143D01*
X59835714Y-49185714D01*
X59835714Y-49328571D01*
X58335714Y-49328571D02*
X59192857Y-49328571D01*
X58764285Y-49328571D02*
X58764285Y-47828571D01*
X58907142Y-48042857D01*
X59050000Y-48185714D01*
X59192857Y-48257143D01*
X61335714Y-51014286D02*
X61407142Y-50942857D01*
X61549999Y-50871429D01*
X61692857Y-50871429D01*
X61835714Y-50942857D01*
X61907142Y-51014286D01*
X61978571Y-51157143D01*
X61978571Y-51300000D01*
X61907142Y-51442857D01*
X61835714Y-51514286D01*
X61692857Y-51585714D01*
X61549999Y-51585714D01*
X61407142Y-51514286D01*
X61335714Y-51442857D01*
X61335714Y-50871429D02*
X61335714Y-51442857D01*
X61264285Y-51514286D01*
X61192857Y-51514286D01*
X61049999Y-51442857D01*
X60978571Y-51300000D01*
X60978571Y-50942857D01*
X61121428Y-50728571D01*
X61335714Y-50585714D01*
X61621428Y-50514286D01*
X61907142Y-50585714D01*
X62121428Y-50728571D01*
X62264285Y-50942857D01*
X62335714Y-51228571D01*
X62264285Y-51514286D01*
X62121428Y-51728571D01*
X61907142Y-51871429D01*
X61621428Y-51942857D01*
X61335714Y-51871429D01*
X61121428Y-51728571D01*
X59478571Y-51728571D02*
X59978571Y-51014286D01*
X60335714Y-51728571D02*
X60335714Y-50228571D01*
X59764286Y-50228571D01*
X59621428Y-50300000D01*
X59550000Y-50371429D01*
X59478571Y-50514286D01*
X59478571Y-50728571D01*
X59550000Y-50871429D01*
X59621428Y-50942857D01*
X59764286Y-51014286D01*
X60335714Y-51014286D01*
X58407143Y-50228571D02*
X58407143Y-51300000D01*
X58478571Y-51514286D01*
X58621428Y-51657143D01*
X58835714Y-51728571D01*
X58978571Y-51728571D01*
D12*
X95780000Y-90074000D02*
X95780000Y-84740000D01*
X95780000Y-84740000D02*
X98320000Y-84740000D01*
X98320000Y-84740000D02*
X98320000Y-90074000D01*
X98320000Y-90074000D02*
X95780000Y-90074000D01*
X95780000Y-90074000D02*
X95780000Y-89947000D01*
X95780000Y-89947000D02*
X98320000Y-89947000D01*
X98320000Y-89947000D02*
X98320000Y-89820000D01*
X98320000Y-89820000D02*
X95780000Y-89820000D01*
X92780000Y-90074000D02*
X92780000Y-79660000D01*
X92780000Y-79660000D02*
X95320000Y-79660000D01*
X95320000Y-79660000D02*
X95320000Y-90074000D01*
X95320000Y-90074000D02*
X92780000Y-90074000D01*
X92780000Y-90074000D02*
X92780000Y-89947000D01*
X92780000Y-89947000D02*
X95320000Y-89947000D01*
X95320000Y-89947000D02*
X95320000Y-89820000D01*
X95320000Y-89820000D02*
X92780000Y-89820000D01*
X89780000Y-89947000D02*
X89780000Y-89820000D01*
X92320000Y-90074000D02*
X92320000Y-89947000D01*
X92320000Y-89820000D02*
X92320000Y-82200000D01*
X89780000Y-82200000D02*
X89780000Y-89820000D01*
X89780000Y-82200000D02*
X92320000Y-82200000D01*
X92320000Y-90074000D02*
X89780000Y-90074000D01*
X89780000Y-90074000D02*
X89780000Y-89947000D01*
X89780000Y-89947000D02*
X92320000Y-89947000D01*
X92320000Y-89947000D02*
X92320000Y-89820000D01*
X92320000Y-89820000D02*
X89780000Y-89820000D01*
X115300000Y-90050000D02*
X115300000Y-53050000D01*
X115300000Y-53050000D02*
X57300000Y-53050000D01*
X57300000Y-53050000D02*
X57300000Y-90050000D01*
X57300000Y-90050000D02*
X115300000Y-90050000D01*
X114300000Y-71050000D02*
X114300000Y-54050000D01*
X114300000Y-54050000D02*
X58300000Y-54050000D01*
X58300000Y-54050000D02*
X58300000Y-71050000D01*
X114300000Y-71050000D02*
X58300000Y-71050000D01*
X114300000Y-72050000D02*
X114300000Y-89050000D01*
X114300000Y-89050000D02*
X58300000Y-89050000D01*
X58300000Y-89050000D02*
X58300000Y-72050000D01*
X58300000Y-72050000D02*
X114300000Y-72050000D01*
X94502381Y-90835715D02*
X94502381Y-90264286D01*
X94502381Y-90550000D02*
X93502381Y-90550000D01*
X93645238Y-90454762D01*
X93740476Y-90359524D01*
X93788095Y-90264286D01*
X91502381Y-90835715D02*
X91502381Y-90264286D01*
X91502381Y-90550000D02*
X90502381Y-90550000D01*
X90645238Y-90454762D01*
X90740476Y-90359524D01*
X90788095Y-90264286D01*
X85014286Y-80502381D02*
X84347619Y-81502381D01*
X84347619Y-80502381D02*
X85014286Y-81502381D01*
X83490476Y-81502381D02*
X83966667Y-81502381D01*
X83966667Y-80502381D01*
X82633333Y-81502381D02*
X83204762Y-81502381D01*
X82919048Y-81502381D02*
X82919048Y-80502381D01*
X83014286Y-80645238D01*
X83109524Y-80740476D01*
X83204762Y-80788095D01*
M02*
