G04 #@! TF.FileFunction,Copper,L1,Top,Signal*
%FSLAX46Y46*%
G04 Gerber Fmt 4.6, Leading zero omitted, Abs format (unit mm)*
G04 Created by KiCad (PCBNEW 4.0.2-stable) date 22/10/2018 19:31:19*
%MOMM*%
G01*
G04 APERTURE LIST*
%ADD10C,0.100000*%
%ADD11R,1.524000X1.524000*%
%ADD12O,1.500000X1.500000*%
%ADD13R,1.500000X1.500000*%
%ADD14C,1.500000*%
%ADD15R,0.889000X1.016000*%
%ADD16R,1.016000X0.889000*%
%ADD17R,1.000760X1.000760*%
%ADD18R,0.250000X0.700000*%
%ADD19R,0.700000X0.250000*%
%ADD20R,1.725000X1.725000*%
%ADD21R,2.150000X5.500000*%
%ADD22C,1.200000*%
%ADD23C,2.000000*%
%ADD24C,1.800000*%
%ADD25O,2.600000X3.700000*%
%ADD26C,1.700000*%
%ADD27R,1.700000X1.700000*%
%ADD28O,1.700000X1.700000*%
%ADD29R,0.650000X1.560000*%
%ADD30R,1.000000X0.900000*%
%ADD31R,2.000000X2.000000*%
%ADD32C,0.600000*%
%ADD33C,0.500000*%
%ADD34C,0.250000*%
%ADD35C,0.200000*%
G04 APERTURE END LIST*
D10*
D11*
X65910000Y-39070000D03*
D12*
X68450000Y-39070000D03*
X70990000Y-39070000D03*
X73530000Y-39070000D03*
X76070000Y-39070000D03*
X78610000Y-39070000D03*
X81150000Y-39070000D03*
X83690000Y-39070000D03*
D13*
X65910000Y-78440000D03*
D14*
X68450000Y-78440000D03*
X70990000Y-78440000D03*
X73530000Y-78440000D03*
X76070000Y-78440000D03*
X78610000Y-78440000D03*
X81150000Y-78440000D03*
X83690000Y-78440000D03*
D15*
X58038000Y-78600000D03*
X59562000Y-78600000D03*
X58038000Y-76800000D03*
X59562000Y-76800000D03*
D16*
X77600000Y-60562000D03*
X77600000Y-59038000D03*
X79200000Y-60562000D03*
X79200000Y-59038000D03*
X68200000Y-69488000D03*
X68200000Y-71012000D03*
X70400000Y-62762000D03*
X70400000Y-61238000D03*
X68800000Y-62762000D03*
X68800000Y-61238000D03*
D15*
X61162000Y-62800000D03*
X59638000Y-62800000D03*
X61162000Y-61200000D03*
X59638000Y-61200000D03*
X110362000Y-71000000D03*
X108838000Y-71000000D03*
D16*
X95200000Y-74638000D03*
X95200000Y-76162000D03*
D15*
X105638000Y-71000000D03*
X107162000Y-71000000D03*
D17*
X63600000Y-65699520D03*
X63600000Y-68300480D03*
D18*
X78950000Y-64000000D03*
X78450000Y-64000000D03*
X77950000Y-64000000D03*
X77450000Y-64000000D03*
X76950000Y-64000000D03*
X76450000Y-64000000D03*
X75950000Y-64000000D03*
X75450000Y-64000000D03*
D19*
X74800000Y-64650000D03*
X74800000Y-65150000D03*
X74800000Y-65650000D03*
X74800000Y-66150000D03*
X74800000Y-66650000D03*
X74800000Y-67150000D03*
X74800000Y-67650000D03*
X74800000Y-68150000D03*
D18*
X75450000Y-68800000D03*
X75950000Y-68800000D03*
X76450000Y-68800000D03*
X76950000Y-68800000D03*
X77450000Y-68800000D03*
X77950000Y-68800000D03*
X78450000Y-68800000D03*
X78950000Y-68800000D03*
D19*
X79600000Y-68150000D03*
X79600000Y-67650000D03*
X79600000Y-67150000D03*
X79600000Y-66650000D03*
X79600000Y-66150000D03*
X79600000Y-65650000D03*
X79600000Y-65150000D03*
X79600000Y-64650000D03*
D20*
X76337500Y-67262500D03*
X78062500Y-67262500D03*
X76337500Y-65537500D03*
X78062500Y-65537500D03*
D21*
X62300000Y-72800000D03*
X58500000Y-72800000D03*
D22*
X55000000Y-82500000D03*
X55000000Y-85000000D03*
X55000000Y-87500000D03*
D23*
X60300000Y-82300000D03*
X66800000Y-82300000D03*
X60300000Y-86800000D03*
X66800000Y-86800000D03*
X70800000Y-82300000D03*
X77300000Y-82300000D03*
X70800000Y-86800000D03*
X77300000Y-86800000D03*
X81050000Y-82300000D03*
X87550000Y-82300000D03*
X81050000Y-86800000D03*
X87550000Y-86800000D03*
D24*
X107800000Y-73800000D03*
X110350000Y-73800000D03*
X105250000Y-73800000D03*
X110300000Y-88300000D03*
X105300000Y-88300000D03*
D25*
X113650000Y-81300000D03*
X101950000Y-81300000D03*
D26*
X103770000Y-62050000D03*
D27*
X103770000Y-64590000D03*
D28*
X106310000Y-62050000D03*
X106310000Y-64590000D03*
X108850000Y-62050000D03*
X108850000Y-64590000D03*
X111390000Y-62050000D03*
X111390000Y-64590000D03*
D13*
X97050000Y-88550000D03*
D14*
X97050000Y-86010000D03*
D13*
X94050000Y-88550000D03*
D14*
X94050000Y-86010000D03*
X94050000Y-83470000D03*
X94050000Y-80930000D03*
D13*
X91050000Y-88550000D03*
D14*
X91050000Y-86010000D03*
X91050000Y-83470000D03*
D29*
X61350000Y-65650000D03*
X60400000Y-65650000D03*
X59450000Y-65650000D03*
X59450000Y-68350000D03*
X61350000Y-68350000D03*
D30*
X96800000Y-74650000D03*
X96800000Y-76150000D03*
X66600000Y-75550000D03*
X66600000Y-74050000D03*
X66600000Y-72550000D03*
X66600000Y-71050000D03*
X98400000Y-74650000D03*
X98400000Y-76150000D03*
X100000000Y-74650000D03*
X100000000Y-76150000D03*
D31*
X116800000Y-71550000D03*
D23*
X55300000Y-71550000D03*
D32*
X76400000Y-65600000D03*
X76337500Y-67262500D03*
X78000000Y-67200000D03*
X78062500Y-65537500D03*
X90000000Y-73850000D03*
X92650000Y-72600000D03*
X74400000Y-72900000D03*
X73300000Y-74950000D03*
X74400000Y-72900000D03*
X70400000Y-72950000D03*
X64950000Y-59350000D03*
X66500000Y-64350000D03*
X83900000Y-63550000D03*
X61250000Y-76950000D03*
X93850000Y-74250000D03*
X58350000Y-68550000D03*
X65450000Y-68300000D03*
X77800000Y-71800000D03*
X70800000Y-72100000D03*
X75100000Y-71750000D03*
X89950000Y-76550000D03*
X95800000Y-80550000D03*
X85700000Y-71400000D03*
X88250000Y-73000000D03*
X78200000Y-62500000D03*
X96800000Y-77650000D03*
X91200000Y-72750000D03*
X85750000Y-67400000D03*
X89300000Y-69500000D03*
X76100000Y-61400000D03*
X83750000Y-60200000D03*
X74500000Y-62050000D03*
X65100000Y-72650000D03*
X75100000Y-62800000D03*
X73850000Y-64350000D03*
X73150000Y-62200000D03*
X72200000Y-64600000D03*
X72100000Y-71150000D03*
X72600000Y-70400000D03*
X72650000Y-69500000D03*
X81700000Y-69650000D03*
X76100000Y-69750000D03*
X95850000Y-79000000D03*
X89600000Y-75450000D03*
X82700000Y-75600000D03*
X83900000Y-75400000D03*
X94050000Y-80930000D03*
X85650000Y-75650000D03*
X92300000Y-80850000D03*
X87650000Y-74400000D03*
X86150000Y-69950000D03*
X88500000Y-71350000D03*
D33*
X55000000Y-85000000D02*
X58000000Y-82000000D01*
X58000000Y-79826000D02*
X58038000Y-79788000D01*
X58000000Y-82000000D02*
X58000000Y-79826000D01*
X66600000Y-75550000D02*
X65100000Y-75550000D01*
X58038000Y-79788000D02*
X58038000Y-78600000D01*
X58350000Y-80100000D02*
X58038000Y-79788000D01*
X60550000Y-80100000D02*
X58350000Y-80100000D01*
X65100000Y-75550000D02*
X60550000Y-80100000D01*
X58038000Y-76800000D02*
X58038000Y-73262000D01*
X58038000Y-73262000D02*
X58500000Y-72800000D01*
X58038000Y-78600000D02*
X58038000Y-76800000D01*
X76400000Y-65600000D02*
X76337500Y-65662500D01*
X76337500Y-65662500D02*
X76337500Y-67262500D01*
X78000000Y-67200000D02*
X78062500Y-67137500D01*
X78062500Y-67137500D02*
X78062500Y-65537500D01*
X78000000Y-67200000D02*
X78062500Y-67137500D01*
X78062500Y-67137500D02*
X78062500Y-65537500D01*
X76500000Y-65500000D02*
X76337500Y-65662500D01*
X76337500Y-65662500D02*
X76337500Y-67262500D01*
X91400000Y-73850000D02*
X90000000Y-73850000D01*
X92650000Y-72600000D02*
X91400000Y-73850000D01*
X72350000Y-75900000D02*
X72000000Y-75900000D01*
X73300000Y-74950000D02*
X72350000Y-75900000D01*
X68200000Y-71012000D02*
X68200000Y-72700000D01*
X74450000Y-72850000D02*
X75300000Y-72850000D01*
X74400000Y-72900000D02*
X74450000Y-72850000D01*
X68450000Y-72950000D02*
X70400000Y-72950000D01*
X68200000Y-72700000D02*
X68450000Y-72950000D01*
X68100000Y-64850000D02*
X67000000Y-64850000D01*
X66500000Y-64350000D02*
X67000000Y-64850000D01*
X81100000Y-64900000D02*
X81100000Y-64250000D01*
D34*
X80850000Y-65150000D02*
X81100000Y-64900000D01*
X79600000Y-65150000D02*
X80850000Y-65150000D01*
D33*
X81800000Y-63550000D02*
X83900000Y-63550000D01*
X81100000Y-64250000D02*
X81800000Y-63550000D01*
D34*
X79600000Y-65150000D02*
X78450000Y-65150000D01*
X78450000Y-65150000D02*
X78062500Y-65537500D01*
D33*
X59562000Y-78600000D02*
X59562000Y-76800000D01*
X61100000Y-76800000D02*
X59562000Y-76800000D01*
X61250000Y-76950000D02*
X61100000Y-76800000D01*
X97050000Y-88550000D02*
X105050000Y-88550000D01*
X105050000Y-88550000D02*
X105300000Y-88300000D01*
X95200000Y-74638000D02*
X94238000Y-74638000D01*
X94238000Y-74638000D02*
X93850000Y-74250000D01*
X66600000Y-71050000D02*
X66600000Y-69450000D01*
X58550000Y-68350000D02*
X59450000Y-68350000D01*
X58350000Y-68550000D02*
X58550000Y-68350000D01*
X66600000Y-69450000D02*
X65450000Y-68300000D01*
X76337500Y-67262500D02*
X78062500Y-67262500D01*
X78062500Y-67262500D02*
X78062500Y-65537500D01*
X78062500Y-65537500D02*
X76337500Y-65537500D01*
X77600000Y-59038000D02*
X79200000Y-59038000D01*
X70400000Y-61238000D02*
X71112000Y-61238000D01*
X73312000Y-59038000D02*
X77600000Y-59038000D01*
X71112000Y-61238000D02*
X73312000Y-59038000D01*
X68800000Y-61238000D02*
X70400000Y-61238000D01*
X59638000Y-61200000D02*
X59638000Y-60012000D01*
X68800000Y-60700000D02*
X68800000Y-61238000D01*
X67450000Y-59350000D02*
X68800000Y-60700000D01*
X60300000Y-59350000D02*
X64950000Y-59350000D01*
X64950000Y-59350000D02*
X67450000Y-59350000D01*
X59638000Y-60012000D02*
X60300000Y-59350000D01*
X59450000Y-68350000D02*
X59100000Y-68350000D01*
X59100000Y-68350000D02*
X58200000Y-67450000D01*
X58200000Y-67450000D02*
X58200000Y-63250000D01*
X58200000Y-63250000D02*
X58650000Y-62800000D01*
X58650000Y-62800000D02*
X59638000Y-62800000D01*
X59638000Y-62800000D02*
X59638000Y-61200000D01*
X107162000Y-71000000D02*
X107162000Y-68612000D01*
X107162000Y-68612000D02*
X103770000Y-65220000D01*
X103770000Y-65220000D02*
X103770000Y-64590000D01*
X108838000Y-71000000D02*
X108838000Y-70062000D01*
X114450000Y-69200000D02*
X116800000Y-71550000D01*
X109700000Y-69200000D02*
X114450000Y-69200000D01*
X108838000Y-70062000D02*
X109700000Y-69200000D01*
X107800000Y-73800000D02*
X107800000Y-73050000D01*
X107800000Y-73050000D02*
X107162000Y-72412000D01*
X107162000Y-72412000D02*
X107162000Y-71000000D01*
X107162000Y-71000000D02*
X108838000Y-71000000D01*
X66800000Y-86800000D02*
X60300000Y-86800000D01*
X66800000Y-86800000D02*
X70800000Y-86800000D01*
X70800000Y-86800000D02*
X75900000Y-86800000D01*
X75900000Y-86800000D02*
X77300000Y-86800000D01*
X77300000Y-86800000D02*
X81050000Y-86800000D01*
X81050000Y-86800000D02*
X87550000Y-86800000D01*
X66600000Y-71050000D02*
X68188000Y-71050000D01*
X68188000Y-71050000D02*
X68200000Y-71038000D01*
D34*
X75450000Y-69600000D02*
X75150000Y-69600000D01*
X75100000Y-71600000D02*
X75100000Y-71750000D01*
X74650000Y-71150000D02*
X75100000Y-71600000D01*
X74650000Y-70100000D02*
X74650000Y-71150000D01*
X75150000Y-69600000D02*
X74650000Y-70100000D01*
D33*
X78100000Y-71850000D02*
X77850000Y-71850000D01*
X77850000Y-71850000D02*
X77800000Y-71800000D01*
X79750000Y-76600000D02*
X79750000Y-73500000D01*
X79750000Y-73500000D02*
X78100000Y-71850000D01*
X68988000Y-69488000D02*
X69700000Y-70200000D01*
X69700000Y-70200000D02*
X69700000Y-71600000D01*
X68988000Y-69488000D02*
X68200000Y-69488000D01*
X70300000Y-71600000D02*
X69700000Y-71600000D01*
X70800000Y-72100000D02*
X70300000Y-71600000D01*
D34*
X75450000Y-69600000D02*
X75450000Y-68800000D01*
X78950000Y-64000000D02*
X78950000Y-63000000D01*
D33*
X79200000Y-62750000D02*
X79000000Y-62950000D01*
X79200000Y-61800000D02*
X79200000Y-62750000D01*
X79200000Y-61700000D02*
X79200000Y-61800000D01*
X79200000Y-61700000D02*
X79200000Y-60562000D01*
D34*
X78950000Y-63000000D02*
X79000000Y-62950000D01*
X76950000Y-64000000D02*
X76950000Y-62400000D01*
D33*
X77600000Y-61750000D02*
X77100000Y-62250000D01*
X77600000Y-61750000D02*
X77600000Y-60562000D01*
D34*
X76950000Y-62400000D02*
X77100000Y-62250000D01*
D33*
X94050000Y-88550000D02*
X95650000Y-86950000D01*
X95650000Y-80700000D02*
X95650000Y-86950000D01*
X95800000Y-80550000D02*
X95650000Y-80700000D01*
X78610000Y-78440000D02*
X78610000Y-77740000D01*
X78610000Y-77740000D02*
X79750000Y-76600000D01*
X79750000Y-76600000D02*
X79800000Y-76550000D01*
X79800000Y-76550000D02*
X89950000Y-76550000D01*
X89950000Y-76550000D02*
X93250000Y-73250000D01*
X93250000Y-73250000D02*
X96250000Y-73250000D01*
X96250000Y-73250000D02*
X96800000Y-73800000D01*
X96800000Y-73800000D02*
X96800000Y-74650000D01*
X100000000Y-74650000D02*
X100000000Y-63850000D01*
X101800000Y-62050000D02*
X103770000Y-62050000D01*
X100000000Y-63850000D02*
X101800000Y-62050000D01*
X96800000Y-74650000D02*
X98400000Y-74650000D01*
X98400000Y-74650000D02*
X100000000Y-74650000D01*
X68200000Y-69488000D02*
X68200000Y-67750000D01*
X68200000Y-67750000D02*
X66149520Y-65699520D01*
X66149520Y-65699520D02*
X63600000Y-65699520D01*
X77600000Y-60562000D02*
X79200000Y-60562000D01*
X70400000Y-62762000D02*
X71438000Y-62762000D01*
X73638000Y-60562000D02*
X77600000Y-60562000D01*
X71438000Y-62762000D02*
X73638000Y-60562000D01*
X68800000Y-62762000D02*
X70400000Y-62762000D01*
X68762000Y-62800000D02*
X67200000Y-62800000D01*
X67200000Y-62800000D02*
X61162000Y-62800000D01*
X68762000Y-62800000D02*
X68800000Y-62762000D01*
X61162000Y-62800000D02*
X61162000Y-61200000D01*
X60400000Y-65650000D02*
X60400000Y-64400000D01*
X60800000Y-64000000D02*
X61350000Y-64000000D01*
X60400000Y-64400000D02*
X60800000Y-64000000D01*
X61350000Y-65650000D02*
X61350000Y-64000000D01*
X61350000Y-64000000D02*
X61350000Y-62988000D01*
X61350000Y-62988000D02*
X61162000Y-62800000D01*
X61350000Y-65650000D02*
X63550480Y-65650000D01*
X63550480Y-65650000D02*
X63600000Y-65699520D01*
D34*
X81450000Y-67150000D02*
X79600000Y-67150000D01*
X85700000Y-71400000D02*
X81450000Y-67150000D01*
X98400000Y-76150000D02*
X98400000Y-77350000D01*
X108300000Y-75850000D02*
X110350000Y-73800000D01*
X106200000Y-75850000D02*
X108300000Y-75850000D01*
X104500000Y-77550000D02*
X106200000Y-75850000D01*
X98600000Y-77550000D02*
X104500000Y-77550000D01*
X98400000Y-77350000D02*
X98600000Y-77550000D01*
X110362000Y-71000000D02*
X110362000Y-73788000D01*
X110362000Y-73788000D02*
X110350000Y-73800000D01*
X87550000Y-82300000D02*
X92550000Y-77300000D01*
X93550000Y-76300000D02*
X95062000Y-76300000D01*
X92550000Y-77300000D02*
X93550000Y-76300000D01*
X95062000Y-76300000D02*
X95200000Y-76162000D01*
X81050000Y-82300000D02*
X87550000Y-82300000D01*
X87550000Y-82300000D02*
X87550000Y-82510000D01*
X87550000Y-82510000D02*
X91050000Y-86010000D01*
X88075000Y-72825000D02*
X88075000Y-72775000D01*
X88250000Y-73000000D02*
X88075000Y-72825000D01*
X81950000Y-66650000D02*
X88075000Y-72775000D01*
X79600000Y-66650000D02*
X81950000Y-66650000D01*
X100000000Y-76150000D02*
X102100000Y-76150000D01*
X102100000Y-76150000D02*
X104450000Y-73800000D01*
X104450000Y-73800000D02*
X105250000Y-73800000D01*
X105638000Y-71000000D02*
X105638000Y-73412000D01*
X105638000Y-73412000D02*
X105250000Y-73800000D01*
X77450000Y-63250000D02*
X78200000Y-62500000D01*
X77450000Y-64000000D02*
X77450000Y-63250000D01*
X96800000Y-77650000D02*
X96800000Y-77150000D01*
X91100000Y-72750000D02*
X91200000Y-72750000D01*
X85750000Y-67400000D02*
X91100000Y-72750000D01*
X96800000Y-76150000D02*
X96800000Y-77150000D01*
X96800000Y-77150000D02*
X96800000Y-77700000D01*
X91050000Y-79700000D02*
X91050000Y-83470000D01*
X92450000Y-78300000D02*
X91050000Y-79700000D01*
X96200000Y-78300000D02*
X92450000Y-78300000D01*
X96800000Y-77700000D02*
X96200000Y-78300000D01*
X89300000Y-69500000D02*
X85300000Y-65500000D01*
X76450000Y-61750000D02*
X76100000Y-61400000D01*
X76450000Y-61750000D02*
X76450000Y-64000000D01*
X85300000Y-61750000D02*
X85300000Y-65500000D01*
X83750000Y-60200000D02*
X85300000Y-61750000D01*
X66600000Y-72550000D02*
X65200000Y-72550000D01*
X75950000Y-62300000D02*
X75700000Y-62050000D01*
X75700000Y-62050000D02*
X74500000Y-62050000D01*
X75950000Y-62300000D02*
X75950000Y-64000000D01*
X65200000Y-72550000D02*
X65100000Y-72650000D01*
X66600000Y-74050000D02*
X66600000Y-72550000D01*
X75450000Y-64000000D02*
X75450000Y-63150000D01*
X75450000Y-63150000D02*
X75100000Y-62800000D01*
X108850000Y-62050000D02*
X108250000Y-62050000D01*
X74800000Y-64650000D02*
X74150000Y-64650000D01*
X74150000Y-64650000D02*
X73850000Y-64350000D01*
X74800000Y-65150000D02*
X73550000Y-65150000D01*
X73150000Y-64750000D02*
X73150000Y-62200000D01*
X73550000Y-65150000D02*
X73150000Y-64750000D01*
X74800000Y-65650000D02*
X72950000Y-65650000D01*
X72200000Y-64900000D02*
X72200000Y-64600000D01*
X72950000Y-65650000D02*
X72200000Y-64900000D01*
X74800000Y-66150000D02*
X72400000Y-66150000D01*
X71300000Y-70350000D02*
X72100000Y-71150000D01*
X71300000Y-67250000D02*
X71300000Y-70350000D01*
X72400000Y-66150000D02*
X71300000Y-67250000D01*
X72850000Y-66650000D02*
X74800000Y-66650000D01*
X71850000Y-67650000D02*
X72850000Y-66650000D01*
X71850000Y-69650000D02*
X71850000Y-67650000D01*
X72600000Y-70400000D02*
X71850000Y-69650000D01*
X72550000Y-69400000D02*
X72550000Y-68900000D01*
X72650000Y-69500000D02*
X72550000Y-69400000D01*
X74800000Y-67150000D02*
X73250000Y-67150000D01*
X72550000Y-67850000D02*
X72550000Y-68900000D01*
X72550000Y-68900000D02*
X72550000Y-68950000D01*
X73250000Y-67150000D02*
X72550000Y-67850000D01*
X81150000Y-78440000D02*
X81150000Y-78200000D01*
X65910000Y-78440000D02*
X65910000Y-78390000D01*
X65910000Y-78390000D02*
X73400000Y-70900000D01*
X73400000Y-70900000D02*
X73400000Y-67850000D01*
X73400000Y-67850000D02*
X73600000Y-67650000D01*
X73600000Y-67650000D02*
X74800000Y-67650000D01*
X74800000Y-68150000D02*
X74050000Y-68150000D01*
X74000000Y-68200000D02*
X74000000Y-71250000D01*
X74050000Y-68150000D02*
X74000000Y-68200000D01*
X68450000Y-76800000D02*
X68450000Y-78440000D01*
X74000000Y-71250000D02*
X68450000Y-76800000D01*
X76450000Y-69400000D02*
X76100000Y-69750000D01*
X76450000Y-68800000D02*
X76450000Y-69400000D01*
X87600000Y-75450000D02*
X89600000Y-75450000D01*
X81850000Y-69700000D02*
X87600000Y-75450000D01*
X81750000Y-69700000D02*
X81850000Y-69700000D01*
X81700000Y-69650000D02*
X81750000Y-69700000D01*
X95850000Y-79000000D02*
X95950000Y-79100000D01*
X97050000Y-86010000D02*
X97050000Y-80200000D01*
X97050000Y-80200000D02*
X95950000Y-79100000D01*
X95950000Y-79100000D02*
X95850000Y-79000000D01*
X76350000Y-72800000D02*
X75500000Y-73650000D01*
X76950000Y-70750000D02*
X76350000Y-71350000D01*
X76350000Y-71350000D02*
X76350000Y-72800000D01*
X76950000Y-68800000D02*
X76950000Y-70750000D01*
X72050000Y-74300000D02*
X72050000Y-74250000D01*
X72700000Y-73650000D02*
X72050000Y-74300000D01*
X75500000Y-73650000D02*
X72700000Y-73650000D01*
X66800000Y-82300000D02*
X67050000Y-82300000D01*
X67050000Y-82300000D02*
X69800000Y-79550000D01*
X69800000Y-76500000D02*
X72050000Y-74250000D01*
X69800000Y-79550000D02*
X69800000Y-76500000D01*
X60300000Y-82300000D02*
X66800000Y-82300000D01*
X76950000Y-72750000D02*
X76950000Y-75200000D01*
X77450000Y-71000000D02*
X76950000Y-71500000D01*
X76950000Y-71500000D02*
X76950000Y-72750000D01*
X77450000Y-68800000D02*
X77450000Y-71000000D01*
X77300000Y-75550000D02*
X77300000Y-82300000D01*
X76950000Y-75200000D02*
X77300000Y-75550000D01*
X77499998Y-68800000D02*
X77450000Y-68800000D01*
X70800000Y-82300000D02*
X77300000Y-82300000D01*
X77950000Y-70850000D02*
X77950000Y-68800000D01*
X82700000Y-75600000D02*
X77950000Y-70850000D01*
X91050000Y-88550000D02*
X91050000Y-88000000D01*
X78450000Y-68800000D02*
X78450000Y-70400000D01*
X83400000Y-74900000D02*
X83900000Y-75400000D01*
X82950000Y-74900000D02*
X83400000Y-74900000D01*
X78450000Y-70400000D02*
X82950000Y-74900000D01*
X82625000Y-73675000D02*
X83675000Y-73675000D01*
X83675000Y-73675000D02*
X85650000Y-75650000D01*
X78950000Y-68800000D02*
X78950000Y-70000000D01*
X92650000Y-84610000D02*
X94050000Y-86010000D01*
X92300000Y-80850000D02*
X92650000Y-81200000D01*
X92650000Y-81200000D02*
X92650000Y-84610000D01*
X78950000Y-70000000D02*
X82625000Y-73675000D01*
X94050000Y-86010000D02*
X94050000Y-85900000D01*
X80900000Y-67650000D02*
X79600000Y-67650000D01*
X87650000Y-74400000D02*
X80900000Y-67650000D01*
X82100000Y-66150000D02*
X82300000Y-66150000D01*
X82350000Y-66150000D02*
X82893199Y-66693199D01*
X82300000Y-66150000D02*
X82350000Y-66150000D01*
X82893199Y-66693199D02*
X86150000Y-69950000D01*
X79600000Y-66150000D02*
X82100000Y-66150000D01*
X88300000Y-71200000D02*
X88300000Y-71150000D01*
X88325000Y-71175000D02*
X88300000Y-71200000D01*
X88500000Y-71350000D02*
X88325000Y-71175000D01*
X85450000Y-68300000D02*
X82800000Y-65650000D01*
X82800000Y-65650000D02*
X82800000Y-65700000D01*
X82800000Y-65700000D02*
X82800000Y-65650000D01*
X82800000Y-65650000D02*
X79600000Y-65650000D01*
X88300000Y-71150000D02*
X85450000Y-68300000D01*
D33*
X62300000Y-72800000D02*
X63000000Y-72800000D01*
X63000000Y-72800000D02*
X63600000Y-72200000D01*
X63600000Y-72200000D02*
X63600000Y-68300480D01*
X61350000Y-68350000D02*
X61350000Y-71850000D01*
X61350000Y-71850000D02*
X62300000Y-72800000D01*
X55000000Y-82500000D02*
X55000000Y-71850000D01*
X55000000Y-71850000D02*
X55300000Y-71550000D01*
X55050000Y-71800000D02*
X55300000Y-71550000D01*
D35*
G36*
X64230368Y-38308000D02*
X64230368Y-39832000D01*
X64293124Y-40165520D01*
X64490234Y-40471838D01*
X64790990Y-40677336D01*
X65148000Y-40749632D01*
X66672000Y-40749632D01*
X67005520Y-40686876D01*
X67311838Y-40489766D01*
X67411455Y-40343972D01*
X67786247Y-40594401D01*
X68417675Y-40720000D01*
X68482325Y-40720000D01*
X69113753Y-40594401D01*
X69649051Y-40236726D01*
X69720000Y-40130543D01*
X69790949Y-40236726D01*
X70326247Y-40594401D01*
X70957675Y-40720000D01*
X71022325Y-40720000D01*
X71653753Y-40594401D01*
X72189051Y-40236726D01*
X72260000Y-40130543D01*
X72330949Y-40236726D01*
X72866247Y-40594401D01*
X73497675Y-40720000D01*
X73562325Y-40720000D01*
X74193753Y-40594401D01*
X74729051Y-40236726D01*
X74800000Y-40130543D01*
X74870949Y-40236726D01*
X75406247Y-40594401D01*
X76037675Y-40720000D01*
X76102325Y-40720000D01*
X76733753Y-40594401D01*
X77269051Y-40236726D01*
X77340000Y-40130543D01*
X77410949Y-40236726D01*
X77946247Y-40594401D01*
X78577675Y-40720000D01*
X78642325Y-40720000D01*
X79273753Y-40594401D01*
X79809051Y-40236726D01*
X79880000Y-40130543D01*
X79950949Y-40236726D01*
X80486247Y-40594401D01*
X81117675Y-40720000D01*
X81182325Y-40720000D01*
X81813753Y-40594401D01*
X82349051Y-40236726D01*
X82420000Y-40130543D01*
X82490949Y-40236726D01*
X83026247Y-40594401D01*
X83657675Y-40720000D01*
X83722325Y-40720000D01*
X84353753Y-40594401D01*
X84889051Y-40236726D01*
X85246726Y-39701428D01*
X85372325Y-39070000D01*
X85246726Y-38438572D01*
X84936977Y-37975000D01*
X96900000Y-37975000D01*
X96900000Y-58000000D01*
X96907879Y-58038906D01*
X96930273Y-58071681D01*
X96963654Y-58093161D01*
X97000000Y-58100000D01*
X117025000Y-58100000D01*
X117025000Y-69804000D01*
X116954000Y-69875000D01*
X116954000Y-71396000D01*
X116974000Y-71396000D01*
X116974000Y-71704000D01*
X116954000Y-71704000D01*
X116954000Y-73225000D01*
X117025000Y-73296000D01*
X117025000Y-89025000D01*
X111947965Y-89025000D01*
X112099687Y-88659613D01*
X112100312Y-87943529D01*
X111826855Y-87281714D01*
X111320949Y-86774924D01*
X110659613Y-86500313D01*
X109943529Y-86499688D01*
X109281714Y-86773145D01*
X108774924Y-87279051D01*
X108500313Y-87940387D01*
X108499688Y-88656471D01*
X108651961Y-89025000D01*
X106951779Y-89025000D01*
X107114212Y-88577178D01*
X107082185Y-87861810D01*
X106870042Y-87349652D01*
X106542304Y-87275485D01*
X105517789Y-88300000D01*
X105531931Y-88314142D01*
X105314142Y-88531931D01*
X105300000Y-88517789D01*
X105285858Y-88531931D01*
X105068069Y-88314142D01*
X105082211Y-88300000D01*
X104057696Y-87275485D01*
X103729958Y-87349652D01*
X103485788Y-88022822D01*
X103517815Y-88738190D01*
X103636616Y-89025000D01*
X98700000Y-89025000D01*
X98700000Y-88929000D01*
X98475000Y-88704000D01*
X97204000Y-88704000D01*
X97204000Y-88724000D01*
X96896000Y-88724000D01*
X96896000Y-88704000D01*
X96876000Y-88704000D01*
X96876000Y-88396000D01*
X96896000Y-88396000D01*
X96896000Y-88376000D01*
X97204000Y-88376000D01*
X97204000Y-88396000D01*
X98475000Y-88396000D01*
X98700000Y-88171000D01*
X98700000Y-87620979D01*
X98562983Y-87290191D01*
X98333224Y-87060432D01*
X98335964Y-87057696D01*
X104275485Y-87057696D01*
X105300000Y-88082211D01*
X106324515Y-87057696D01*
X106250348Y-86729958D01*
X105577178Y-86485788D01*
X104861810Y-86517815D01*
X104349652Y-86729958D01*
X104275485Y-87057696D01*
X98335964Y-87057696D01*
X98447986Y-86945870D01*
X98699713Y-86339645D01*
X98700285Y-85683235D01*
X98449617Y-85076571D01*
X98075000Y-84701300D01*
X98075000Y-80200000D01*
X97996977Y-79807749D01*
X97898196Y-79659914D01*
X97774785Y-79475216D01*
X97124568Y-78825000D01*
X97142816Y-78806752D01*
X97478857Y-78667903D01*
X97816717Y-78330633D01*
X97850267Y-78249836D01*
X97875216Y-78274785D01*
X98025522Y-78375216D01*
X98207749Y-78496977D01*
X98600000Y-78575000D01*
X101553463Y-78575000D01*
X101108096Y-78663589D01*
X100394365Y-79140489D01*
X99917465Y-79854220D01*
X99750000Y-80696124D01*
X99750000Y-81903876D01*
X99917465Y-82745780D01*
X100394365Y-83459511D01*
X101108096Y-83936411D01*
X101950000Y-84103876D01*
X102791904Y-83936411D01*
X103505635Y-83459511D01*
X103982535Y-82745780D01*
X104150000Y-81903876D01*
X104150000Y-80696124D01*
X111450000Y-80696124D01*
X111450000Y-81903876D01*
X111617465Y-82745780D01*
X112094365Y-83459511D01*
X112808096Y-83936411D01*
X113650000Y-84103876D01*
X114491904Y-83936411D01*
X115205635Y-83459511D01*
X115682535Y-82745780D01*
X115850000Y-81903876D01*
X115850000Y-80696124D01*
X115682535Y-79854220D01*
X115205635Y-79140489D01*
X114491904Y-78663589D01*
X113650000Y-78496124D01*
X112808096Y-78663589D01*
X112094365Y-79140489D01*
X111617465Y-79854220D01*
X111450000Y-80696124D01*
X104150000Y-80696124D01*
X103982535Y-79854220D01*
X103505635Y-79140489D01*
X102791904Y-78663589D01*
X102346537Y-78575000D01*
X104500000Y-78575000D01*
X104892251Y-78496977D01*
X105224784Y-78274784D01*
X106624568Y-76875000D01*
X108300000Y-76875000D01*
X108692251Y-76796977D01*
X109024784Y-76574784D01*
X109999873Y-75599695D01*
X110706471Y-75600312D01*
X111368286Y-75326855D01*
X111875076Y-74820949D01*
X112149687Y-74159613D01*
X112150312Y-73443529D01*
X111876855Y-72781714D01*
X111387000Y-72291003D01*
X111387000Y-72203949D01*
X111446338Y-72165766D01*
X111608113Y-71929000D01*
X114900000Y-71929000D01*
X114900000Y-72729021D01*
X115037017Y-73059809D01*
X115290191Y-73312983D01*
X115620979Y-73450000D01*
X116421000Y-73450000D01*
X116646000Y-73225000D01*
X116646000Y-71704000D01*
X115125000Y-71704000D01*
X114900000Y-71929000D01*
X111608113Y-71929000D01*
X111651836Y-71865010D01*
X111724132Y-71508000D01*
X111724132Y-70492000D01*
X111701361Y-70370979D01*
X114900000Y-70370979D01*
X114900000Y-71171000D01*
X115125000Y-71396000D01*
X116646000Y-71396000D01*
X116646000Y-69875000D01*
X116421000Y-69650000D01*
X115620979Y-69650000D01*
X115290191Y-69787017D01*
X115037017Y-70040191D01*
X114900000Y-70370979D01*
X111701361Y-70370979D01*
X111661376Y-70158480D01*
X111464266Y-69852162D01*
X111163510Y-69646664D01*
X110806500Y-69574368D01*
X109917500Y-69574368D01*
X109583980Y-69637124D01*
X109578685Y-69640531D01*
X109461521Y-69592000D01*
X109217000Y-69592000D01*
X108992000Y-69817000D01*
X108992000Y-70846000D01*
X108999868Y-70846000D01*
X108999868Y-71154000D01*
X108992000Y-71154000D01*
X108992000Y-72183000D01*
X109206821Y-72397821D01*
X108824924Y-72779051D01*
X108673096Y-73144693D01*
X108017789Y-73800000D01*
X108031931Y-73814142D01*
X107814142Y-74031931D01*
X107800000Y-74017789D01*
X107785858Y-74031931D01*
X107568069Y-73814142D01*
X107582211Y-73800000D01*
X107568069Y-73785858D01*
X107785858Y-73568069D01*
X107800000Y-73582211D01*
X108824515Y-72557696D01*
X108750348Y-72229958D01*
X108667201Y-72199799D01*
X108684000Y-72183000D01*
X108684000Y-71154000D01*
X107316000Y-71154000D01*
X107316000Y-71174000D01*
X107008000Y-71174000D01*
X107008000Y-71154000D01*
X107000132Y-71154000D01*
X107000132Y-70846000D01*
X107008000Y-70846000D01*
X107008000Y-69817000D01*
X107316000Y-69817000D01*
X107316000Y-70846000D01*
X108684000Y-70846000D01*
X108684000Y-69817000D01*
X108459000Y-69592000D01*
X108214479Y-69592000D01*
X108000000Y-69680840D01*
X107785521Y-69592000D01*
X107541000Y-69592000D01*
X107316000Y-69817000D01*
X107008000Y-69817000D01*
X106783000Y-69592000D01*
X106538479Y-69592000D01*
X106417345Y-69642175D01*
X106082500Y-69574368D01*
X105193500Y-69574368D01*
X104859980Y-69637124D01*
X104553662Y-69834234D01*
X104348164Y-70134990D01*
X104275868Y-70492000D01*
X104275868Y-71508000D01*
X104338624Y-71841520D01*
X104535576Y-72147592D01*
X104231714Y-72273145D01*
X103724924Y-72779051D01*
X103514412Y-73286019D01*
X101675432Y-75125000D01*
X101412569Y-75125000D01*
X101417632Y-75100000D01*
X101417632Y-74200000D01*
X101354876Y-73866480D01*
X101157766Y-73560162D01*
X101150000Y-73554856D01*
X101150000Y-64969000D01*
X102020000Y-64969000D01*
X102020000Y-65619021D01*
X102157017Y-65949809D01*
X102410191Y-66202983D01*
X102740979Y-66340000D01*
X103391000Y-66340000D01*
X103616000Y-66115000D01*
X103616000Y-64744000D01*
X102245000Y-64744000D01*
X102020000Y-64969000D01*
X101150000Y-64969000D01*
X101150000Y-64326346D01*
X102093987Y-63382359D01*
X102020000Y-63560979D01*
X102020000Y-64211000D01*
X102245000Y-64436000D01*
X103616000Y-64436000D01*
X103616000Y-64416000D01*
X103924000Y-64416000D01*
X103924000Y-64436000D01*
X103944000Y-64436000D01*
X103944000Y-64744000D01*
X103924000Y-64744000D01*
X103924000Y-66115000D01*
X104149000Y-66340000D01*
X104799021Y-66340000D01*
X105129809Y-66202983D01*
X105311451Y-66021341D01*
X105640304Y-66241074D01*
X106310000Y-66374285D01*
X106979696Y-66241074D01*
X107547437Y-65861722D01*
X107580000Y-65812988D01*
X107612563Y-65861722D01*
X108180304Y-66241074D01*
X108850000Y-66374285D01*
X109519696Y-66241074D01*
X110087437Y-65861722D01*
X110120000Y-65812988D01*
X110152563Y-65861722D01*
X110720304Y-66241074D01*
X111390000Y-66374285D01*
X112059696Y-66241074D01*
X112627437Y-65861722D01*
X113006789Y-65293981D01*
X113140000Y-64624285D01*
X113140000Y-64555715D01*
X113006789Y-63886019D01*
X112628588Y-63320000D01*
X113006789Y-62753981D01*
X113140000Y-62084285D01*
X113140000Y-62015715D01*
X113006789Y-61346019D01*
X112627437Y-60778278D01*
X112059696Y-60398926D01*
X111390000Y-60265715D01*
X110720304Y-60398926D01*
X110152563Y-60778278D01*
X110120000Y-60827012D01*
X110087437Y-60778278D01*
X109519696Y-60398926D01*
X108850000Y-60265715D01*
X108180304Y-60398926D01*
X107612563Y-60778278D01*
X107580000Y-60827012D01*
X107547437Y-60778278D01*
X106979696Y-60398926D01*
X106310000Y-60265715D01*
X105640304Y-60398926D01*
X105072563Y-60778278D01*
X105032727Y-60837896D01*
X104762590Y-60567287D01*
X104119624Y-60300304D01*
X103423431Y-60299696D01*
X102779999Y-60565557D01*
X102444972Y-60900000D01*
X101800000Y-60900000D01*
X101359914Y-60987539D01*
X100986827Y-61236827D01*
X99186827Y-63036827D01*
X98937539Y-63409914D01*
X98850000Y-63850000D01*
X98850000Y-73282368D01*
X97900000Y-73282368D01*
X97820626Y-73297303D01*
X97613173Y-72986827D01*
X97613170Y-72986825D01*
X97063173Y-72436827D01*
X96690086Y-72187539D01*
X96250000Y-72100000D01*
X93250000Y-72100000D01*
X92809914Y-72187539D01*
X92473455Y-72412353D01*
X92436827Y-72436827D01*
X92388832Y-72484822D01*
X92217903Y-72071143D01*
X91880633Y-71733283D01*
X91439742Y-71550209D01*
X91349699Y-71550131D01*
X90148312Y-70348744D01*
X90316717Y-70180633D01*
X90499791Y-69739742D01*
X90500207Y-69262353D01*
X90317903Y-68821143D01*
X89980633Y-68483283D01*
X89556904Y-68307335D01*
X86325000Y-65075432D01*
X86325000Y-61750000D01*
X86246977Y-61357749D01*
X86024784Y-61025216D01*
X84941959Y-59942391D01*
X84767903Y-59521143D01*
X84430633Y-59183283D01*
X83989742Y-59000209D01*
X83512353Y-58999793D01*
X83071143Y-59182097D01*
X82733283Y-59519367D01*
X82550209Y-59960258D01*
X82549793Y-60437647D01*
X82732097Y-60878857D01*
X83069367Y-61216717D01*
X83493097Y-61392665D01*
X84275000Y-62174568D01*
X84275000Y-65500000D01*
X84318560Y-65718992D01*
X83524784Y-64925216D01*
X83192251Y-64703023D01*
X82800000Y-64625000D01*
X80867632Y-64625000D01*
X80867632Y-64525000D01*
X80804876Y-64191480D01*
X80607766Y-63885162D01*
X80307010Y-63679664D01*
X79985981Y-63614654D01*
X79982135Y-63594211D01*
X80013173Y-63563173D01*
X80069511Y-63478857D01*
X80262461Y-63190086D01*
X80350000Y-62750000D01*
X80350000Y-61661102D01*
X80553336Y-61363510D01*
X80625632Y-61006500D01*
X80625632Y-60117500D01*
X80562876Y-59783980D01*
X80559469Y-59778685D01*
X80608000Y-59661521D01*
X80608000Y-59417000D01*
X80383000Y-59192000D01*
X79354000Y-59192000D01*
X79354000Y-59199868D01*
X79046000Y-59199868D01*
X79046000Y-59192000D01*
X77754000Y-59192000D01*
X77754000Y-59199868D01*
X77446000Y-59199868D01*
X77446000Y-59192000D01*
X76417000Y-59192000D01*
X76197000Y-59412000D01*
X73638000Y-59412000D01*
X73197914Y-59499539D01*
X72955490Y-59661521D01*
X72824827Y-59748827D01*
X71808000Y-60765654D01*
X71808000Y-60614479D01*
X71670983Y-60283691D01*
X71417809Y-60030517D01*
X71087021Y-59893500D01*
X70779000Y-59893500D01*
X70554000Y-60118500D01*
X70554000Y-61084000D01*
X70574000Y-61084000D01*
X70574000Y-61392000D01*
X70554000Y-61392000D01*
X70554000Y-61399868D01*
X70246000Y-61399868D01*
X70246000Y-61392000D01*
X68954000Y-61392000D01*
X68954000Y-61399868D01*
X68646000Y-61399868D01*
X68646000Y-61392000D01*
X67617000Y-61392000D01*
X67392000Y-61617000D01*
X67392000Y-61650000D01*
X62524132Y-61650000D01*
X62524132Y-60692000D01*
X62509546Y-60614479D01*
X67392000Y-60614479D01*
X67392000Y-60859000D01*
X67617000Y-61084000D01*
X68646000Y-61084000D01*
X68646000Y-60118500D01*
X68954000Y-60118500D01*
X68954000Y-61084000D01*
X70246000Y-61084000D01*
X70246000Y-60118500D01*
X70021000Y-59893500D01*
X69712979Y-59893500D01*
X69600000Y-59940297D01*
X69487021Y-59893500D01*
X69179000Y-59893500D01*
X68954000Y-60118500D01*
X68646000Y-60118500D01*
X68421000Y-59893500D01*
X68112979Y-59893500D01*
X67782191Y-60030517D01*
X67529017Y-60283691D01*
X67392000Y-60614479D01*
X62509546Y-60614479D01*
X62461376Y-60358480D01*
X62264266Y-60052162D01*
X61963510Y-59846664D01*
X61606500Y-59774368D01*
X60717500Y-59774368D01*
X60383980Y-59837124D01*
X60378685Y-59840531D01*
X60261521Y-59792000D01*
X60017000Y-59792000D01*
X59792000Y-60017000D01*
X59792000Y-61046000D01*
X59799868Y-61046000D01*
X59799868Y-61354000D01*
X59792000Y-61354000D01*
X59792000Y-62646000D01*
X59799868Y-62646000D01*
X59799868Y-62954000D01*
X59792000Y-62954000D01*
X59792000Y-62974000D01*
X59484000Y-62974000D01*
X59484000Y-62954000D01*
X58518500Y-62954000D01*
X58293500Y-63179000D01*
X58293500Y-63487021D01*
X58430517Y-63817809D01*
X58683691Y-64070983D01*
X58696456Y-64076270D01*
X58485162Y-64212234D01*
X58279664Y-64512990D01*
X58207368Y-64870000D01*
X58207368Y-66430000D01*
X58270124Y-66763520D01*
X58422261Y-66999947D01*
X58362017Y-67060191D01*
X58225000Y-67390979D01*
X58225000Y-67971000D01*
X58450000Y-68196000D01*
X59296000Y-68196000D01*
X59296000Y-68176000D01*
X59604000Y-68176000D01*
X59604000Y-68196000D01*
X59624000Y-68196000D01*
X59624000Y-68504000D01*
X59604000Y-68504000D01*
X59604000Y-68524000D01*
X59296000Y-68524000D01*
X59296000Y-68504000D01*
X58450000Y-68504000D01*
X58225000Y-68729000D01*
X58225000Y-69132368D01*
X57425000Y-69132368D01*
X57091480Y-69195124D01*
X56785162Y-69392234D01*
X56579664Y-69692990D01*
X56507368Y-70050000D01*
X56507368Y-70070124D01*
X56377669Y-69940198D01*
X55679591Y-69650331D01*
X54923725Y-69649671D01*
X54225143Y-69938319D01*
X53975000Y-70188026D01*
X53975000Y-61579000D01*
X58293500Y-61579000D01*
X58293500Y-61887021D01*
X58340297Y-62000000D01*
X58293500Y-62112979D01*
X58293500Y-62421000D01*
X58518500Y-62646000D01*
X59484000Y-62646000D01*
X59484000Y-61354000D01*
X58518500Y-61354000D01*
X58293500Y-61579000D01*
X53975000Y-61579000D01*
X53975000Y-60512979D01*
X58293500Y-60512979D01*
X58293500Y-60821000D01*
X58518500Y-61046000D01*
X59484000Y-61046000D01*
X59484000Y-60017000D01*
X59259000Y-59792000D01*
X59014479Y-59792000D01*
X58683691Y-59929017D01*
X58430517Y-60182191D01*
X58293500Y-60512979D01*
X53975000Y-60512979D01*
X53975000Y-58414479D01*
X76192000Y-58414479D01*
X76192000Y-58659000D01*
X76417000Y-58884000D01*
X77446000Y-58884000D01*
X77446000Y-57918500D01*
X77754000Y-57918500D01*
X77754000Y-58884000D01*
X79046000Y-58884000D01*
X79046000Y-57918500D01*
X79354000Y-57918500D01*
X79354000Y-58884000D01*
X80383000Y-58884000D01*
X80608000Y-58659000D01*
X80608000Y-58414479D01*
X80470983Y-58083691D01*
X80217809Y-57830517D01*
X79887021Y-57693500D01*
X79579000Y-57693500D01*
X79354000Y-57918500D01*
X79046000Y-57918500D01*
X78821000Y-57693500D01*
X78512979Y-57693500D01*
X78400000Y-57740297D01*
X78287021Y-57693500D01*
X77979000Y-57693500D01*
X77754000Y-57918500D01*
X77446000Y-57918500D01*
X77221000Y-57693500D01*
X76912979Y-57693500D01*
X76582191Y-57830517D01*
X76329017Y-58083691D01*
X76192000Y-58414479D01*
X53975000Y-58414479D01*
X53975000Y-37975000D01*
X64297802Y-37975000D01*
X64230368Y-38308000D01*
X64230368Y-38308000D01*
G37*
X64230368Y-38308000D02*
X64230368Y-39832000D01*
X64293124Y-40165520D01*
X64490234Y-40471838D01*
X64790990Y-40677336D01*
X65148000Y-40749632D01*
X66672000Y-40749632D01*
X67005520Y-40686876D01*
X67311838Y-40489766D01*
X67411455Y-40343972D01*
X67786247Y-40594401D01*
X68417675Y-40720000D01*
X68482325Y-40720000D01*
X69113753Y-40594401D01*
X69649051Y-40236726D01*
X69720000Y-40130543D01*
X69790949Y-40236726D01*
X70326247Y-40594401D01*
X70957675Y-40720000D01*
X71022325Y-40720000D01*
X71653753Y-40594401D01*
X72189051Y-40236726D01*
X72260000Y-40130543D01*
X72330949Y-40236726D01*
X72866247Y-40594401D01*
X73497675Y-40720000D01*
X73562325Y-40720000D01*
X74193753Y-40594401D01*
X74729051Y-40236726D01*
X74800000Y-40130543D01*
X74870949Y-40236726D01*
X75406247Y-40594401D01*
X76037675Y-40720000D01*
X76102325Y-40720000D01*
X76733753Y-40594401D01*
X77269051Y-40236726D01*
X77340000Y-40130543D01*
X77410949Y-40236726D01*
X77946247Y-40594401D01*
X78577675Y-40720000D01*
X78642325Y-40720000D01*
X79273753Y-40594401D01*
X79809051Y-40236726D01*
X79880000Y-40130543D01*
X79950949Y-40236726D01*
X80486247Y-40594401D01*
X81117675Y-40720000D01*
X81182325Y-40720000D01*
X81813753Y-40594401D01*
X82349051Y-40236726D01*
X82420000Y-40130543D01*
X82490949Y-40236726D01*
X83026247Y-40594401D01*
X83657675Y-40720000D01*
X83722325Y-40720000D01*
X84353753Y-40594401D01*
X84889051Y-40236726D01*
X85246726Y-39701428D01*
X85372325Y-39070000D01*
X85246726Y-38438572D01*
X84936977Y-37975000D01*
X96900000Y-37975000D01*
X96900000Y-58000000D01*
X96907879Y-58038906D01*
X96930273Y-58071681D01*
X96963654Y-58093161D01*
X97000000Y-58100000D01*
X117025000Y-58100000D01*
X117025000Y-69804000D01*
X116954000Y-69875000D01*
X116954000Y-71396000D01*
X116974000Y-71396000D01*
X116974000Y-71704000D01*
X116954000Y-71704000D01*
X116954000Y-73225000D01*
X117025000Y-73296000D01*
X117025000Y-89025000D01*
X111947965Y-89025000D01*
X112099687Y-88659613D01*
X112100312Y-87943529D01*
X111826855Y-87281714D01*
X111320949Y-86774924D01*
X110659613Y-86500313D01*
X109943529Y-86499688D01*
X109281714Y-86773145D01*
X108774924Y-87279051D01*
X108500313Y-87940387D01*
X108499688Y-88656471D01*
X108651961Y-89025000D01*
X106951779Y-89025000D01*
X107114212Y-88577178D01*
X107082185Y-87861810D01*
X106870042Y-87349652D01*
X106542304Y-87275485D01*
X105517789Y-88300000D01*
X105531931Y-88314142D01*
X105314142Y-88531931D01*
X105300000Y-88517789D01*
X105285858Y-88531931D01*
X105068069Y-88314142D01*
X105082211Y-88300000D01*
X104057696Y-87275485D01*
X103729958Y-87349652D01*
X103485788Y-88022822D01*
X103517815Y-88738190D01*
X103636616Y-89025000D01*
X98700000Y-89025000D01*
X98700000Y-88929000D01*
X98475000Y-88704000D01*
X97204000Y-88704000D01*
X97204000Y-88724000D01*
X96896000Y-88724000D01*
X96896000Y-88704000D01*
X96876000Y-88704000D01*
X96876000Y-88396000D01*
X96896000Y-88396000D01*
X96896000Y-88376000D01*
X97204000Y-88376000D01*
X97204000Y-88396000D01*
X98475000Y-88396000D01*
X98700000Y-88171000D01*
X98700000Y-87620979D01*
X98562983Y-87290191D01*
X98333224Y-87060432D01*
X98335964Y-87057696D01*
X104275485Y-87057696D01*
X105300000Y-88082211D01*
X106324515Y-87057696D01*
X106250348Y-86729958D01*
X105577178Y-86485788D01*
X104861810Y-86517815D01*
X104349652Y-86729958D01*
X104275485Y-87057696D01*
X98335964Y-87057696D01*
X98447986Y-86945870D01*
X98699713Y-86339645D01*
X98700285Y-85683235D01*
X98449617Y-85076571D01*
X98075000Y-84701300D01*
X98075000Y-80200000D01*
X97996977Y-79807749D01*
X97898196Y-79659914D01*
X97774785Y-79475216D01*
X97124568Y-78825000D01*
X97142816Y-78806752D01*
X97478857Y-78667903D01*
X97816717Y-78330633D01*
X97850267Y-78249836D01*
X97875216Y-78274785D01*
X98025522Y-78375216D01*
X98207749Y-78496977D01*
X98600000Y-78575000D01*
X101553463Y-78575000D01*
X101108096Y-78663589D01*
X100394365Y-79140489D01*
X99917465Y-79854220D01*
X99750000Y-80696124D01*
X99750000Y-81903876D01*
X99917465Y-82745780D01*
X100394365Y-83459511D01*
X101108096Y-83936411D01*
X101950000Y-84103876D01*
X102791904Y-83936411D01*
X103505635Y-83459511D01*
X103982535Y-82745780D01*
X104150000Y-81903876D01*
X104150000Y-80696124D01*
X111450000Y-80696124D01*
X111450000Y-81903876D01*
X111617465Y-82745780D01*
X112094365Y-83459511D01*
X112808096Y-83936411D01*
X113650000Y-84103876D01*
X114491904Y-83936411D01*
X115205635Y-83459511D01*
X115682535Y-82745780D01*
X115850000Y-81903876D01*
X115850000Y-80696124D01*
X115682535Y-79854220D01*
X115205635Y-79140489D01*
X114491904Y-78663589D01*
X113650000Y-78496124D01*
X112808096Y-78663589D01*
X112094365Y-79140489D01*
X111617465Y-79854220D01*
X111450000Y-80696124D01*
X104150000Y-80696124D01*
X103982535Y-79854220D01*
X103505635Y-79140489D01*
X102791904Y-78663589D01*
X102346537Y-78575000D01*
X104500000Y-78575000D01*
X104892251Y-78496977D01*
X105224784Y-78274784D01*
X106624568Y-76875000D01*
X108300000Y-76875000D01*
X108692251Y-76796977D01*
X109024784Y-76574784D01*
X109999873Y-75599695D01*
X110706471Y-75600312D01*
X111368286Y-75326855D01*
X111875076Y-74820949D01*
X112149687Y-74159613D01*
X112150312Y-73443529D01*
X111876855Y-72781714D01*
X111387000Y-72291003D01*
X111387000Y-72203949D01*
X111446338Y-72165766D01*
X111608113Y-71929000D01*
X114900000Y-71929000D01*
X114900000Y-72729021D01*
X115037017Y-73059809D01*
X115290191Y-73312983D01*
X115620979Y-73450000D01*
X116421000Y-73450000D01*
X116646000Y-73225000D01*
X116646000Y-71704000D01*
X115125000Y-71704000D01*
X114900000Y-71929000D01*
X111608113Y-71929000D01*
X111651836Y-71865010D01*
X111724132Y-71508000D01*
X111724132Y-70492000D01*
X111701361Y-70370979D01*
X114900000Y-70370979D01*
X114900000Y-71171000D01*
X115125000Y-71396000D01*
X116646000Y-71396000D01*
X116646000Y-69875000D01*
X116421000Y-69650000D01*
X115620979Y-69650000D01*
X115290191Y-69787017D01*
X115037017Y-70040191D01*
X114900000Y-70370979D01*
X111701361Y-70370979D01*
X111661376Y-70158480D01*
X111464266Y-69852162D01*
X111163510Y-69646664D01*
X110806500Y-69574368D01*
X109917500Y-69574368D01*
X109583980Y-69637124D01*
X109578685Y-69640531D01*
X109461521Y-69592000D01*
X109217000Y-69592000D01*
X108992000Y-69817000D01*
X108992000Y-70846000D01*
X108999868Y-70846000D01*
X108999868Y-71154000D01*
X108992000Y-71154000D01*
X108992000Y-72183000D01*
X109206821Y-72397821D01*
X108824924Y-72779051D01*
X108673096Y-73144693D01*
X108017789Y-73800000D01*
X108031931Y-73814142D01*
X107814142Y-74031931D01*
X107800000Y-74017789D01*
X107785858Y-74031931D01*
X107568069Y-73814142D01*
X107582211Y-73800000D01*
X107568069Y-73785858D01*
X107785858Y-73568069D01*
X107800000Y-73582211D01*
X108824515Y-72557696D01*
X108750348Y-72229958D01*
X108667201Y-72199799D01*
X108684000Y-72183000D01*
X108684000Y-71154000D01*
X107316000Y-71154000D01*
X107316000Y-71174000D01*
X107008000Y-71174000D01*
X107008000Y-71154000D01*
X107000132Y-71154000D01*
X107000132Y-70846000D01*
X107008000Y-70846000D01*
X107008000Y-69817000D01*
X107316000Y-69817000D01*
X107316000Y-70846000D01*
X108684000Y-70846000D01*
X108684000Y-69817000D01*
X108459000Y-69592000D01*
X108214479Y-69592000D01*
X108000000Y-69680840D01*
X107785521Y-69592000D01*
X107541000Y-69592000D01*
X107316000Y-69817000D01*
X107008000Y-69817000D01*
X106783000Y-69592000D01*
X106538479Y-69592000D01*
X106417345Y-69642175D01*
X106082500Y-69574368D01*
X105193500Y-69574368D01*
X104859980Y-69637124D01*
X104553662Y-69834234D01*
X104348164Y-70134990D01*
X104275868Y-70492000D01*
X104275868Y-71508000D01*
X104338624Y-71841520D01*
X104535576Y-72147592D01*
X104231714Y-72273145D01*
X103724924Y-72779051D01*
X103514412Y-73286019D01*
X101675432Y-75125000D01*
X101412569Y-75125000D01*
X101417632Y-75100000D01*
X101417632Y-74200000D01*
X101354876Y-73866480D01*
X101157766Y-73560162D01*
X101150000Y-73554856D01*
X101150000Y-64969000D01*
X102020000Y-64969000D01*
X102020000Y-65619021D01*
X102157017Y-65949809D01*
X102410191Y-66202983D01*
X102740979Y-66340000D01*
X103391000Y-66340000D01*
X103616000Y-66115000D01*
X103616000Y-64744000D01*
X102245000Y-64744000D01*
X102020000Y-64969000D01*
X101150000Y-64969000D01*
X101150000Y-64326346D01*
X102093987Y-63382359D01*
X102020000Y-63560979D01*
X102020000Y-64211000D01*
X102245000Y-64436000D01*
X103616000Y-64436000D01*
X103616000Y-64416000D01*
X103924000Y-64416000D01*
X103924000Y-64436000D01*
X103944000Y-64436000D01*
X103944000Y-64744000D01*
X103924000Y-64744000D01*
X103924000Y-66115000D01*
X104149000Y-66340000D01*
X104799021Y-66340000D01*
X105129809Y-66202983D01*
X105311451Y-66021341D01*
X105640304Y-66241074D01*
X106310000Y-66374285D01*
X106979696Y-66241074D01*
X107547437Y-65861722D01*
X107580000Y-65812988D01*
X107612563Y-65861722D01*
X108180304Y-66241074D01*
X108850000Y-66374285D01*
X109519696Y-66241074D01*
X110087437Y-65861722D01*
X110120000Y-65812988D01*
X110152563Y-65861722D01*
X110720304Y-66241074D01*
X111390000Y-66374285D01*
X112059696Y-66241074D01*
X112627437Y-65861722D01*
X113006789Y-65293981D01*
X113140000Y-64624285D01*
X113140000Y-64555715D01*
X113006789Y-63886019D01*
X112628588Y-63320000D01*
X113006789Y-62753981D01*
X113140000Y-62084285D01*
X113140000Y-62015715D01*
X113006789Y-61346019D01*
X112627437Y-60778278D01*
X112059696Y-60398926D01*
X111390000Y-60265715D01*
X110720304Y-60398926D01*
X110152563Y-60778278D01*
X110120000Y-60827012D01*
X110087437Y-60778278D01*
X109519696Y-60398926D01*
X108850000Y-60265715D01*
X108180304Y-60398926D01*
X107612563Y-60778278D01*
X107580000Y-60827012D01*
X107547437Y-60778278D01*
X106979696Y-60398926D01*
X106310000Y-60265715D01*
X105640304Y-60398926D01*
X105072563Y-60778278D01*
X105032727Y-60837896D01*
X104762590Y-60567287D01*
X104119624Y-60300304D01*
X103423431Y-60299696D01*
X102779999Y-60565557D01*
X102444972Y-60900000D01*
X101800000Y-60900000D01*
X101359914Y-60987539D01*
X100986827Y-61236827D01*
X99186827Y-63036827D01*
X98937539Y-63409914D01*
X98850000Y-63850000D01*
X98850000Y-73282368D01*
X97900000Y-73282368D01*
X97820626Y-73297303D01*
X97613173Y-72986827D01*
X97613170Y-72986825D01*
X97063173Y-72436827D01*
X96690086Y-72187539D01*
X96250000Y-72100000D01*
X93250000Y-72100000D01*
X92809914Y-72187539D01*
X92473455Y-72412353D01*
X92436827Y-72436827D01*
X92388832Y-72484822D01*
X92217903Y-72071143D01*
X91880633Y-71733283D01*
X91439742Y-71550209D01*
X91349699Y-71550131D01*
X90148312Y-70348744D01*
X90316717Y-70180633D01*
X90499791Y-69739742D01*
X90500207Y-69262353D01*
X90317903Y-68821143D01*
X89980633Y-68483283D01*
X89556904Y-68307335D01*
X86325000Y-65075432D01*
X86325000Y-61750000D01*
X86246977Y-61357749D01*
X86024784Y-61025216D01*
X84941959Y-59942391D01*
X84767903Y-59521143D01*
X84430633Y-59183283D01*
X83989742Y-59000209D01*
X83512353Y-58999793D01*
X83071143Y-59182097D01*
X82733283Y-59519367D01*
X82550209Y-59960258D01*
X82549793Y-60437647D01*
X82732097Y-60878857D01*
X83069367Y-61216717D01*
X83493097Y-61392665D01*
X84275000Y-62174568D01*
X84275000Y-65500000D01*
X84318560Y-65718992D01*
X83524784Y-64925216D01*
X83192251Y-64703023D01*
X82800000Y-64625000D01*
X80867632Y-64625000D01*
X80867632Y-64525000D01*
X80804876Y-64191480D01*
X80607766Y-63885162D01*
X80307010Y-63679664D01*
X79985981Y-63614654D01*
X79982135Y-63594211D01*
X80013173Y-63563173D01*
X80069511Y-63478857D01*
X80262461Y-63190086D01*
X80350000Y-62750000D01*
X80350000Y-61661102D01*
X80553336Y-61363510D01*
X80625632Y-61006500D01*
X80625632Y-60117500D01*
X80562876Y-59783980D01*
X80559469Y-59778685D01*
X80608000Y-59661521D01*
X80608000Y-59417000D01*
X80383000Y-59192000D01*
X79354000Y-59192000D01*
X79354000Y-59199868D01*
X79046000Y-59199868D01*
X79046000Y-59192000D01*
X77754000Y-59192000D01*
X77754000Y-59199868D01*
X77446000Y-59199868D01*
X77446000Y-59192000D01*
X76417000Y-59192000D01*
X76197000Y-59412000D01*
X73638000Y-59412000D01*
X73197914Y-59499539D01*
X72955490Y-59661521D01*
X72824827Y-59748827D01*
X71808000Y-60765654D01*
X71808000Y-60614479D01*
X71670983Y-60283691D01*
X71417809Y-60030517D01*
X71087021Y-59893500D01*
X70779000Y-59893500D01*
X70554000Y-60118500D01*
X70554000Y-61084000D01*
X70574000Y-61084000D01*
X70574000Y-61392000D01*
X70554000Y-61392000D01*
X70554000Y-61399868D01*
X70246000Y-61399868D01*
X70246000Y-61392000D01*
X68954000Y-61392000D01*
X68954000Y-61399868D01*
X68646000Y-61399868D01*
X68646000Y-61392000D01*
X67617000Y-61392000D01*
X67392000Y-61617000D01*
X67392000Y-61650000D01*
X62524132Y-61650000D01*
X62524132Y-60692000D01*
X62509546Y-60614479D01*
X67392000Y-60614479D01*
X67392000Y-60859000D01*
X67617000Y-61084000D01*
X68646000Y-61084000D01*
X68646000Y-60118500D01*
X68954000Y-60118500D01*
X68954000Y-61084000D01*
X70246000Y-61084000D01*
X70246000Y-60118500D01*
X70021000Y-59893500D01*
X69712979Y-59893500D01*
X69600000Y-59940297D01*
X69487021Y-59893500D01*
X69179000Y-59893500D01*
X68954000Y-60118500D01*
X68646000Y-60118500D01*
X68421000Y-59893500D01*
X68112979Y-59893500D01*
X67782191Y-60030517D01*
X67529017Y-60283691D01*
X67392000Y-60614479D01*
X62509546Y-60614479D01*
X62461376Y-60358480D01*
X62264266Y-60052162D01*
X61963510Y-59846664D01*
X61606500Y-59774368D01*
X60717500Y-59774368D01*
X60383980Y-59837124D01*
X60378685Y-59840531D01*
X60261521Y-59792000D01*
X60017000Y-59792000D01*
X59792000Y-60017000D01*
X59792000Y-61046000D01*
X59799868Y-61046000D01*
X59799868Y-61354000D01*
X59792000Y-61354000D01*
X59792000Y-62646000D01*
X59799868Y-62646000D01*
X59799868Y-62954000D01*
X59792000Y-62954000D01*
X59792000Y-62974000D01*
X59484000Y-62974000D01*
X59484000Y-62954000D01*
X58518500Y-62954000D01*
X58293500Y-63179000D01*
X58293500Y-63487021D01*
X58430517Y-63817809D01*
X58683691Y-64070983D01*
X58696456Y-64076270D01*
X58485162Y-64212234D01*
X58279664Y-64512990D01*
X58207368Y-64870000D01*
X58207368Y-66430000D01*
X58270124Y-66763520D01*
X58422261Y-66999947D01*
X58362017Y-67060191D01*
X58225000Y-67390979D01*
X58225000Y-67971000D01*
X58450000Y-68196000D01*
X59296000Y-68196000D01*
X59296000Y-68176000D01*
X59604000Y-68176000D01*
X59604000Y-68196000D01*
X59624000Y-68196000D01*
X59624000Y-68504000D01*
X59604000Y-68504000D01*
X59604000Y-68524000D01*
X59296000Y-68524000D01*
X59296000Y-68504000D01*
X58450000Y-68504000D01*
X58225000Y-68729000D01*
X58225000Y-69132368D01*
X57425000Y-69132368D01*
X57091480Y-69195124D01*
X56785162Y-69392234D01*
X56579664Y-69692990D01*
X56507368Y-70050000D01*
X56507368Y-70070124D01*
X56377669Y-69940198D01*
X55679591Y-69650331D01*
X54923725Y-69649671D01*
X54225143Y-69938319D01*
X53975000Y-70188026D01*
X53975000Y-61579000D01*
X58293500Y-61579000D01*
X58293500Y-61887021D01*
X58340297Y-62000000D01*
X58293500Y-62112979D01*
X58293500Y-62421000D01*
X58518500Y-62646000D01*
X59484000Y-62646000D01*
X59484000Y-61354000D01*
X58518500Y-61354000D01*
X58293500Y-61579000D01*
X53975000Y-61579000D01*
X53975000Y-60512979D01*
X58293500Y-60512979D01*
X58293500Y-60821000D01*
X58518500Y-61046000D01*
X59484000Y-61046000D01*
X59484000Y-60017000D01*
X59259000Y-59792000D01*
X59014479Y-59792000D01*
X58683691Y-59929017D01*
X58430517Y-60182191D01*
X58293500Y-60512979D01*
X53975000Y-60512979D01*
X53975000Y-58414479D01*
X76192000Y-58414479D01*
X76192000Y-58659000D01*
X76417000Y-58884000D01*
X77446000Y-58884000D01*
X77446000Y-57918500D01*
X77754000Y-57918500D01*
X77754000Y-58884000D01*
X79046000Y-58884000D01*
X79046000Y-57918500D01*
X79354000Y-57918500D01*
X79354000Y-58884000D01*
X80383000Y-58884000D01*
X80608000Y-58659000D01*
X80608000Y-58414479D01*
X80470983Y-58083691D01*
X80217809Y-57830517D01*
X79887021Y-57693500D01*
X79579000Y-57693500D01*
X79354000Y-57918500D01*
X79046000Y-57918500D01*
X78821000Y-57693500D01*
X78512979Y-57693500D01*
X78400000Y-57740297D01*
X78287021Y-57693500D01*
X77979000Y-57693500D01*
X77754000Y-57918500D01*
X77446000Y-57918500D01*
X77221000Y-57693500D01*
X76912979Y-57693500D01*
X76582191Y-57830517D01*
X76329017Y-58083691D01*
X76192000Y-58414479D01*
X53975000Y-58414479D01*
X53975000Y-37975000D01*
X64297802Y-37975000D01*
X64230368Y-38308000D01*
G36*
X68900331Y-81920409D02*
X68899671Y-82676275D01*
X69188319Y-83374857D01*
X69722331Y-83909802D01*
X70420409Y-84199669D01*
X71176275Y-84200329D01*
X71874857Y-83911681D01*
X72409802Y-83377669D01*
X72431672Y-83325000D01*
X75667719Y-83325000D01*
X75688319Y-83374857D01*
X76222331Y-83909802D01*
X76920409Y-84199669D01*
X77676275Y-84200329D01*
X78374857Y-83911681D01*
X78909802Y-83377669D01*
X79175295Y-82738290D01*
X79438319Y-83374857D01*
X79972331Y-83909802D01*
X80670409Y-84199669D01*
X81426275Y-84200329D01*
X82124857Y-83911681D01*
X82659802Y-83377669D01*
X82681672Y-83325000D01*
X85917719Y-83325000D01*
X85938319Y-83374857D01*
X86472331Y-83909802D01*
X87170409Y-84199669D01*
X87790642Y-84200211D01*
X89400174Y-85809743D01*
X89399777Y-86265055D01*
X89202805Y-85789521D01*
X88864712Y-85703077D01*
X87767789Y-86800000D01*
X88864712Y-87896923D01*
X89202805Y-87810479D01*
X89463686Y-87101060D01*
X89436447Y-86425663D01*
X89650383Y-86943429D01*
X89775045Y-87068309D01*
X89660162Y-87142234D01*
X89454664Y-87442990D01*
X89382368Y-87800000D01*
X89382368Y-89025000D01*
X53975000Y-89025000D01*
X53975000Y-88596384D01*
X54149209Y-88770897D01*
X54700323Y-88999739D01*
X55297059Y-89000260D01*
X55848572Y-88772380D01*
X56270897Y-88350791D01*
X56368925Y-88114712D01*
X59203077Y-88114712D01*
X59289521Y-88452805D01*
X59998940Y-88713686D01*
X60754193Y-88683226D01*
X61310479Y-88452805D01*
X61396923Y-88114712D01*
X65703077Y-88114712D01*
X65789521Y-88452805D01*
X66498940Y-88713686D01*
X67254193Y-88683226D01*
X67810479Y-88452805D01*
X67896923Y-88114712D01*
X69703077Y-88114712D01*
X69789521Y-88452805D01*
X70498940Y-88713686D01*
X71254193Y-88683226D01*
X71810479Y-88452805D01*
X71896923Y-88114712D01*
X76203077Y-88114712D01*
X76289521Y-88452805D01*
X76998940Y-88713686D01*
X77754193Y-88683226D01*
X78310479Y-88452805D01*
X78396923Y-88114712D01*
X79953077Y-88114712D01*
X80039521Y-88452805D01*
X80748940Y-88713686D01*
X81504193Y-88683226D01*
X82060479Y-88452805D01*
X82146923Y-88114712D01*
X86453077Y-88114712D01*
X86539521Y-88452805D01*
X87248940Y-88713686D01*
X88004193Y-88683226D01*
X88560479Y-88452805D01*
X88646923Y-88114712D01*
X87550000Y-87017789D01*
X86453077Y-88114712D01*
X82146923Y-88114712D01*
X81050000Y-87017789D01*
X79953077Y-88114712D01*
X78396923Y-88114712D01*
X77300000Y-87017789D01*
X76203077Y-88114712D01*
X71896923Y-88114712D01*
X70800000Y-87017789D01*
X69703077Y-88114712D01*
X67896923Y-88114712D01*
X66800000Y-87017789D01*
X65703077Y-88114712D01*
X61396923Y-88114712D01*
X60300000Y-87017789D01*
X59203077Y-88114712D01*
X56368925Y-88114712D01*
X56499739Y-87799677D01*
X56500260Y-87202941D01*
X56272380Y-86651428D01*
X56120158Y-86498940D01*
X58386314Y-86498940D01*
X58416774Y-87254193D01*
X58647195Y-87810479D01*
X58985288Y-87896923D01*
X60082211Y-86800000D01*
X60517789Y-86800000D01*
X61614712Y-87896923D01*
X61952805Y-87810479D01*
X62213686Y-87101060D01*
X62189402Y-86498940D01*
X64886314Y-86498940D01*
X64916774Y-87254193D01*
X65147195Y-87810479D01*
X65485288Y-87896923D01*
X66582211Y-86800000D01*
X67017789Y-86800000D01*
X68114712Y-87896923D01*
X68452805Y-87810479D01*
X68713686Y-87101060D01*
X68689402Y-86498940D01*
X68886314Y-86498940D01*
X68916774Y-87254193D01*
X69147195Y-87810479D01*
X69485288Y-87896923D01*
X70582211Y-86800000D01*
X71017789Y-86800000D01*
X72114712Y-87896923D01*
X72452805Y-87810479D01*
X72713686Y-87101060D01*
X72689402Y-86498940D01*
X75386314Y-86498940D01*
X75416774Y-87254193D01*
X75647195Y-87810479D01*
X75985288Y-87896923D01*
X77082211Y-86800000D01*
X77517789Y-86800000D01*
X78614712Y-87896923D01*
X78952805Y-87810479D01*
X79165845Y-87231155D01*
X79166774Y-87254193D01*
X79397195Y-87810479D01*
X79735288Y-87896923D01*
X80832211Y-86800000D01*
X81267789Y-86800000D01*
X82364712Y-87896923D01*
X82702805Y-87810479D01*
X82963686Y-87101060D01*
X82939402Y-86498940D01*
X85636314Y-86498940D01*
X85666774Y-87254193D01*
X85897195Y-87810479D01*
X86235288Y-87896923D01*
X87332211Y-86800000D01*
X86235288Y-85703077D01*
X85897195Y-85789521D01*
X85636314Y-86498940D01*
X82939402Y-86498940D01*
X82933226Y-86345807D01*
X82702805Y-85789521D01*
X82364712Y-85703077D01*
X81267789Y-86800000D01*
X80832211Y-86800000D01*
X79735288Y-85703077D01*
X79397195Y-85789521D01*
X79184155Y-86368845D01*
X79183226Y-86345807D01*
X78952805Y-85789521D01*
X78614712Y-85703077D01*
X77517789Y-86800000D01*
X77082211Y-86800000D01*
X75985288Y-85703077D01*
X75647195Y-85789521D01*
X75386314Y-86498940D01*
X72689402Y-86498940D01*
X72683226Y-86345807D01*
X72452805Y-85789521D01*
X72114712Y-85703077D01*
X71017789Y-86800000D01*
X70582211Y-86800000D01*
X69485288Y-85703077D01*
X69147195Y-85789521D01*
X68886314Y-86498940D01*
X68689402Y-86498940D01*
X68683226Y-86345807D01*
X68452805Y-85789521D01*
X68114712Y-85703077D01*
X67017789Y-86800000D01*
X66582211Y-86800000D01*
X65485288Y-85703077D01*
X65147195Y-85789521D01*
X64886314Y-86498940D01*
X62189402Y-86498940D01*
X62183226Y-86345807D01*
X61952805Y-85789521D01*
X61614712Y-85703077D01*
X60517789Y-86800000D01*
X60082211Y-86800000D01*
X58985288Y-85703077D01*
X58647195Y-85789521D01*
X58386314Y-86498940D01*
X56120158Y-86498940D01*
X55871322Y-86249670D01*
X56270897Y-85850791D01*
X56422666Y-85485288D01*
X59203077Y-85485288D01*
X60300000Y-86582211D01*
X61396923Y-85485288D01*
X65703077Y-85485288D01*
X66800000Y-86582211D01*
X67896923Y-85485288D01*
X69703077Y-85485288D01*
X70800000Y-86582211D01*
X71896923Y-85485288D01*
X76203077Y-85485288D01*
X77300000Y-86582211D01*
X78396923Y-85485288D01*
X79953077Y-85485288D01*
X81050000Y-86582211D01*
X82146923Y-85485288D01*
X86453077Y-85485288D01*
X87550000Y-86582211D01*
X88646923Y-85485288D01*
X88560479Y-85147195D01*
X87851060Y-84886314D01*
X87095807Y-84916774D01*
X86539521Y-85147195D01*
X86453077Y-85485288D01*
X82146923Y-85485288D01*
X82060479Y-85147195D01*
X81351060Y-84886314D01*
X80595807Y-84916774D01*
X80039521Y-85147195D01*
X79953077Y-85485288D01*
X78396923Y-85485288D01*
X78310479Y-85147195D01*
X77601060Y-84886314D01*
X76845807Y-84916774D01*
X76289521Y-85147195D01*
X76203077Y-85485288D01*
X71896923Y-85485288D01*
X71810479Y-85147195D01*
X71101060Y-84886314D01*
X70345807Y-84916774D01*
X69789521Y-85147195D01*
X69703077Y-85485288D01*
X67896923Y-85485288D01*
X67810479Y-85147195D01*
X67101060Y-84886314D01*
X66345807Y-84916774D01*
X65789521Y-85147195D01*
X65703077Y-85485288D01*
X61396923Y-85485288D01*
X61310479Y-85147195D01*
X60601060Y-84886314D01*
X59845807Y-84916774D01*
X59289521Y-85147195D01*
X59203077Y-85485288D01*
X56422666Y-85485288D01*
X56499739Y-85299677D01*
X56499890Y-85126456D01*
X58560598Y-83065748D01*
X58688319Y-83374857D01*
X59222331Y-83909802D01*
X59920409Y-84199669D01*
X60676275Y-84200329D01*
X61374857Y-83911681D01*
X61909802Y-83377669D01*
X61931672Y-83325000D01*
X65167719Y-83325000D01*
X65188319Y-83374857D01*
X65722331Y-83909802D01*
X66420409Y-84199669D01*
X67176275Y-84200329D01*
X67874857Y-83911681D01*
X68409802Y-83377669D01*
X68699669Y-82679591D01*
X68700176Y-82099393D01*
X68915365Y-81884204D01*
X68900331Y-81920409D01*
X68900331Y-81920409D01*
G37*
X68900331Y-81920409D02*
X68899671Y-82676275D01*
X69188319Y-83374857D01*
X69722331Y-83909802D01*
X70420409Y-84199669D01*
X71176275Y-84200329D01*
X71874857Y-83911681D01*
X72409802Y-83377669D01*
X72431672Y-83325000D01*
X75667719Y-83325000D01*
X75688319Y-83374857D01*
X76222331Y-83909802D01*
X76920409Y-84199669D01*
X77676275Y-84200329D01*
X78374857Y-83911681D01*
X78909802Y-83377669D01*
X79175295Y-82738290D01*
X79438319Y-83374857D01*
X79972331Y-83909802D01*
X80670409Y-84199669D01*
X81426275Y-84200329D01*
X82124857Y-83911681D01*
X82659802Y-83377669D01*
X82681672Y-83325000D01*
X85917719Y-83325000D01*
X85938319Y-83374857D01*
X86472331Y-83909802D01*
X87170409Y-84199669D01*
X87790642Y-84200211D01*
X89400174Y-85809743D01*
X89399777Y-86265055D01*
X89202805Y-85789521D01*
X88864712Y-85703077D01*
X87767789Y-86800000D01*
X88864712Y-87896923D01*
X89202805Y-87810479D01*
X89463686Y-87101060D01*
X89436447Y-86425663D01*
X89650383Y-86943429D01*
X89775045Y-87068309D01*
X89660162Y-87142234D01*
X89454664Y-87442990D01*
X89382368Y-87800000D01*
X89382368Y-89025000D01*
X53975000Y-89025000D01*
X53975000Y-88596384D01*
X54149209Y-88770897D01*
X54700323Y-88999739D01*
X55297059Y-89000260D01*
X55848572Y-88772380D01*
X56270897Y-88350791D01*
X56368925Y-88114712D01*
X59203077Y-88114712D01*
X59289521Y-88452805D01*
X59998940Y-88713686D01*
X60754193Y-88683226D01*
X61310479Y-88452805D01*
X61396923Y-88114712D01*
X65703077Y-88114712D01*
X65789521Y-88452805D01*
X66498940Y-88713686D01*
X67254193Y-88683226D01*
X67810479Y-88452805D01*
X67896923Y-88114712D01*
X69703077Y-88114712D01*
X69789521Y-88452805D01*
X70498940Y-88713686D01*
X71254193Y-88683226D01*
X71810479Y-88452805D01*
X71896923Y-88114712D01*
X76203077Y-88114712D01*
X76289521Y-88452805D01*
X76998940Y-88713686D01*
X77754193Y-88683226D01*
X78310479Y-88452805D01*
X78396923Y-88114712D01*
X79953077Y-88114712D01*
X80039521Y-88452805D01*
X80748940Y-88713686D01*
X81504193Y-88683226D01*
X82060479Y-88452805D01*
X82146923Y-88114712D01*
X86453077Y-88114712D01*
X86539521Y-88452805D01*
X87248940Y-88713686D01*
X88004193Y-88683226D01*
X88560479Y-88452805D01*
X88646923Y-88114712D01*
X87550000Y-87017789D01*
X86453077Y-88114712D01*
X82146923Y-88114712D01*
X81050000Y-87017789D01*
X79953077Y-88114712D01*
X78396923Y-88114712D01*
X77300000Y-87017789D01*
X76203077Y-88114712D01*
X71896923Y-88114712D01*
X70800000Y-87017789D01*
X69703077Y-88114712D01*
X67896923Y-88114712D01*
X66800000Y-87017789D01*
X65703077Y-88114712D01*
X61396923Y-88114712D01*
X60300000Y-87017789D01*
X59203077Y-88114712D01*
X56368925Y-88114712D01*
X56499739Y-87799677D01*
X56500260Y-87202941D01*
X56272380Y-86651428D01*
X56120158Y-86498940D01*
X58386314Y-86498940D01*
X58416774Y-87254193D01*
X58647195Y-87810479D01*
X58985288Y-87896923D01*
X60082211Y-86800000D01*
X60517789Y-86800000D01*
X61614712Y-87896923D01*
X61952805Y-87810479D01*
X62213686Y-87101060D01*
X62189402Y-86498940D01*
X64886314Y-86498940D01*
X64916774Y-87254193D01*
X65147195Y-87810479D01*
X65485288Y-87896923D01*
X66582211Y-86800000D01*
X67017789Y-86800000D01*
X68114712Y-87896923D01*
X68452805Y-87810479D01*
X68713686Y-87101060D01*
X68689402Y-86498940D01*
X68886314Y-86498940D01*
X68916774Y-87254193D01*
X69147195Y-87810479D01*
X69485288Y-87896923D01*
X70582211Y-86800000D01*
X71017789Y-86800000D01*
X72114712Y-87896923D01*
X72452805Y-87810479D01*
X72713686Y-87101060D01*
X72689402Y-86498940D01*
X75386314Y-86498940D01*
X75416774Y-87254193D01*
X75647195Y-87810479D01*
X75985288Y-87896923D01*
X77082211Y-86800000D01*
X77517789Y-86800000D01*
X78614712Y-87896923D01*
X78952805Y-87810479D01*
X79165845Y-87231155D01*
X79166774Y-87254193D01*
X79397195Y-87810479D01*
X79735288Y-87896923D01*
X80832211Y-86800000D01*
X81267789Y-86800000D01*
X82364712Y-87896923D01*
X82702805Y-87810479D01*
X82963686Y-87101060D01*
X82939402Y-86498940D01*
X85636314Y-86498940D01*
X85666774Y-87254193D01*
X85897195Y-87810479D01*
X86235288Y-87896923D01*
X87332211Y-86800000D01*
X86235288Y-85703077D01*
X85897195Y-85789521D01*
X85636314Y-86498940D01*
X82939402Y-86498940D01*
X82933226Y-86345807D01*
X82702805Y-85789521D01*
X82364712Y-85703077D01*
X81267789Y-86800000D01*
X80832211Y-86800000D01*
X79735288Y-85703077D01*
X79397195Y-85789521D01*
X79184155Y-86368845D01*
X79183226Y-86345807D01*
X78952805Y-85789521D01*
X78614712Y-85703077D01*
X77517789Y-86800000D01*
X77082211Y-86800000D01*
X75985288Y-85703077D01*
X75647195Y-85789521D01*
X75386314Y-86498940D01*
X72689402Y-86498940D01*
X72683226Y-86345807D01*
X72452805Y-85789521D01*
X72114712Y-85703077D01*
X71017789Y-86800000D01*
X70582211Y-86800000D01*
X69485288Y-85703077D01*
X69147195Y-85789521D01*
X68886314Y-86498940D01*
X68689402Y-86498940D01*
X68683226Y-86345807D01*
X68452805Y-85789521D01*
X68114712Y-85703077D01*
X67017789Y-86800000D01*
X66582211Y-86800000D01*
X65485288Y-85703077D01*
X65147195Y-85789521D01*
X64886314Y-86498940D01*
X62189402Y-86498940D01*
X62183226Y-86345807D01*
X61952805Y-85789521D01*
X61614712Y-85703077D01*
X60517789Y-86800000D01*
X60082211Y-86800000D01*
X58985288Y-85703077D01*
X58647195Y-85789521D01*
X58386314Y-86498940D01*
X56120158Y-86498940D01*
X55871322Y-86249670D01*
X56270897Y-85850791D01*
X56422666Y-85485288D01*
X59203077Y-85485288D01*
X60300000Y-86582211D01*
X61396923Y-85485288D01*
X65703077Y-85485288D01*
X66800000Y-86582211D01*
X67896923Y-85485288D01*
X69703077Y-85485288D01*
X70800000Y-86582211D01*
X71896923Y-85485288D01*
X76203077Y-85485288D01*
X77300000Y-86582211D01*
X78396923Y-85485288D01*
X79953077Y-85485288D01*
X81050000Y-86582211D01*
X82146923Y-85485288D01*
X86453077Y-85485288D01*
X87550000Y-86582211D01*
X88646923Y-85485288D01*
X88560479Y-85147195D01*
X87851060Y-84886314D01*
X87095807Y-84916774D01*
X86539521Y-85147195D01*
X86453077Y-85485288D01*
X82146923Y-85485288D01*
X82060479Y-85147195D01*
X81351060Y-84886314D01*
X80595807Y-84916774D01*
X80039521Y-85147195D01*
X79953077Y-85485288D01*
X78396923Y-85485288D01*
X78310479Y-85147195D01*
X77601060Y-84886314D01*
X76845807Y-84916774D01*
X76289521Y-85147195D01*
X76203077Y-85485288D01*
X71896923Y-85485288D01*
X71810479Y-85147195D01*
X71101060Y-84886314D01*
X70345807Y-84916774D01*
X69789521Y-85147195D01*
X69703077Y-85485288D01*
X67896923Y-85485288D01*
X67810479Y-85147195D01*
X67101060Y-84886314D01*
X66345807Y-84916774D01*
X65789521Y-85147195D01*
X65703077Y-85485288D01*
X61396923Y-85485288D01*
X61310479Y-85147195D01*
X60601060Y-84886314D01*
X59845807Y-84916774D01*
X59289521Y-85147195D01*
X59203077Y-85485288D01*
X56422666Y-85485288D01*
X56499739Y-85299677D01*
X56499890Y-85126456D01*
X58560598Y-83065748D01*
X58688319Y-83374857D01*
X59222331Y-83909802D01*
X59920409Y-84199669D01*
X60676275Y-84200329D01*
X61374857Y-83911681D01*
X61909802Y-83377669D01*
X61931672Y-83325000D01*
X65167719Y-83325000D01*
X65188319Y-83374857D01*
X65722331Y-83909802D01*
X66420409Y-84199669D01*
X67176275Y-84200329D01*
X67874857Y-83911681D01*
X68409802Y-83377669D01*
X68699669Y-82679591D01*
X68700176Y-82099393D01*
X68915365Y-81884204D01*
X68900331Y-81920409D01*
G36*
X94281931Y-83455858D02*
X94267789Y-83470000D01*
X94281931Y-83484142D01*
X94064142Y-83701931D01*
X94050000Y-83687789D01*
X94035858Y-83701931D01*
X93818069Y-83484142D01*
X93832211Y-83470000D01*
X93818069Y-83455858D01*
X94035858Y-83238069D01*
X94050000Y-83252211D01*
X94064142Y-83238069D01*
X94281931Y-83455858D01*
X94281931Y-83455858D01*
G37*
X94281931Y-83455858D02*
X94267789Y-83470000D01*
X94281931Y-83484142D01*
X94064142Y-83701931D01*
X94050000Y-83687789D01*
X94035858Y-83701931D01*
X93818069Y-83484142D01*
X93832211Y-83470000D01*
X93818069Y-83455858D01*
X94035858Y-83238069D01*
X94050000Y-83252211D01*
X94064142Y-83238069D01*
X94281931Y-83455858D01*
G36*
X94017000Y-74484000D02*
X95046000Y-74484000D01*
X95046000Y-74464000D01*
X95354000Y-74464000D01*
X95354000Y-74484000D01*
X95374000Y-74484000D01*
X95374000Y-74792000D01*
X95354000Y-74792000D01*
X95354000Y-74799868D01*
X95046000Y-74799868D01*
X95046000Y-74792000D01*
X94017000Y-74792000D01*
X93792000Y-75017000D01*
X93792000Y-75261521D01*
X93797583Y-75275000D01*
X93550000Y-75275000D01*
X93157750Y-75353022D01*
X92825216Y-75575215D01*
X91825219Y-76575213D01*
X91825216Y-76575215D01*
X87979413Y-80421019D01*
X87929591Y-80400331D01*
X87173725Y-80399671D01*
X86475143Y-80688319D01*
X85940198Y-81222331D01*
X85918328Y-81275000D01*
X82682281Y-81275000D01*
X82661681Y-81225143D01*
X82127669Y-80690198D01*
X81429591Y-80400331D01*
X80673725Y-80399671D01*
X79975143Y-80688319D01*
X79440198Y-81222331D01*
X79174705Y-81861710D01*
X78911681Y-81225143D01*
X78377669Y-80690198D01*
X78325000Y-80668328D01*
X78325000Y-80089752D01*
X78936765Y-80090285D01*
X79543429Y-79839617D01*
X79880180Y-79503453D01*
X80214130Y-79837986D01*
X80820355Y-80089713D01*
X81476765Y-80090285D01*
X82083429Y-79839617D01*
X82349901Y-79573609D01*
X82774180Y-79573609D01*
X82829894Y-79885835D01*
X83448663Y-80104925D01*
X84104173Y-80070547D01*
X84550106Y-79885835D01*
X84605820Y-79573609D01*
X83690000Y-78657789D01*
X82774180Y-79573609D01*
X82349901Y-79573609D01*
X82547986Y-79375870D01*
X82556317Y-79355807D01*
X82556391Y-79355820D01*
X83472211Y-78440000D01*
X83458069Y-78425858D01*
X83675858Y-78208069D01*
X83690000Y-78222211D01*
X83704142Y-78208069D01*
X83921931Y-78425858D01*
X83907789Y-78440000D01*
X84823609Y-79355820D01*
X85135835Y-79300106D01*
X85354925Y-78681337D01*
X85320547Y-78025827D01*
X85185585Y-77700000D01*
X89590348Y-77700000D01*
X89710258Y-77749791D01*
X90187647Y-77750207D01*
X90628857Y-77567903D01*
X90966717Y-77230633D01*
X91017136Y-77109210D01*
X93726346Y-74400000D01*
X93933000Y-74400000D01*
X94017000Y-74484000D01*
X94017000Y-74484000D01*
G37*
X94017000Y-74484000D02*
X95046000Y-74484000D01*
X95046000Y-74464000D01*
X95354000Y-74464000D01*
X95354000Y-74484000D01*
X95374000Y-74484000D01*
X95374000Y-74792000D01*
X95354000Y-74792000D01*
X95354000Y-74799868D01*
X95046000Y-74799868D01*
X95046000Y-74792000D01*
X94017000Y-74792000D01*
X93792000Y-75017000D01*
X93792000Y-75261521D01*
X93797583Y-75275000D01*
X93550000Y-75275000D01*
X93157750Y-75353022D01*
X92825216Y-75575215D01*
X91825219Y-76575213D01*
X91825216Y-76575215D01*
X87979413Y-80421019D01*
X87929591Y-80400331D01*
X87173725Y-80399671D01*
X86475143Y-80688319D01*
X85940198Y-81222331D01*
X85918328Y-81275000D01*
X82682281Y-81275000D01*
X82661681Y-81225143D01*
X82127669Y-80690198D01*
X81429591Y-80400331D01*
X80673725Y-80399671D01*
X79975143Y-80688319D01*
X79440198Y-81222331D01*
X79174705Y-81861710D01*
X78911681Y-81225143D01*
X78377669Y-80690198D01*
X78325000Y-80668328D01*
X78325000Y-80089752D01*
X78936765Y-80090285D01*
X79543429Y-79839617D01*
X79880180Y-79503453D01*
X80214130Y-79837986D01*
X80820355Y-80089713D01*
X81476765Y-80090285D01*
X82083429Y-79839617D01*
X82349901Y-79573609D01*
X82774180Y-79573609D01*
X82829894Y-79885835D01*
X83448663Y-80104925D01*
X84104173Y-80070547D01*
X84550106Y-79885835D01*
X84605820Y-79573609D01*
X83690000Y-78657789D01*
X82774180Y-79573609D01*
X82349901Y-79573609D01*
X82547986Y-79375870D01*
X82556317Y-79355807D01*
X82556391Y-79355820D01*
X83472211Y-78440000D01*
X83458069Y-78425858D01*
X83675858Y-78208069D01*
X83690000Y-78222211D01*
X83704142Y-78208069D01*
X83921931Y-78425858D01*
X83907789Y-78440000D01*
X84823609Y-79355820D01*
X85135835Y-79300106D01*
X85354925Y-78681337D01*
X85320547Y-78025827D01*
X85185585Y-77700000D01*
X89590348Y-77700000D01*
X89710258Y-77749791D01*
X90187647Y-77750207D01*
X90628857Y-77567903D01*
X90966717Y-77230633D01*
X91017136Y-77109210D01*
X93726346Y-74400000D01*
X93933000Y-74400000D01*
X94017000Y-74484000D01*
G36*
X61225000Y-76467632D02*
X62556022Y-76467632D01*
X60906500Y-78117154D01*
X60906500Y-77912979D01*
X60818281Y-77700000D01*
X60906500Y-77487021D01*
X60906500Y-77179000D01*
X60681500Y-76954000D01*
X59716000Y-76954000D01*
X59716000Y-78446000D01*
X59736000Y-78446000D01*
X59736000Y-78754000D01*
X59716000Y-78754000D01*
X59716000Y-78774000D01*
X59408000Y-78774000D01*
X59408000Y-78754000D01*
X59400132Y-78754000D01*
X59400132Y-78446000D01*
X59408000Y-78446000D01*
X59408000Y-76954000D01*
X59400132Y-76954000D01*
X59400132Y-76646000D01*
X59408000Y-76646000D01*
X59408000Y-76626000D01*
X59716000Y-76626000D01*
X59716000Y-76646000D01*
X60681500Y-76646000D01*
X60906500Y-76421000D01*
X60906500Y-76403134D01*
X61225000Y-76467632D01*
X61225000Y-76467632D01*
G37*
X61225000Y-76467632D02*
X62556022Y-76467632D01*
X60906500Y-78117154D01*
X60906500Y-77912979D01*
X60818281Y-77700000D01*
X60906500Y-77487021D01*
X60906500Y-77179000D01*
X60681500Y-76954000D01*
X59716000Y-76954000D01*
X59716000Y-78446000D01*
X59736000Y-78446000D01*
X59736000Y-78754000D01*
X59716000Y-78754000D01*
X59716000Y-78774000D01*
X59408000Y-78774000D01*
X59408000Y-78754000D01*
X59400132Y-78754000D01*
X59400132Y-78446000D01*
X59408000Y-78446000D01*
X59408000Y-76954000D01*
X59400132Y-76954000D01*
X59400132Y-76646000D01*
X59408000Y-76646000D01*
X59408000Y-76626000D01*
X59716000Y-76626000D01*
X59716000Y-76646000D01*
X60681500Y-76646000D01*
X60906500Y-76421000D01*
X60906500Y-76403134D01*
X61225000Y-76467632D01*
G36*
X75925000Y-75200000D02*
X75982195Y-75487539D01*
X76003023Y-75592251D01*
X76225216Y-75924784D01*
X76275000Y-75974568D01*
X76275000Y-76790178D01*
X75743235Y-76789715D01*
X75136571Y-77040383D01*
X74799820Y-77376547D01*
X74465870Y-77042014D01*
X73859645Y-76790287D01*
X73203235Y-76789715D01*
X72596571Y-77040383D01*
X72259820Y-77376547D01*
X71925870Y-77042014D01*
X71319645Y-76790287D01*
X70959595Y-76789973D01*
X72624101Y-75125468D01*
X72774784Y-75024784D01*
X73124569Y-74675000D01*
X75500000Y-74675000D01*
X75892251Y-74596977D01*
X75925000Y-74575095D01*
X75925000Y-75200000D01*
X75925000Y-75200000D01*
G37*
X75925000Y-75200000D02*
X75982195Y-75487539D01*
X76003023Y-75592251D01*
X76225216Y-75924784D01*
X76275000Y-75974568D01*
X76275000Y-76790178D01*
X75743235Y-76789715D01*
X75136571Y-77040383D01*
X74799820Y-77376547D01*
X74465870Y-77042014D01*
X73859645Y-76790287D01*
X73203235Y-76789715D01*
X72596571Y-77040383D01*
X72259820Y-77376547D01*
X71925870Y-77042014D01*
X71319645Y-76790287D01*
X70959595Y-76789973D01*
X72624101Y-75125468D01*
X72774784Y-75024784D01*
X73124569Y-74675000D01*
X75500000Y-74675000D01*
X75892251Y-74596977D01*
X75925000Y-74575095D01*
X75925000Y-75200000D01*
G36*
X67050000Y-68226346D02*
X67050000Y-68388898D01*
X66846664Y-68686490D01*
X66774368Y-69043500D01*
X66774368Y-69904632D01*
X66754000Y-69925000D01*
X66754000Y-70896000D01*
X67775000Y-70896000D01*
X67813000Y-70858000D01*
X68046000Y-70858000D01*
X68046000Y-70850132D01*
X68354000Y-70850132D01*
X68354000Y-70858000D01*
X68374000Y-70858000D01*
X68374000Y-71166000D01*
X68354000Y-71166000D01*
X68354000Y-72131500D01*
X68579000Y-72356500D01*
X68848959Y-72356500D01*
X68886827Y-72413173D01*
X69259914Y-72662461D01*
X69700000Y-72750000D01*
X69770174Y-72750000D01*
X69782097Y-72778857D01*
X69926709Y-72923722D01*
X67975317Y-74875115D01*
X67959111Y-74788987D01*
X68017632Y-74500000D01*
X68017632Y-73600000D01*
X67959111Y-73288987D01*
X68017632Y-73000000D01*
X68017632Y-72159868D01*
X68046000Y-72131500D01*
X68046000Y-71166000D01*
X67017000Y-71166000D01*
X67000632Y-71182368D01*
X66100000Y-71182368D01*
X65985036Y-71204000D01*
X65425000Y-71204000D01*
X65200000Y-71429000D01*
X65200000Y-71450087D01*
X64862353Y-71449793D01*
X64750000Y-71496216D01*
X64750000Y-70420979D01*
X65200000Y-70420979D01*
X65200000Y-70671000D01*
X65425000Y-70896000D01*
X66446000Y-70896000D01*
X66446000Y-69925000D01*
X66221000Y-69700000D01*
X65920979Y-69700000D01*
X65590191Y-69837017D01*
X65337017Y-70090191D01*
X65200000Y-70420979D01*
X64750000Y-70420979D01*
X64750000Y-69444310D01*
X64945716Y-69157870D01*
X65018012Y-68800860D01*
X65018012Y-67800100D01*
X64955256Y-67466580D01*
X64758146Y-67160262D01*
X64521378Y-66998485D01*
X64740218Y-66857666D01*
X64745784Y-66849520D01*
X65673174Y-66849520D01*
X67050000Y-68226346D01*
X67050000Y-68226346D01*
G37*
X67050000Y-68226346D02*
X67050000Y-68388898D01*
X66846664Y-68686490D01*
X66774368Y-69043500D01*
X66774368Y-69904632D01*
X66754000Y-69925000D01*
X66754000Y-70896000D01*
X67775000Y-70896000D01*
X67813000Y-70858000D01*
X68046000Y-70858000D01*
X68046000Y-70850132D01*
X68354000Y-70850132D01*
X68354000Y-70858000D01*
X68374000Y-70858000D01*
X68374000Y-71166000D01*
X68354000Y-71166000D01*
X68354000Y-72131500D01*
X68579000Y-72356500D01*
X68848959Y-72356500D01*
X68886827Y-72413173D01*
X69259914Y-72662461D01*
X69700000Y-72750000D01*
X69770174Y-72750000D01*
X69782097Y-72778857D01*
X69926709Y-72923722D01*
X67975317Y-74875115D01*
X67959111Y-74788987D01*
X68017632Y-74500000D01*
X68017632Y-73600000D01*
X67959111Y-73288987D01*
X68017632Y-73000000D01*
X68017632Y-72159868D01*
X68046000Y-72131500D01*
X68046000Y-71166000D01*
X67017000Y-71166000D01*
X67000632Y-71182368D01*
X66100000Y-71182368D01*
X65985036Y-71204000D01*
X65425000Y-71204000D01*
X65200000Y-71429000D01*
X65200000Y-71450087D01*
X64862353Y-71449793D01*
X64750000Y-71496216D01*
X64750000Y-70420979D01*
X65200000Y-70420979D01*
X65200000Y-70671000D01*
X65425000Y-70896000D01*
X66446000Y-70896000D01*
X66446000Y-69925000D01*
X66221000Y-69700000D01*
X65920979Y-69700000D01*
X65590191Y-69837017D01*
X65337017Y-70090191D01*
X65200000Y-70420979D01*
X64750000Y-70420979D01*
X64750000Y-69444310D01*
X64945716Y-69157870D01*
X65018012Y-68800860D01*
X65018012Y-67800100D01*
X64955256Y-67466580D01*
X64758146Y-67160262D01*
X64521378Y-66998485D01*
X64740218Y-66857666D01*
X64745784Y-66849520D01*
X65673174Y-66849520D01*
X67050000Y-68226346D01*
G36*
X90078455Y-73178024D02*
X90182097Y-73428857D01*
X90519367Y-73766717D01*
X90934541Y-73939113D01*
X90360432Y-74513222D01*
X90280633Y-74433283D01*
X89839742Y-74250209D01*
X89362353Y-74249793D01*
X88938319Y-74425000D01*
X88849978Y-74425000D01*
X88850207Y-74162353D01*
X88810695Y-74066726D01*
X88928857Y-74017903D01*
X89266717Y-73680633D01*
X89449791Y-73239742D01*
X89450207Y-72762353D01*
X89300525Y-72400093D01*
X90078455Y-73178024D01*
X90078455Y-73178024D01*
G37*
X90078455Y-73178024D02*
X90182097Y-73428857D01*
X90519367Y-73766717D01*
X90934541Y-73939113D01*
X90360432Y-74513222D01*
X90280633Y-74433283D01*
X89839742Y-74250209D01*
X89362353Y-74249793D01*
X88938319Y-74425000D01*
X88849978Y-74425000D01*
X88850207Y-74162353D01*
X88810695Y-74066726D01*
X88928857Y-74017903D01*
X89266717Y-73680633D01*
X89449791Y-73239742D01*
X89450207Y-72762353D01*
X89300525Y-72400093D01*
X90078455Y-73178024D01*
G36*
X67934990Y-64051836D02*
X68292000Y-64124132D01*
X69308000Y-64124132D01*
X69610719Y-64067172D01*
X69892000Y-64124132D01*
X70908000Y-64124132D01*
X71114382Y-64085299D01*
X71000209Y-64360258D01*
X70999793Y-64837647D01*
X71182097Y-65278857D01*
X71369536Y-65466624D01*
X71475216Y-65624784D01*
X71475432Y-65625000D01*
X70575216Y-66525216D01*
X70353023Y-66857749D01*
X70275000Y-67250000D01*
X70275000Y-69148654D01*
X69801173Y-68674827D01*
X69428086Y-68425539D01*
X69372762Y-68414534D01*
X69365766Y-68403662D01*
X69350000Y-68392890D01*
X69350000Y-67750005D01*
X69350001Y-67750000D01*
X69276985Y-67382930D01*
X69262461Y-67309914D01*
X69013173Y-66936827D01*
X66962693Y-64886347D01*
X66589606Y-64637059D01*
X66149520Y-64549520D01*
X64743830Y-64549520D01*
X64457390Y-64353804D01*
X64100380Y-64281508D01*
X63099620Y-64281508D01*
X62766100Y-64344264D01*
X62524079Y-64500000D01*
X62506402Y-64500000D01*
X62500000Y-64490051D01*
X62500000Y-63950000D01*
X67785948Y-63950000D01*
X67934990Y-64051836D01*
X67934990Y-64051836D01*
G37*
X67934990Y-64051836D02*
X68292000Y-64124132D01*
X69308000Y-64124132D01*
X69610719Y-64067172D01*
X69892000Y-64124132D01*
X70908000Y-64124132D01*
X71114382Y-64085299D01*
X71000209Y-64360258D01*
X70999793Y-64837647D01*
X71182097Y-65278857D01*
X71369536Y-65466624D01*
X71475216Y-65624784D01*
X71475432Y-65625000D01*
X70575216Y-66525216D01*
X70353023Y-66857749D01*
X70275000Y-67250000D01*
X70275000Y-69148654D01*
X69801173Y-68674827D01*
X69428086Y-68425539D01*
X69372762Y-68414534D01*
X69365766Y-68403662D01*
X69350000Y-68392890D01*
X69350000Y-67750005D01*
X69350001Y-67750000D01*
X69276985Y-67382930D01*
X69262461Y-67309914D01*
X69013173Y-66936827D01*
X66962693Y-64886347D01*
X66589606Y-64637059D01*
X66149520Y-64549520D01*
X64743830Y-64549520D01*
X64457390Y-64353804D01*
X64100380Y-64281508D01*
X63099620Y-64281508D01*
X62766100Y-64344264D01*
X62524079Y-64500000D01*
X62506402Y-64500000D01*
X62500000Y-64490051D01*
X62500000Y-63950000D01*
X67785948Y-63950000D01*
X67934990Y-64051836D01*
G36*
X76491500Y-65383500D02*
X77908500Y-65383500D01*
X77908500Y-65363500D01*
X78216500Y-65363500D01*
X78216500Y-65383500D01*
X78236500Y-65383500D01*
X78236500Y-65691500D01*
X78216500Y-65691500D01*
X78216500Y-67108500D01*
X78236500Y-67108500D01*
X78236500Y-67416500D01*
X78216500Y-67416500D01*
X78216500Y-67436500D01*
X77908500Y-67436500D01*
X77908500Y-67416500D01*
X76491500Y-67416500D01*
X76491500Y-67436500D01*
X76183500Y-67436500D01*
X76183500Y-67416500D01*
X76163500Y-67416500D01*
X76163500Y-67108500D01*
X76183500Y-67108500D01*
X76183500Y-65916500D01*
X76300000Y-65916500D01*
X76300000Y-66883500D01*
X76491500Y-67075000D01*
X76491500Y-67108500D01*
X76525000Y-67108500D01*
X76716500Y-67300000D01*
X77683500Y-67300000D01*
X77875000Y-67108500D01*
X77908500Y-67108500D01*
X77908500Y-67075000D01*
X78100000Y-66883500D01*
X78100000Y-65916500D01*
X77908500Y-65725000D01*
X77908500Y-65691500D01*
X77875000Y-65691500D01*
X77683500Y-65500000D01*
X76716500Y-65500000D01*
X76525000Y-65691500D01*
X76491500Y-65691500D01*
X76491500Y-65725000D01*
X76300000Y-65916500D01*
X76183500Y-65916500D01*
X76183500Y-65691500D01*
X76163500Y-65691500D01*
X76163500Y-65383500D01*
X76183500Y-65383500D01*
X76183500Y-65363500D01*
X76491500Y-65363500D01*
X76491500Y-65383500D01*
X76491500Y-65383500D01*
G37*
X76491500Y-65383500D02*
X77908500Y-65383500D01*
X77908500Y-65363500D01*
X78216500Y-65363500D01*
X78216500Y-65383500D01*
X78236500Y-65383500D01*
X78236500Y-65691500D01*
X78216500Y-65691500D01*
X78216500Y-67108500D01*
X78236500Y-67108500D01*
X78236500Y-67416500D01*
X78216500Y-67416500D01*
X78216500Y-67436500D01*
X77908500Y-67436500D01*
X77908500Y-67416500D01*
X76491500Y-67416500D01*
X76491500Y-67436500D01*
X76183500Y-67436500D01*
X76183500Y-67416500D01*
X76163500Y-67416500D01*
X76163500Y-67108500D01*
X76183500Y-67108500D01*
X76183500Y-65916500D01*
X76300000Y-65916500D01*
X76300000Y-66883500D01*
X76491500Y-67075000D01*
X76491500Y-67108500D01*
X76525000Y-67108500D01*
X76716500Y-67300000D01*
X77683500Y-67300000D01*
X77875000Y-67108500D01*
X77908500Y-67108500D01*
X77908500Y-67075000D01*
X78100000Y-66883500D01*
X78100000Y-65916500D01*
X77908500Y-65725000D01*
X77908500Y-65691500D01*
X77875000Y-65691500D01*
X77683500Y-65500000D01*
X76716500Y-65500000D01*
X76525000Y-65691500D01*
X76491500Y-65691500D01*
X76491500Y-65725000D01*
X76300000Y-65916500D01*
X76183500Y-65916500D01*
X76183500Y-65691500D01*
X76163500Y-65691500D01*
X76163500Y-65383500D01*
X76183500Y-65383500D01*
X76183500Y-65363500D01*
X76491500Y-65363500D01*
X76491500Y-65383500D01*
M02*
