G04 #@! TF.FileFunction,Legend,Top*
%FSLAX46Y46*%
G04 Gerber Fmt 4.6, Leading zero omitted, Abs format (unit mm)*
G04 Created by KiCad (PCBNEW 4.0.2-stable) date 22/10/2018 19:31:19*
%MOMM*%
G01*
G04 APERTURE LIST*
%ADD10C,0.100000*%
%ADD11C,0.150000*%
%ADD12C,0.120000*%
%ADD13C,0.149860*%
G04 APERTURE END LIST*
D10*
D11*
X96390000Y-37800000D02*
X96390000Y-79710000D01*
X53210000Y-37800000D02*
X53210000Y-79710000D01*
X67180000Y-77170000D02*
X67180000Y-79710000D01*
X64640000Y-79710000D02*
X64640000Y-77170000D01*
X64640000Y-77170000D02*
X84960000Y-77170000D01*
X84960000Y-77170000D02*
X84960000Y-79710000D01*
X67180000Y-37800000D02*
X67180000Y-40340000D01*
X74800000Y-79710000D02*
X53210000Y-79710000D01*
X53210000Y-37800000D02*
X64640000Y-37800000D01*
X74800000Y-79710000D02*
X96390000Y-79710000D01*
X96390000Y-37800000D02*
X84960000Y-37800000D01*
X64640000Y-37800000D02*
X64640000Y-40340000D01*
X64640000Y-40340000D02*
X84960000Y-40340000D01*
X84960000Y-40340000D02*
X84960000Y-37800000D01*
X84960000Y-37800000D02*
X64640000Y-37800000D01*
X57300000Y-78600000D02*
X57300000Y-77800000D01*
X57300000Y-77800000D02*
X60300000Y-77800000D01*
X60300000Y-77800000D02*
X60300000Y-79400000D01*
X60300000Y-79400000D02*
X57300000Y-79400000D01*
X57300000Y-79400000D02*
X57300000Y-78600000D01*
X57300000Y-76800000D02*
X57300000Y-76000000D01*
X57300000Y-76000000D02*
X60300000Y-76000000D01*
X60300000Y-76000000D02*
X60300000Y-77600000D01*
X60300000Y-77600000D02*
X57300000Y-77600000D01*
X57300000Y-77600000D02*
X57300000Y-76800000D01*
X77600000Y-61300000D02*
X76800000Y-61300000D01*
X76800000Y-61300000D02*
X76800000Y-58300000D01*
X76800000Y-58300000D02*
X78400000Y-58300000D01*
X78400000Y-58300000D02*
X78400000Y-61300000D01*
X78400000Y-61300000D02*
X77600000Y-61300000D01*
X79200000Y-61300000D02*
X78400000Y-61300000D01*
X78400000Y-61300000D02*
X78400000Y-58300000D01*
X78400000Y-58300000D02*
X80000000Y-58300000D01*
X80000000Y-58300000D02*
X80000000Y-61300000D01*
X80000000Y-61300000D02*
X79200000Y-61300000D01*
X68200000Y-68750000D02*
X69000000Y-68750000D01*
X69000000Y-68750000D02*
X69000000Y-71750000D01*
X69000000Y-71750000D02*
X67400000Y-71750000D01*
X67400000Y-71750000D02*
X67400000Y-68750000D01*
X67400000Y-68750000D02*
X68200000Y-68750000D01*
X70400000Y-63500000D02*
X69600000Y-63500000D01*
X69600000Y-63500000D02*
X69600000Y-60500000D01*
X69600000Y-60500000D02*
X71200000Y-60500000D01*
X71200000Y-60500000D02*
X71200000Y-63500000D01*
X71200000Y-63500000D02*
X70400000Y-63500000D01*
X68800000Y-63500000D02*
X68000000Y-63500000D01*
X68000000Y-63500000D02*
X68000000Y-60500000D01*
X68000000Y-60500000D02*
X69600000Y-60500000D01*
X69600000Y-60500000D02*
X69600000Y-63500000D01*
X69600000Y-63500000D02*
X68800000Y-63500000D01*
X61900000Y-62800000D02*
X61900000Y-63600000D01*
X61900000Y-63600000D02*
X58900000Y-63600000D01*
X58900000Y-63600000D02*
X58900000Y-62000000D01*
X58900000Y-62000000D02*
X61900000Y-62000000D01*
X61900000Y-62000000D02*
X61900000Y-62800000D01*
X61900000Y-61200000D02*
X61900000Y-62000000D01*
X61900000Y-62000000D02*
X58900000Y-62000000D01*
X58900000Y-62000000D02*
X58900000Y-60400000D01*
X58900000Y-60400000D02*
X61900000Y-60400000D01*
X61900000Y-60400000D02*
X61900000Y-61200000D01*
X111100000Y-71000000D02*
X111100000Y-71800000D01*
X111100000Y-71800000D02*
X108100000Y-71800000D01*
X108100000Y-71800000D02*
X108100000Y-70200000D01*
X108100000Y-70200000D02*
X111100000Y-70200000D01*
X111100000Y-70200000D02*
X111100000Y-71000000D01*
X95200000Y-73900000D02*
X96000000Y-73900000D01*
X96000000Y-73900000D02*
X96000000Y-76900000D01*
X96000000Y-76900000D02*
X94400000Y-76900000D01*
X94400000Y-76900000D02*
X94400000Y-73900000D01*
X94400000Y-73900000D02*
X95200000Y-73900000D01*
X104900000Y-71000000D02*
X104900000Y-70200000D01*
X104900000Y-70200000D02*
X107900000Y-70200000D01*
X107900000Y-70200000D02*
X107900000Y-71800000D01*
X107900000Y-71800000D02*
X104900000Y-71800000D01*
X104900000Y-71800000D02*
X104900000Y-71000000D01*
X64300000Y-65000000D02*
X64300000Y-64900000D01*
X64300000Y-64900000D02*
X62900000Y-64900000D01*
X62900000Y-64900000D02*
X62900000Y-65000000D01*
X64300000Y-65000000D02*
X64300000Y-69000000D01*
X64300000Y-69000000D02*
X62900000Y-69000000D01*
X62900000Y-69000000D02*
X62900000Y-65000000D01*
X62900000Y-65000000D02*
X64300000Y-65000000D01*
X63219000Y-66619000D02*
X63981000Y-66619000D01*
X63600000Y-67381000D02*
X63981000Y-67381000D01*
X63981000Y-67381000D02*
X63600000Y-66619000D01*
X63600000Y-66619000D02*
X63219000Y-67381000D01*
X63219000Y-67381000D02*
X63600000Y-67381000D01*
X79825000Y-69025000D02*
X79300000Y-69025000D01*
X74575000Y-63775000D02*
X75100000Y-63775000D01*
X74575000Y-69025000D02*
X75100000Y-69025000D01*
X79825000Y-63775000D02*
X79825000Y-64300000D01*
X74575000Y-63775000D02*
X74575000Y-64300000D01*
X74575000Y-69025000D02*
X74575000Y-68500000D01*
X79825000Y-69025000D02*
X79825000Y-68500000D01*
X60000000Y-74300000D02*
X60000000Y-74900000D01*
X60000000Y-70700000D02*
X60000000Y-71300000D01*
X60100000Y-74300000D02*
G75*
G03X60600000Y-73800000I0J500000D01*
G01*
X60600000Y-73800000D02*
G75*
G03X60100000Y-73300000I-500000J0D01*
G01*
X60100000Y-73300000D02*
G75*
G03X60600000Y-72800000I0J500000D01*
G01*
X60600000Y-72800000D02*
G75*
G03X60100000Y-72300000I-500000J0D01*
G01*
X60100000Y-72300000D02*
G75*
G03X60600000Y-71800000I0J500000D01*
G01*
X60600000Y-71800000D02*
G75*
G03X60100000Y-71300000I-500000J0D01*
G01*
X61100000Y-70200000D02*
X59700000Y-70200000D01*
X61100000Y-75400000D02*
X59700000Y-75400000D01*
X56800000Y-89300000D02*
X53200000Y-89300000D01*
X53200000Y-89300000D02*
X53200000Y-80700000D01*
X53200000Y-80700000D02*
X56800000Y-80700000D01*
X56800000Y-80700000D02*
X56800000Y-89300000D01*
X65460108Y-84500000D02*
G75*
G03X65460108Y-84500000I-1860108J0D01*
G01*
X60300000Y-88300000D02*
X66800000Y-88300000D01*
X60300000Y-80800000D02*
X66800000Y-80800000D01*
X60300000Y-83800000D02*
X60300000Y-85300000D01*
X66800000Y-83800000D02*
X66800000Y-85300000D01*
X75960108Y-84500000D02*
G75*
G03X75960108Y-84500000I-1860108J0D01*
G01*
X70800000Y-88300000D02*
X77300000Y-88300000D01*
X70800000Y-80800000D02*
X77300000Y-80800000D01*
X70800000Y-83800000D02*
X70800000Y-85300000D01*
X77300000Y-83800000D02*
X77300000Y-85300000D01*
X86210108Y-84500000D02*
G75*
G03X86210108Y-84500000I-1860108J0D01*
G01*
X81050000Y-88300000D02*
X87550000Y-88300000D01*
X81050000Y-80800000D02*
X87550000Y-80800000D01*
X81050000Y-83800000D02*
X81050000Y-85300000D01*
X87550000Y-83800000D02*
X87550000Y-85300000D01*
X111520215Y-81300000D02*
G75*
G03X111520215Y-81300000I-3720215J0D01*
G01*
X101950000Y-88300000D02*
X103900000Y-88300000D01*
X108900000Y-88300000D02*
X106550000Y-88300000D01*
X113650000Y-88300000D02*
X111450000Y-88300000D01*
X113650000Y-73800000D02*
X111600000Y-73800000D01*
X101950000Y-73800000D02*
X104100000Y-73800000D01*
X101950000Y-88300000D02*
X101950000Y-81300000D01*
X113650000Y-88300000D02*
X113650000Y-81300000D01*
X101950000Y-81300000D02*
X101950000Y-73800000D01*
X113650000Y-81250000D02*
X113650000Y-73800000D01*
X113650000Y-81250000D02*
X113650000Y-81300000D01*
X110300000Y-50300000D02*
X110300000Y-49550000D01*
X107550000Y-50300000D02*
X107550000Y-49550000D01*
X104800000Y-50300000D02*
X104800000Y-49550000D01*
X102050000Y-50300000D02*
X102050000Y-49550000D01*
X113050000Y-50300000D02*
X113050000Y-49800000D01*
X113050000Y-49800000D02*
X113050000Y-49550000D01*
X102050000Y-49550000D02*
X113050000Y-49550000D01*
X102050000Y-54050000D02*
X113050000Y-54050000D01*
X110300000Y-58300000D02*
X110300000Y-50550000D01*
X110300000Y-50550000D02*
X110300000Y-50300000D01*
X104800000Y-58300000D02*
X104800000Y-50550000D01*
X104800000Y-50550000D02*
X104800000Y-50300000D01*
X107550000Y-58300000D02*
X107550000Y-50300000D01*
X102050000Y-58300000D02*
X102050000Y-50300000D01*
X102050000Y-58300000D02*
X113050000Y-58300000D01*
X113050000Y-58300000D02*
X113050000Y-50300000D01*
X106550000Y-32800000D02*
X108550000Y-32800000D01*
X108550000Y-33800000D02*
X106550000Y-32800000D01*
X108550000Y-33800000D02*
X107050000Y-33800000D01*
X107050000Y-33800000D02*
X106550000Y-33800000D01*
X106550000Y-34800000D02*
X108550000Y-34800000D01*
X108550000Y-34800000D02*
X106550000Y-33800000D01*
X108550000Y-35800000D02*
X106550000Y-34800000D01*
X107550000Y-36300000D02*
X106550000Y-35800000D01*
X106550000Y-35800000D02*
X108550000Y-35800000D01*
X107550000Y-37800000D02*
X107550000Y-36300000D01*
X100050000Y-41800000D02*
X100050000Y-37800000D01*
X100050000Y-37800000D02*
X115050000Y-37800000D01*
X115050000Y-37800000D02*
X115050000Y-41800000D01*
X115050000Y-63300000D02*
X115050000Y-41800000D01*
X115050000Y-63300000D02*
X115050000Y-66800000D01*
X115050000Y-66800000D02*
X114050000Y-66800000D01*
X107550000Y-66800000D02*
X100050000Y-66800000D01*
X100050000Y-66800000D02*
X100050000Y-41800000D01*
X114050000Y-66800000D02*
X107550000Y-66800000D01*
X105030000Y-65920000D02*
X105030000Y-63340000D01*
X105030000Y-63340000D02*
X102430000Y-63330000D01*
X105040000Y-60720000D02*
X103780000Y-60720000D01*
X102440000Y-63310000D02*
X102440000Y-62010000D01*
D12*
X105040000Y-60720000D02*
X112720000Y-60720000D01*
X112720000Y-60720000D02*
X112720000Y-65920000D01*
X112720000Y-65920000D02*
X102440000Y-65920000D01*
X102440000Y-65920000D02*
X102440000Y-63320000D01*
X103770000Y-60720000D02*
X102440000Y-60720000D01*
X102440000Y-60720000D02*
X102440000Y-61990000D01*
D11*
X98320000Y-84740000D02*
X98320000Y-89820000D01*
X95780000Y-84740000D02*
X95780000Y-89820000D01*
X98320000Y-89947000D02*
X98320000Y-89820000D01*
X95780000Y-89820000D02*
X95780000Y-90074000D01*
X95780000Y-90074000D02*
X98320000Y-90074000D01*
X98320000Y-90074000D02*
X98320000Y-89947000D01*
X98320000Y-89947000D02*
X95907000Y-89947000D01*
X95780000Y-84740000D02*
X98320000Y-84740000D01*
X98320000Y-89820000D02*
X95780000Y-89820000D01*
X95320000Y-89820000D02*
X95320000Y-90074000D01*
X95320000Y-90074000D02*
X92780000Y-90074000D01*
X92780000Y-90074000D02*
X92780000Y-89820000D01*
X92780000Y-89820000D02*
X92780000Y-89947000D01*
X92780000Y-89947000D02*
X95320000Y-89947000D01*
X92780000Y-89820000D02*
X92780000Y-79660000D01*
X92780000Y-79660000D02*
X95320000Y-79660000D01*
X95320000Y-79660000D02*
X95320000Y-89820000D01*
X95320000Y-89820000D02*
X92780000Y-89820000D01*
X92320000Y-89820000D02*
X92320000Y-82200000D01*
X89780000Y-89820000D02*
X89780000Y-82200000D01*
X92320000Y-89820000D02*
X92320000Y-90074000D01*
X92320000Y-90074000D02*
X89780000Y-90074000D01*
X89780000Y-90074000D02*
X89780000Y-89820000D01*
X89780000Y-89820000D02*
X89780000Y-89947000D01*
X89780000Y-89947000D02*
X92320000Y-89947000D01*
X89780000Y-82200000D02*
X92320000Y-82200000D01*
X92320000Y-89820000D02*
X89780000Y-89820000D01*
D12*
X58790000Y-66100000D02*
X58790000Y-67900000D01*
X62010000Y-67900000D02*
X62010000Y-65450000D01*
D11*
X96800000Y-73900000D02*
X97600000Y-73900000D01*
X97600000Y-73900000D02*
X97600000Y-76900000D01*
X97600000Y-76900000D02*
X96000000Y-76900000D01*
X96000000Y-76900000D02*
X96000000Y-73900000D01*
X96000000Y-73900000D02*
X96800000Y-73900000D01*
X66600000Y-76300000D02*
X65800000Y-76300000D01*
X65800000Y-76300000D02*
X65800000Y-73300000D01*
X65800000Y-73300000D02*
X67400000Y-73300000D01*
X67400000Y-73300000D02*
X67400000Y-76300000D01*
X67400000Y-76300000D02*
X66600000Y-76300000D01*
X66600000Y-73300000D02*
X65800000Y-73300000D01*
X65800000Y-73300000D02*
X65800000Y-70300000D01*
X65800000Y-70300000D02*
X67400000Y-70300000D01*
X67400000Y-70300000D02*
X67400000Y-73300000D01*
X67400000Y-73300000D02*
X66600000Y-73300000D01*
X98400000Y-73900000D02*
X99200000Y-73900000D01*
X99200000Y-73900000D02*
X99200000Y-76900000D01*
X99200000Y-76900000D02*
X97600000Y-76900000D01*
X97600000Y-76900000D02*
X97600000Y-73900000D01*
X97600000Y-73900000D02*
X98400000Y-73900000D01*
X100000000Y-73900000D02*
X100800000Y-73900000D01*
X100800000Y-73900000D02*
X100800000Y-76900000D01*
X100800000Y-76900000D02*
X99200000Y-76900000D01*
X99200000Y-76900000D02*
X99200000Y-73900000D01*
X99200000Y-73900000D02*
X100000000Y-73900000D01*
X85185714Y-56452381D02*
X85852381Y-57452381D01*
X85852381Y-56452381D02*
X85185714Y-57452381D01*
X86709524Y-57452381D02*
X86233333Y-57452381D01*
X86233333Y-56452381D01*
X87471429Y-56785714D02*
X87471429Y-57452381D01*
X87233333Y-56404762D02*
X86995238Y-57119048D01*
X87614286Y-57119048D01*
X58700000Y-78814286D02*
X58671429Y-78842857D01*
X58585715Y-78871429D01*
X58528572Y-78871429D01*
X58442857Y-78842857D01*
X58385715Y-78785714D01*
X58357143Y-78728571D01*
X58328572Y-78614286D01*
X58328572Y-78528571D01*
X58357143Y-78414286D01*
X58385715Y-78357143D01*
X58442857Y-78300000D01*
X58528572Y-78271429D01*
X58585715Y-78271429D01*
X58671429Y-78300000D01*
X58700000Y-78328571D01*
X59271429Y-78871429D02*
X58928572Y-78871429D01*
X59100000Y-78871429D02*
X59100000Y-78271429D01*
X59042857Y-78357143D01*
X58985715Y-78414286D01*
X58928572Y-78442857D01*
X55571429Y-78171429D02*
X55628572Y-78171429D01*
X55685715Y-78200000D01*
X55714286Y-78228571D01*
X55742857Y-78285714D01*
X55771429Y-78400000D01*
X55771429Y-78542857D01*
X55742857Y-78657143D01*
X55714286Y-78714286D01*
X55685715Y-78742857D01*
X55628572Y-78771429D01*
X55571429Y-78771429D01*
X55514286Y-78742857D01*
X55485715Y-78714286D01*
X55457143Y-78657143D01*
X55428572Y-78542857D01*
X55428572Y-78400000D01*
X55457143Y-78285714D01*
X55485715Y-78228571D01*
X55514286Y-78200000D01*
X55571429Y-78171429D01*
X56028572Y-78714286D02*
X56057144Y-78742857D01*
X56028572Y-78771429D01*
X56000001Y-78742857D01*
X56028572Y-78714286D01*
X56028572Y-78771429D01*
X56628572Y-78771429D02*
X56285715Y-78771429D01*
X56457143Y-78771429D02*
X56457143Y-78171429D01*
X56400000Y-78257143D01*
X56342858Y-78314286D01*
X56285715Y-78342857D01*
X57142858Y-78371429D02*
X57142858Y-78771429D01*
X56885715Y-78371429D02*
X56885715Y-78685714D01*
X56914287Y-78742857D01*
X56971429Y-78771429D01*
X57057144Y-78771429D01*
X57114287Y-78742857D01*
X57142858Y-78714286D01*
X58700000Y-77014286D02*
X58671429Y-77042857D01*
X58585715Y-77071429D01*
X58528572Y-77071429D01*
X58442857Y-77042857D01*
X58385715Y-76985714D01*
X58357143Y-76928571D01*
X58328572Y-76814286D01*
X58328572Y-76728571D01*
X58357143Y-76614286D01*
X58385715Y-76557143D01*
X58442857Y-76500000D01*
X58528572Y-76471429D01*
X58585715Y-76471429D01*
X58671429Y-76500000D01*
X58700000Y-76528571D01*
X58928572Y-76528571D02*
X58957143Y-76500000D01*
X59014286Y-76471429D01*
X59157143Y-76471429D01*
X59214286Y-76500000D01*
X59242857Y-76528571D01*
X59271429Y-76585714D01*
X59271429Y-76642857D01*
X59242857Y-76728571D01*
X58900000Y-77071429D01*
X59271429Y-77071429D01*
X55914286Y-76971429D02*
X55571429Y-76971429D01*
X55742857Y-76971429D02*
X55742857Y-76371429D01*
X55685714Y-76457143D01*
X55628572Y-76514286D01*
X55571429Y-76542857D01*
X56285715Y-76371429D02*
X56342858Y-76371429D01*
X56400001Y-76400000D01*
X56428572Y-76428571D01*
X56457143Y-76485714D01*
X56485715Y-76600000D01*
X56485715Y-76742857D01*
X56457143Y-76857143D01*
X56428572Y-76914286D01*
X56400001Y-76942857D01*
X56342858Y-76971429D01*
X56285715Y-76971429D01*
X56228572Y-76942857D01*
X56200001Y-76914286D01*
X56171429Y-76857143D01*
X56142858Y-76742857D01*
X56142858Y-76600000D01*
X56171429Y-76485714D01*
X56200001Y-76428571D01*
X56228572Y-76400000D01*
X56285715Y-76371429D01*
X57000001Y-76571429D02*
X57000001Y-76971429D01*
X56742858Y-76571429D02*
X56742858Y-76885714D01*
X56771430Y-76942857D01*
X56828572Y-76971429D01*
X56914287Y-76971429D01*
X56971430Y-76942857D01*
X57000001Y-76914286D01*
X77214286Y-57700000D02*
X77242857Y-57728571D01*
X77271429Y-57814285D01*
X77271429Y-57871428D01*
X77242857Y-57957143D01*
X77185714Y-58014285D01*
X77128571Y-58042857D01*
X77014286Y-58071428D01*
X76928571Y-58071428D01*
X76814286Y-58042857D01*
X76757143Y-58014285D01*
X76700000Y-57957143D01*
X76671429Y-57871428D01*
X76671429Y-57814285D01*
X76700000Y-57728571D01*
X76728571Y-57700000D01*
X76671429Y-57500000D02*
X76671429Y-57128571D01*
X76900000Y-57328571D01*
X76900000Y-57242857D01*
X76928571Y-57185714D01*
X76957143Y-57157143D01*
X77014286Y-57128571D01*
X77157143Y-57128571D01*
X77214286Y-57157143D01*
X77242857Y-57185714D01*
X77271429Y-57242857D01*
X77271429Y-57414285D01*
X77242857Y-57471428D01*
X77214286Y-57500000D01*
X77671429Y-57842857D02*
X78071429Y-57842857D01*
X77442857Y-57985714D02*
X77871429Y-58128571D01*
X77871429Y-57757143D01*
X77671429Y-57271428D02*
X78071429Y-57271428D01*
X77671429Y-57528571D02*
X77985714Y-57528571D01*
X78042857Y-57499999D01*
X78071429Y-57442857D01*
X78071429Y-57357142D01*
X78042857Y-57299999D01*
X78014286Y-57271428D01*
X77471429Y-57042857D02*
X77471429Y-56642857D01*
X78071429Y-56900000D01*
X79014286Y-57700000D02*
X79042857Y-57728571D01*
X79071429Y-57814285D01*
X79071429Y-57871428D01*
X79042857Y-57957143D01*
X78985714Y-58014285D01*
X78928571Y-58042857D01*
X78814286Y-58071428D01*
X78728571Y-58071428D01*
X78614286Y-58042857D01*
X78557143Y-58014285D01*
X78500000Y-57957143D01*
X78471429Y-57871428D01*
X78471429Y-57814285D01*
X78500000Y-57728571D01*
X78528571Y-57700000D01*
X78671429Y-57185714D02*
X79071429Y-57185714D01*
X78442857Y-57328571D02*
X78871429Y-57471428D01*
X78871429Y-57100000D01*
X79471429Y-57928571D02*
X79471429Y-57871428D01*
X79500000Y-57814285D01*
X79528571Y-57785714D01*
X79585714Y-57757143D01*
X79700000Y-57728571D01*
X79842857Y-57728571D01*
X79957143Y-57757143D01*
X80014286Y-57785714D01*
X80042857Y-57814285D01*
X80071429Y-57871428D01*
X80071429Y-57928571D01*
X80042857Y-57985714D01*
X80014286Y-58014285D01*
X79957143Y-58042857D01*
X79842857Y-58071428D01*
X79700000Y-58071428D01*
X79585714Y-58042857D01*
X79528571Y-58014285D01*
X79500000Y-57985714D01*
X79471429Y-57928571D01*
X80014286Y-57471428D02*
X80042857Y-57442856D01*
X80071429Y-57471428D01*
X80042857Y-57499999D01*
X80014286Y-57471428D01*
X80071429Y-57471428D01*
X80071429Y-56871428D02*
X80071429Y-57214285D01*
X80071429Y-57042857D02*
X79471429Y-57042857D01*
X79557143Y-57100000D01*
X79614286Y-57157142D01*
X79642857Y-57214285D01*
X79671429Y-56357142D02*
X80071429Y-56357142D01*
X79671429Y-56614285D02*
X79985714Y-56614285D01*
X80042857Y-56585713D01*
X80071429Y-56528571D01*
X80071429Y-56442856D01*
X80042857Y-56385713D01*
X80014286Y-56357142D01*
X69814286Y-71400000D02*
X69842857Y-71428571D01*
X69871429Y-71514285D01*
X69871429Y-71571428D01*
X69842857Y-71657143D01*
X69785714Y-71714285D01*
X69728571Y-71742857D01*
X69614286Y-71771428D01*
X69528571Y-71771428D01*
X69414286Y-71742857D01*
X69357143Y-71714285D01*
X69300000Y-71657143D01*
X69271429Y-71571428D01*
X69271429Y-71514285D01*
X69300000Y-71428571D01*
X69328571Y-71400000D01*
X69271429Y-70857143D02*
X69271429Y-71142857D01*
X69557143Y-71171428D01*
X69528571Y-71142857D01*
X69500000Y-71085714D01*
X69500000Y-70942857D01*
X69528571Y-70885714D01*
X69557143Y-70857143D01*
X69614286Y-70828571D01*
X69757143Y-70828571D01*
X69814286Y-70857143D01*
X69842857Y-70885714D01*
X69871429Y-70942857D01*
X69871429Y-71085714D01*
X69842857Y-71142857D01*
X69814286Y-71171428D01*
X69221429Y-70128571D02*
X69221429Y-70071428D01*
X69250000Y-70014285D01*
X69278571Y-69985714D01*
X69335714Y-69957143D01*
X69450000Y-69928571D01*
X69592857Y-69928571D01*
X69707143Y-69957143D01*
X69764286Y-69985714D01*
X69792857Y-70014285D01*
X69821429Y-70071428D01*
X69821429Y-70128571D01*
X69792857Y-70185714D01*
X69764286Y-70214285D01*
X69707143Y-70242857D01*
X69592857Y-70271428D01*
X69450000Y-70271428D01*
X69335714Y-70242857D01*
X69278571Y-70214285D01*
X69250000Y-70185714D01*
X69221429Y-70128571D01*
X69764286Y-69671428D02*
X69792857Y-69642856D01*
X69821429Y-69671428D01*
X69792857Y-69699999D01*
X69764286Y-69671428D01*
X69821429Y-69671428D01*
X69821429Y-69071428D02*
X69821429Y-69414285D01*
X69821429Y-69242857D02*
X69221429Y-69242857D01*
X69307143Y-69300000D01*
X69364286Y-69357142D01*
X69392857Y-69414285D01*
X69421429Y-68557142D02*
X69821429Y-68557142D01*
X69421429Y-68814285D02*
X69735714Y-68814285D01*
X69792857Y-68785713D01*
X69821429Y-68728571D01*
X69821429Y-68642856D01*
X69792857Y-68585713D01*
X69764286Y-68557142D01*
X70214286Y-64300000D02*
X70242857Y-64328571D01*
X70271429Y-64414285D01*
X70271429Y-64471428D01*
X70242857Y-64557143D01*
X70185714Y-64614285D01*
X70128571Y-64642857D01*
X70014286Y-64671428D01*
X69928571Y-64671428D01*
X69814286Y-64642857D01*
X69757143Y-64614285D01*
X69700000Y-64557143D01*
X69671429Y-64471428D01*
X69671429Y-64414285D01*
X69700000Y-64328571D01*
X69728571Y-64300000D01*
X69671429Y-63785714D02*
X69671429Y-63900000D01*
X69700000Y-63957143D01*
X69728571Y-63985714D01*
X69814286Y-64042857D01*
X69928571Y-64071428D01*
X70157143Y-64071428D01*
X70214286Y-64042857D01*
X70242857Y-64014285D01*
X70271429Y-63957143D01*
X70271429Y-63842857D01*
X70242857Y-63785714D01*
X70214286Y-63757143D01*
X70157143Y-63728571D01*
X70014286Y-63728571D01*
X69957143Y-63757143D01*
X69928571Y-63785714D01*
X69900000Y-63842857D01*
X69900000Y-63957143D01*
X69928571Y-64014285D01*
X69957143Y-64042857D01*
X70014286Y-64071428D01*
X71071429Y-64300000D02*
X71071429Y-64642857D01*
X71071429Y-64471429D02*
X70471429Y-64471429D01*
X70557143Y-64528572D01*
X70614286Y-64585714D01*
X70642857Y-64642857D01*
X70671429Y-63785714D02*
X71071429Y-63785714D01*
X70671429Y-64042857D02*
X70985714Y-64042857D01*
X71042857Y-64014285D01*
X71071429Y-63957143D01*
X71071429Y-63871428D01*
X71042857Y-63814285D01*
X71014286Y-63785714D01*
X68614286Y-64300000D02*
X68642857Y-64328571D01*
X68671429Y-64414285D01*
X68671429Y-64471428D01*
X68642857Y-64557143D01*
X68585714Y-64614285D01*
X68528571Y-64642857D01*
X68414286Y-64671428D01*
X68328571Y-64671428D01*
X68214286Y-64642857D01*
X68157143Y-64614285D01*
X68100000Y-64557143D01*
X68071429Y-64471428D01*
X68071429Y-64414285D01*
X68100000Y-64328571D01*
X68128571Y-64300000D01*
X68071429Y-64100000D02*
X68071429Y-63700000D01*
X68671429Y-63957143D01*
X68871429Y-65328571D02*
X68871429Y-65271428D01*
X68900000Y-65214285D01*
X68928571Y-65185714D01*
X68985714Y-65157143D01*
X69100000Y-65128571D01*
X69242857Y-65128571D01*
X69357143Y-65157143D01*
X69414286Y-65185714D01*
X69442857Y-65214285D01*
X69471429Y-65271428D01*
X69471429Y-65328571D01*
X69442857Y-65385714D01*
X69414286Y-65414285D01*
X69357143Y-65442857D01*
X69242857Y-65471428D01*
X69100000Y-65471428D01*
X68985714Y-65442857D01*
X68928571Y-65414285D01*
X68900000Y-65385714D01*
X68871429Y-65328571D01*
X69414286Y-64871428D02*
X69442857Y-64842856D01*
X69471429Y-64871428D01*
X69442857Y-64899999D01*
X69414286Y-64871428D01*
X69471429Y-64871428D01*
X69471429Y-64271428D02*
X69471429Y-64614285D01*
X69471429Y-64442857D02*
X68871429Y-64442857D01*
X68957143Y-64500000D01*
X69014286Y-64557142D01*
X69042857Y-64614285D01*
X69071429Y-63757142D02*
X69471429Y-63757142D01*
X69071429Y-64014285D02*
X69385714Y-64014285D01*
X69442857Y-63985713D01*
X69471429Y-63928571D01*
X69471429Y-63842856D01*
X69442857Y-63785713D01*
X69414286Y-63757142D01*
X62500000Y-62614286D02*
X62471429Y-62642857D01*
X62385715Y-62671429D01*
X62328572Y-62671429D01*
X62242857Y-62642857D01*
X62185715Y-62585714D01*
X62157143Y-62528571D01*
X62128572Y-62414286D01*
X62128572Y-62328571D01*
X62157143Y-62214286D01*
X62185715Y-62157143D01*
X62242857Y-62100000D01*
X62328572Y-62071429D01*
X62385715Y-62071429D01*
X62471429Y-62100000D01*
X62500000Y-62128571D01*
X62842857Y-62328571D02*
X62785715Y-62300000D01*
X62757143Y-62271429D01*
X62728572Y-62214286D01*
X62728572Y-62185714D01*
X62757143Y-62128571D01*
X62785715Y-62100000D01*
X62842857Y-62071429D01*
X62957143Y-62071429D01*
X63014286Y-62100000D01*
X63042857Y-62128571D01*
X63071429Y-62185714D01*
X63071429Y-62214286D01*
X63042857Y-62271429D01*
X63014286Y-62300000D01*
X62957143Y-62328571D01*
X62842857Y-62328571D01*
X62785715Y-62357143D01*
X62757143Y-62385714D01*
X62728572Y-62442857D01*
X62728572Y-62557143D01*
X62757143Y-62614286D01*
X62785715Y-62642857D01*
X62842857Y-62671429D01*
X62957143Y-62671429D01*
X63014286Y-62642857D01*
X63042857Y-62614286D01*
X63071429Y-62557143D01*
X63071429Y-62442857D01*
X63042857Y-62385714D01*
X63014286Y-62357143D01*
X62957143Y-62328571D01*
X62271429Y-62871429D02*
X62328572Y-62871429D01*
X62385715Y-62900000D01*
X62414286Y-62928571D01*
X62442857Y-62985714D01*
X62471429Y-63100000D01*
X62471429Y-63242857D01*
X62442857Y-63357143D01*
X62414286Y-63414286D01*
X62385715Y-63442857D01*
X62328572Y-63471429D01*
X62271429Y-63471429D01*
X62214286Y-63442857D01*
X62185715Y-63414286D01*
X62157143Y-63357143D01*
X62128572Y-63242857D01*
X62128572Y-63100000D01*
X62157143Y-62985714D01*
X62185715Y-62928571D01*
X62214286Y-62900000D01*
X62271429Y-62871429D01*
X62728572Y-63414286D02*
X62757144Y-63442857D01*
X62728572Y-63471429D01*
X62700001Y-63442857D01*
X62728572Y-63414286D01*
X62728572Y-63471429D01*
X63328572Y-63471429D02*
X62985715Y-63471429D01*
X63157143Y-63471429D02*
X63157143Y-62871429D01*
X63100000Y-62957143D01*
X63042858Y-63014286D01*
X62985715Y-63042857D01*
X63842858Y-63071429D02*
X63842858Y-63471429D01*
X63585715Y-63071429D02*
X63585715Y-63385714D01*
X63614287Y-63442857D01*
X63671429Y-63471429D01*
X63757144Y-63471429D01*
X63814287Y-63442857D01*
X63842858Y-63414286D01*
X62500000Y-61014286D02*
X62471429Y-61042857D01*
X62385715Y-61071429D01*
X62328572Y-61071429D01*
X62242857Y-61042857D01*
X62185715Y-60985714D01*
X62157143Y-60928571D01*
X62128572Y-60814286D01*
X62128572Y-60728571D01*
X62157143Y-60614286D01*
X62185715Y-60557143D01*
X62242857Y-60500000D01*
X62328572Y-60471429D01*
X62385715Y-60471429D01*
X62471429Y-60500000D01*
X62500000Y-60528571D01*
X62785715Y-61071429D02*
X62900000Y-61071429D01*
X62957143Y-61042857D01*
X62985715Y-61014286D01*
X63042857Y-60928571D01*
X63071429Y-60814286D01*
X63071429Y-60585714D01*
X63042857Y-60528571D01*
X63014286Y-60500000D01*
X62957143Y-60471429D01*
X62842857Y-60471429D01*
X62785715Y-60500000D01*
X62757143Y-60528571D01*
X62728572Y-60585714D01*
X62728572Y-60728571D01*
X62757143Y-60785714D01*
X62785715Y-60814286D01*
X62842857Y-60842857D01*
X62957143Y-60842857D01*
X63014286Y-60814286D01*
X63042857Y-60785714D01*
X63071429Y-60728571D01*
X62614286Y-61871429D02*
X62271429Y-61871429D01*
X62442857Y-61871429D02*
X62442857Y-61271429D01*
X62385714Y-61357143D01*
X62328572Y-61414286D01*
X62271429Y-61442857D01*
X62985715Y-61271429D02*
X63042858Y-61271429D01*
X63100001Y-61300000D01*
X63128572Y-61328571D01*
X63157143Y-61385714D01*
X63185715Y-61500000D01*
X63185715Y-61642857D01*
X63157143Y-61757143D01*
X63128572Y-61814286D01*
X63100001Y-61842857D01*
X63042858Y-61871429D01*
X62985715Y-61871429D01*
X62928572Y-61842857D01*
X62900001Y-61814286D01*
X62871429Y-61757143D01*
X62842858Y-61642857D01*
X62842858Y-61500000D01*
X62871429Y-61385714D01*
X62900001Y-61328571D01*
X62928572Y-61300000D01*
X62985715Y-61271429D01*
X63700001Y-61471429D02*
X63700001Y-61871429D01*
X63442858Y-61471429D02*
X63442858Y-61785714D01*
X63471430Y-61842857D01*
X63528572Y-61871429D01*
X63614287Y-61871429D01*
X63671430Y-61842857D01*
X63700001Y-61814286D01*
X111614285Y-70614286D02*
X111585714Y-70642857D01*
X111500000Y-70671429D01*
X111442857Y-70671429D01*
X111357142Y-70642857D01*
X111300000Y-70585714D01*
X111271428Y-70528571D01*
X111242857Y-70414286D01*
X111242857Y-70328571D01*
X111271428Y-70214286D01*
X111300000Y-70157143D01*
X111357142Y-70100000D01*
X111442857Y-70071429D01*
X111500000Y-70071429D01*
X111585714Y-70100000D01*
X111614285Y-70128571D01*
X112185714Y-70671429D02*
X111842857Y-70671429D01*
X112014285Y-70671429D02*
X112014285Y-70071429D01*
X111957142Y-70157143D01*
X111900000Y-70214286D01*
X111842857Y-70242857D01*
X112557143Y-70071429D02*
X112614286Y-70071429D01*
X112671429Y-70100000D01*
X112700000Y-70128571D01*
X112728571Y-70185714D01*
X112757143Y-70300000D01*
X112757143Y-70442857D01*
X112728571Y-70557143D01*
X112700000Y-70614286D01*
X112671429Y-70642857D01*
X112614286Y-70671429D01*
X112557143Y-70671429D01*
X112500000Y-70642857D01*
X112471429Y-70614286D01*
X112442857Y-70557143D01*
X112414286Y-70442857D01*
X112414286Y-70300000D01*
X112442857Y-70185714D01*
X112471429Y-70128571D01*
X112500000Y-70100000D01*
X112557143Y-70071429D01*
X111700000Y-71671429D02*
X111357143Y-71671429D01*
X111528571Y-71671429D02*
X111528571Y-71071429D01*
X111471428Y-71157143D01*
X111414286Y-71214286D01*
X111357143Y-71242857D01*
X112214286Y-71271429D02*
X112214286Y-71671429D01*
X111957143Y-71271429D02*
X111957143Y-71585714D01*
X111985715Y-71642857D01*
X112042857Y-71671429D01*
X112128572Y-71671429D01*
X112185715Y-71642857D01*
X112214286Y-71614286D01*
X95014286Y-73385715D02*
X95042857Y-73414286D01*
X95071429Y-73500000D01*
X95071429Y-73557143D01*
X95042857Y-73642858D01*
X94985714Y-73700000D01*
X94928571Y-73728572D01*
X94814286Y-73757143D01*
X94728571Y-73757143D01*
X94614286Y-73728572D01*
X94557143Y-73700000D01*
X94500000Y-73642858D01*
X94471429Y-73557143D01*
X94471429Y-73500000D01*
X94500000Y-73414286D01*
X94528571Y-73385715D01*
X95071429Y-72814286D02*
X95071429Y-73157143D01*
X95071429Y-72985715D02*
X94471429Y-72985715D01*
X94557143Y-73042858D01*
X94614286Y-73100000D01*
X94642857Y-73157143D01*
X95071429Y-72242857D02*
X95071429Y-72585714D01*
X95071429Y-72414286D02*
X94471429Y-72414286D01*
X94557143Y-72471429D01*
X94614286Y-72528571D01*
X94642857Y-72585714D01*
X95271429Y-73528571D02*
X95271429Y-73471428D01*
X95300000Y-73414285D01*
X95328571Y-73385714D01*
X95385714Y-73357143D01*
X95500000Y-73328571D01*
X95642857Y-73328571D01*
X95757143Y-73357143D01*
X95814286Y-73385714D01*
X95842857Y-73414285D01*
X95871429Y-73471428D01*
X95871429Y-73528571D01*
X95842857Y-73585714D01*
X95814286Y-73614285D01*
X95757143Y-73642857D01*
X95642857Y-73671428D01*
X95500000Y-73671428D01*
X95385714Y-73642857D01*
X95328571Y-73614285D01*
X95300000Y-73585714D01*
X95271429Y-73528571D01*
X95814286Y-73071428D02*
X95842857Y-73042856D01*
X95871429Y-73071428D01*
X95842857Y-73099999D01*
X95814286Y-73071428D01*
X95871429Y-73071428D01*
X95871429Y-72471428D02*
X95871429Y-72814285D01*
X95871429Y-72642857D02*
X95271429Y-72642857D01*
X95357143Y-72700000D01*
X95414286Y-72757142D01*
X95442857Y-72814285D01*
X95471429Y-71957142D02*
X95871429Y-71957142D01*
X95471429Y-72214285D02*
X95785714Y-72214285D01*
X95842857Y-72185713D01*
X95871429Y-72128571D01*
X95871429Y-72042856D01*
X95842857Y-71985713D01*
X95814286Y-71957142D01*
X103414285Y-70614286D02*
X103385714Y-70642857D01*
X103300000Y-70671429D01*
X103242857Y-70671429D01*
X103157142Y-70642857D01*
X103100000Y-70585714D01*
X103071428Y-70528571D01*
X103042857Y-70414286D01*
X103042857Y-70328571D01*
X103071428Y-70214286D01*
X103100000Y-70157143D01*
X103157142Y-70100000D01*
X103242857Y-70071429D01*
X103300000Y-70071429D01*
X103385714Y-70100000D01*
X103414285Y-70128571D01*
X103985714Y-70671429D02*
X103642857Y-70671429D01*
X103814285Y-70671429D02*
X103814285Y-70071429D01*
X103757142Y-70157143D01*
X103700000Y-70214286D01*
X103642857Y-70242857D01*
X104214286Y-70128571D02*
X104242857Y-70100000D01*
X104300000Y-70071429D01*
X104442857Y-70071429D01*
X104500000Y-70100000D01*
X104528571Y-70128571D01*
X104557143Y-70185714D01*
X104557143Y-70242857D01*
X104528571Y-70328571D01*
X104185714Y-70671429D01*
X104557143Y-70671429D01*
X104100000Y-71671429D02*
X103757143Y-71671429D01*
X103928571Y-71671429D02*
X103928571Y-71071429D01*
X103871428Y-71157143D01*
X103814286Y-71214286D01*
X103757143Y-71242857D01*
X104614286Y-71271429D02*
X104614286Y-71671429D01*
X104357143Y-71271429D02*
X104357143Y-71585714D01*
X104385715Y-71642857D01*
X104442857Y-71671429D01*
X104528572Y-71671429D01*
X104585715Y-71642857D01*
X104614286Y-71614286D01*
D13*
X64471175Y-64642443D02*
X63871735Y-64642443D01*
X63871735Y-64499719D01*
X63900280Y-64414085D01*
X63957370Y-64356996D01*
X64014459Y-64328451D01*
X64128638Y-64299906D01*
X64214272Y-64299906D01*
X64328451Y-64328451D01*
X64385541Y-64356996D01*
X64442630Y-64414085D01*
X64471175Y-64499719D01*
X64471175Y-64642443D01*
X64471175Y-63729011D02*
X64471175Y-64071548D01*
X64471175Y-63900279D02*
X63871735Y-63900279D01*
X63957370Y-63957369D01*
X64014459Y-64014458D01*
X64043004Y-64071548D01*
X65271175Y-68655595D02*
X64671735Y-68655595D01*
X65099907Y-68455782D01*
X64671735Y-68255969D01*
X65271175Y-68255969D01*
X64957183Y-67770708D02*
X64985728Y-67685074D01*
X65014272Y-67656529D01*
X65071362Y-67627984D01*
X65156996Y-67627984D01*
X65214086Y-67656529D01*
X65242630Y-67685074D01*
X65271175Y-67742163D01*
X65271175Y-67970521D01*
X64671735Y-67970521D01*
X64671735Y-67770708D01*
X64700280Y-67713618D01*
X64728825Y-67685074D01*
X64785914Y-67656529D01*
X64843004Y-67656529D01*
X64900093Y-67685074D01*
X64928638Y-67713618D01*
X64957183Y-67770708D01*
X64957183Y-67970521D01*
X65271175Y-67028544D02*
X64985728Y-67228357D01*
X65271175Y-67371081D02*
X64671735Y-67371081D01*
X64671735Y-67142723D01*
X64700280Y-67085634D01*
X64728825Y-67057089D01*
X64785914Y-67028544D01*
X64871549Y-67028544D01*
X64928638Y-67057089D01*
X64957183Y-67085634D01*
X64985728Y-67142723D01*
X64985728Y-67371081D01*
X64671735Y-66657462D02*
X64671735Y-66600373D01*
X64700280Y-66543283D01*
X64728825Y-66514738D01*
X64785914Y-66486194D01*
X64900093Y-66457649D01*
X65042817Y-66457649D01*
X65156996Y-66486194D01*
X65214086Y-66514738D01*
X65242630Y-66543283D01*
X65271175Y-66600373D01*
X65271175Y-66657462D01*
X65242630Y-66714552D01*
X65214086Y-66743096D01*
X65156996Y-66771641D01*
X65042817Y-66800186D01*
X64900093Y-66800186D01*
X64785914Y-66771641D01*
X64728825Y-66743096D01*
X64700280Y-66714552D01*
X64671735Y-66657462D01*
X64671735Y-65915299D02*
X64671735Y-66200746D01*
X64957183Y-66229291D01*
X64928638Y-66200746D01*
X64900093Y-66143657D01*
X64900093Y-66000933D01*
X64928638Y-65943843D01*
X64957183Y-65915299D01*
X65014272Y-65886754D01*
X65156996Y-65886754D01*
X65214086Y-65915299D01*
X65242630Y-65943843D01*
X65271175Y-66000933D01*
X65271175Y-66143657D01*
X65242630Y-66200746D01*
X65214086Y-66229291D01*
X64728825Y-65658396D02*
X64700280Y-65629851D01*
X64671735Y-65572762D01*
X64671735Y-65430038D01*
X64700280Y-65372948D01*
X64728825Y-65344404D01*
X64785914Y-65315859D01*
X64843004Y-65315859D01*
X64928638Y-65344404D01*
X65271175Y-65686941D01*
X65271175Y-65315859D01*
D11*
X81402381Y-67638095D02*
X80402381Y-67638095D01*
X80402381Y-67400000D01*
X80450000Y-67257142D01*
X80545238Y-67161904D01*
X80640476Y-67114285D01*
X80830952Y-67066666D01*
X80973810Y-67066666D01*
X81164286Y-67114285D01*
X81259524Y-67161904D01*
X81354762Y-67257142D01*
X81402381Y-67400000D01*
X81402381Y-67638095D01*
X81402381Y-66638095D02*
X80402381Y-66638095D01*
X80402381Y-66400000D01*
X80450000Y-66257142D01*
X80545238Y-66161904D01*
X80640476Y-66114285D01*
X80830952Y-66066666D01*
X80973810Y-66066666D01*
X81164286Y-66114285D01*
X81259524Y-66161904D01*
X81354762Y-66257142D01*
X81402381Y-66400000D01*
X81402381Y-66638095D01*
X81402381Y-65114285D02*
X81402381Y-65685714D01*
X81402381Y-65400000D02*
X80402381Y-65400000D01*
X80545238Y-65495238D01*
X80640476Y-65590476D01*
X80688095Y-65685714D01*
X64752381Y-70666666D02*
X64752381Y-71142857D01*
X63752381Y-71142857D01*
X64752381Y-69809523D02*
X64752381Y-70380952D01*
X64752381Y-70095238D02*
X63752381Y-70095238D01*
X63895238Y-70190476D01*
X63990476Y-70285714D01*
X64038095Y-70380952D01*
X53942857Y-85800000D02*
X53971429Y-85714286D01*
X53971429Y-85571429D01*
X53942857Y-85514286D01*
X53914286Y-85485715D01*
X53857143Y-85457143D01*
X53800000Y-85457143D01*
X53742857Y-85485715D01*
X53714286Y-85514286D01*
X53685714Y-85571429D01*
X53657143Y-85685715D01*
X53628571Y-85742857D01*
X53600000Y-85771429D01*
X53542857Y-85800000D01*
X53485714Y-85800000D01*
X53428571Y-85771429D01*
X53400000Y-85742857D01*
X53371429Y-85685715D01*
X53371429Y-85542857D01*
X53400000Y-85457143D01*
X53371429Y-85257143D02*
X53971429Y-85114286D01*
X53542857Y-85000000D01*
X53971429Y-84885714D01*
X53371429Y-84742857D01*
X53971429Y-84200000D02*
X53971429Y-84542857D01*
X53971429Y-84371429D02*
X53371429Y-84371429D01*
X53457143Y-84428572D01*
X53514286Y-84485714D01*
X53542857Y-84542857D01*
X56866667Y-81004762D02*
X57009524Y-81052381D01*
X57247620Y-81052381D01*
X57342858Y-81004762D01*
X57390477Y-80957143D01*
X57438096Y-80861905D01*
X57438096Y-80766667D01*
X57390477Y-80671429D01*
X57342858Y-80623810D01*
X57247620Y-80576190D01*
X57057143Y-80528571D01*
X56961905Y-80480952D01*
X56914286Y-80433333D01*
X56866667Y-80338095D01*
X56866667Y-80242857D01*
X56914286Y-80147619D01*
X56961905Y-80100000D01*
X57057143Y-80052381D01*
X57295239Y-80052381D01*
X57438096Y-80100000D01*
X57771429Y-80052381D02*
X58009524Y-81052381D01*
X58200001Y-80338095D01*
X58390477Y-81052381D01*
X58628572Y-80052381D01*
X58961905Y-80147619D02*
X59009524Y-80100000D01*
X59104762Y-80052381D01*
X59342858Y-80052381D01*
X59438096Y-80100000D01*
X59485715Y-80147619D01*
X59533334Y-80242857D01*
X59533334Y-80338095D01*
X59485715Y-80480952D01*
X58914286Y-81052381D01*
X59533334Y-81052381D01*
X67666667Y-81004762D02*
X67809524Y-81052381D01*
X68047620Y-81052381D01*
X68142858Y-81004762D01*
X68190477Y-80957143D01*
X68238096Y-80861905D01*
X68238096Y-80766667D01*
X68190477Y-80671429D01*
X68142858Y-80623810D01*
X68047620Y-80576190D01*
X67857143Y-80528571D01*
X67761905Y-80480952D01*
X67714286Y-80433333D01*
X67666667Y-80338095D01*
X67666667Y-80242857D01*
X67714286Y-80147619D01*
X67761905Y-80100000D01*
X67857143Y-80052381D01*
X68095239Y-80052381D01*
X68238096Y-80100000D01*
X68571429Y-80052381D02*
X68809524Y-81052381D01*
X69000001Y-80338095D01*
X69190477Y-81052381D01*
X69428572Y-80052381D01*
X69714286Y-80052381D02*
X70333334Y-80052381D01*
X70000000Y-80433333D01*
X70142858Y-80433333D01*
X70238096Y-80480952D01*
X70285715Y-80528571D01*
X70333334Y-80623810D01*
X70333334Y-80861905D01*
X70285715Y-80957143D01*
X70238096Y-81004762D01*
X70142858Y-81052381D01*
X69857143Y-81052381D01*
X69761905Y-81004762D01*
X69714286Y-80957143D01*
X77866667Y-81004762D02*
X78009524Y-81052381D01*
X78247620Y-81052381D01*
X78342858Y-81004762D01*
X78390477Y-80957143D01*
X78438096Y-80861905D01*
X78438096Y-80766667D01*
X78390477Y-80671429D01*
X78342858Y-80623810D01*
X78247620Y-80576190D01*
X78057143Y-80528571D01*
X77961905Y-80480952D01*
X77914286Y-80433333D01*
X77866667Y-80338095D01*
X77866667Y-80242857D01*
X77914286Y-80147619D01*
X77961905Y-80100000D01*
X78057143Y-80052381D01*
X78295239Y-80052381D01*
X78438096Y-80100000D01*
X78771429Y-80052381D02*
X79009524Y-81052381D01*
X79200001Y-80338095D01*
X79390477Y-81052381D01*
X79628572Y-80052381D01*
X80438096Y-80385714D02*
X80438096Y-81052381D01*
X80200000Y-80004762D02*
X79961905Y-80719048D01*
X80580953Y-80719048D01*
X112238095Y-88452381D02*
X112238095Y-89261905D01*
X112285714Y-89357143D01*
X112333333Y-89404762D01*
X112428571Y-89452381D01*
X112619048Y-89452381D01*
X112714286Y-89404762D01*
X112761905Y-89357143D01*
X112809524Y-89261905D01*
X112809524Y-88452381D01*
X113809524Y-89452381D02*
X113238095Y-89452381D01*
X113523809Y-89452381D02*
X113523809Y-88452381D01*
X113428571Y-88595238D01*
X113333333Y-88690476D01*
X113238095Y-88738095D01*
X106335714Y-39852381D02*
X107002381Y-40852381D01*
X107002381Y-39852381D02*
X106335714Y-40852381D01*
X107859524Y-40852381D02*
X107383333Y-40852381D01*
X107383333Y-39852381D01*
X108145238Y-39947619D02*
X108192857Y-39900000D01*
X108288095Y-39852381D01*
X108526191Y-39852381D01*
X108621429Y-39900000D01*
X108669048Y-39947619D01*
X108716667Y-40042857D01*
X108716667Y-40138095D01*
X108669048Y-40280952D01*
X108097619Y-40852381D01*
X108716667Y-40852381D01*
X111300000Y-57288095D02*
X111252381Y-57383333D01*
X111252381Y-57526190D01*
X111300000Y-57669048D01*
X111395238Y-57764286D01*
X111490476Y-57811905D01*
X111680952Y-57859524D01*
X111823810Y-57859524D01*
X112014286Y-57811905D01*
X112109524Y-57764286D01*
X112204762Y-57669048D01*
X112252381Y-57526190D01*
X112252381Y-57430952D01*
X112204762Y-57288095D01*
X112157143Y-57240476D01*
X111823810Y-57240476D01*
X111823810Y-57430952D01*
X112252381Y-56811905D02*
X111252381Y-56811905D01*
X111252381Y-56573810D01*
X111300000Y-56430952D01*
X111395238Y-56335714D01*
X111490476Y-56288095D01*
X111680952Y-56240476D01*
X111823810Y-56240476D01*
X112014286Y-56288095D01*
X112109524Y-56335714D01*
X112204762Y-56430952D01*
X112252381Y-56573810D01*
X112252381Y-56811905D01*
X111252381Y-55621429D02*
X111252381Y-55430952D01*
X111300000Y-55335714D01*
X111395238Y-55240476D01*
X111585714Y-55192857D01*
X111919048Y-55192857D01*
X112109524Y-55240476D01*
X112204762Y-55335714D01*
X112252381Y-55430952D01*
X112252381Y-55621429D01*
X112204762Y-55716667D01*
X112109524Y-55811905D01*
X111919048Y-55859524D01*
X111585714Y-55859524D01*
X111395238Y-55811905D01*
X111300000Y-55716667D01*
X111252381Y-55621429D01*
X111252381Y-54573810D02*
X111252381Y-54478571D01*
X111300000Y-54383333D01*
X111347619Y-54335714D01*
X111442857Y-54288095D01*
X111633333Y-54240476D01*
X111871429Y-54240476D01*
X112061905Y-54288095D01*
X112157143Y-54335714D01*
X112204762Y-54383333D01*
X112252381Y-54478571D01*
X112252381Y-54573810D01*
X112204762Y-54669048D01*
X112157143Y-54716667D01*
X112061905Y-54764286D01*
X111871429Y-54811905D01*
X111633333Y-54811905D01*
X111442857Y-54764286D01*
X111347619Y-54716667D01*
X111300000Y-54669048D01*
X111252381Y-54573810D01*
X109502381Y-57621428D02*
X108502381Y-57621428D01*
X109216667Y-57288094D01*
X108502381Y-56954761D01*
X109502381Y-56954761D01*
X109502381Y-56478571D02*
X108502381Y-56478571D01*
X109454762Y-56050000D02*
X109502381Y-55907143D01*
X109502381Y-55669047D01*
X109454762Y-55573809D01*
X109407143Y-55526190D01*
X109311905Y-55478571D01*
X109216667Y-55478571D01*
X109121429Y-55526190D01*
X109073810Y-55573809D01*
X109026190Y-55669047D01*
X108978571Y-55859524D01*
X108930952Y-55954762D01*
X108883333Y-56002381D01*
X108788095Y-56050000D01*
X108692857Y-56050000D01*
X108597619Y-56002381D01*
X108550000Y-55954762D01*
X108502381Y-55859524D01*
X108502381Y-55621428D01*
X108550000Y-55478571D01*
X108502381Y-54859524D02*
X108502381Y-54669047D01*
X108550000Y-54573809D01*
X108645238Y-54478571D01*
X108835714Y-54430952D01*
X109169048Y-54430952D01*
X109359524Y-54478571D01*
X109454762Y-54573809D01*
X109502381Y-54669047D01*
X109502381Y-54859524D01*
X109454762Y-54954762D01*
X109359524Y-55050000D01*
X109169048Y-55097619D01*
X108835714Y-55097619D01*
X108645238Y-55050000D01*
X108550000Y-54954762D01*
X108502381Y-54859524D01*
X106752381Y-57621428D02*
X105752381Y-57621428D01*
X106466667Y-57288094D01*
X105752381Y-56954761D01*
X106752381Y-56954761D01*
X105752381Y-56288095D02*
X105752381Y-56097618D01*
X105800000Y-56002380D01*
X105895238Y-55907142D01*
X106085714Y-55859523D01*
X106419048Y-55859523D01*
X106609524Y-55907142D01*
X106704762Y-56002380D01*
X106752381Y-56097618D01*
X106752381Y-56288095D01*
X106704762Y-56383333D01*
X106609524Y-56478571D01*
X106419048Y-56526190D01*
X106085714Y-56526190D01*
X105895238Y-56478571D01*
X105800000Y-56383333D01*
X105752381Y-56288095D01*
X106704762Y-55478571D02*
X106752381Y-55335714D01*
X106752381Y-55097618D01*
X106704762Y-55002380D01*
X106657143Y-54954761D01*
X106561905Y-54907142D01*
X106466667Y-54907142D01*
X106371429Y-54954761D01*
X106323810Y-55002380D01*
X106276190Y-55097618D01*
X106228571Y-55288095D01*
X106180952Y-55383333D01*
X106133333Y-55430952D01*
X106038095Y-55478571D01*
X105942857Y-55478571D01*
X105847619Y-55430952D01*
X105800000Y-55383333D01*
X105752381Y-55288095D01*
X105752381Y-55049999D01*
X105800000Y-54907142D01*
X106752381Y-54478571D02*
X105752381Y-54478571D01*
X112157143Y-52490476D02*
X112204762Y-52538095D01*
X112252381Y-52680952D01*
X112252381Y-52776190D01*
X112204762Y-52919048D01*
X112109524Y-53014286D01*
X112014286Y-53061905D01*
X111823810Y-53109524D01*
X111680952Y-53109524D01*
X111490476Y-53061905D01*
X111395238Y-53014286D01*
X111300000Y-52919048D01*
X111252381Y-52776190D01*
X111252381Y-52680952D01*
X111300000Y-52538095D01*
X111347619Y-52490476D01*
X112204762Y-52109524D02*
X112252381Y-51966667D01*
X112252381Y-51728571D01*
X112204762Y-51633333D01*
X112157143Y-51585714D01*
X112061905Y-51538095D01*
X111966667Y-51538095D01*
X111871429Y-51585714D01*
X111823810Y-51633333D01*
X111776190Y-51728571D01*
X111728571Y-51919048D01*
X111680952Y-52014286D01*
X111633333Y-52061905D01*
X111538095Y-52109524D01*
X111442857Y-52109524D01*
X111347619Y-52061905D01*
X111300000Y-52014286D01*
X111252381Y-51919048D01*
X111252381Y-51680952D01*
X111300000Y-51538095D01*
X112252381Y-51109524D02*
X111252381Y-51109524D01*
X112252381Y-50538095D01*
X111252381Y-50538095D01*
X108550000Y-53038095D02*
X108502381Y-53133333D01*
X108502381Y-53276190D01*
X108550000Y-53419048D01*
X108645238Y-53514286D01*
X108740476Y-53561905D01*
X108930952Y-53609524D01*
X109073810Y-53609524D01*
X109264286Y-53561905D01*
X109359524Y-53514286D01*
X109454762Y-53419048D01*
X109502381Y-53276190D01*
X109502381Y-53180952D01*
X109454762Y-53038095D01*
X109407143Y-52990476D01*
X109073810Y-52990476D01*
X109073810Y-53180952D01*
X109502381Y-52561905D02*
X108502381Y-52561905D01*
X108502381Y-52323810D01*
X108550000Y-52180952D01*
X108645238Y-52085714D01*
X108740476Y-52038095D01*
X108930952Y-51990476D01*
X109073810Y-51990476D01*
X109264286Y-52038095D01*
X109359524Y-52085714D01*
X109454762Y-52180952D01*
X109502381Y-52323810D01*
X109502381Y-52561905D01*
X108502381Y-51371429D02*
X108502381Y-51180952D01*
X108550000Y-51085714D01*
X108645238Y-50990476D01*
X108835714Y-50942857D01*
X109169048Y-50942857D01*
X109359524Y-50990476D01*
X109454762Y-51085714D01*
X109502381Y-51180952D01*
X109502381Y-51371429D01*
X109454762Y-51466667D01*
X109359524Y-51561905D01*
X109169048Y-51609524D01*
X108835714Y-51609524D01*
X108645238Y-51561905D01*
X108550000Y-51466667D01*
X108502381Y-51371429D01*
X108597619Y-50561905D02*
X108550000Y-50514286D01*
X108502381Y-50419048D01*
X108502381Y-50180952D01*
X108550000Y-50085714D01*
X108597619Y-50038095D01*
X108692857Y-49990476D01*
X108788095Y-49990476D01*
X108930952Y-50038095D01*
X109502381Y-50609524D01*
X109502381Y-49990476D01*
X106704762Y-53085714D02*
X106752381Y-52942857D01*
X106752381Y-52704761D01*
X106704762Y-52609523D01*
X106657143Y-52561904D01*
X106561905Y-52514285D01*
X106466667Y-52514285D01*
X106371429Y-52561904D01*
X106323810Y-52609523D01*
X106276190Y-52704761D01*
X106228571Y-52895238D01*
X106180952Y-52990476D01*
X106133333Y-53038095D01*
X106038095Y-53085714D01*
X105942857Y-53085714D01*
X105847619Y-53038095D01*
X105800000Y-52990476D01*
X105752381Y-52895238D01*
X105752381Y-52657142D01*
X105800000Y-52514285D01*
X106657143Y-51514285D02*
X106704762Y-51561904D01*
X106752381Y-51704761D01*
X106752381Y-51799999D01*
X106704762Y-51942857D01*
X106609524Y-52038095D01*
X106514286Y-52085714D01*
X106323810Y-52133333D01*
X106180952Y-52133333D01*
X105990476Y-52085714D01*
X105895238Y-52038095D01*
X105800000Y-51942857D01*
X105752381Y-51799999D01*
X105752381Y-51704761D01*
X105800000Y-51561904D01*
X105847619Y-51514285D01*
X106752381Y-51085714D02*
X105752381Y-51085714D01*
X106752381Y-50514285D02*
X106180952Y-50942857D01*
X105752381Y-50514285D02*
X106323810Y-51085714D01*
X103002381Y-53133333D02*
X104002381Y-52800000D01*
X103002381Y-52466666D01*
X103907143Y-51561904D02*
X103954762Y-51609523D01*
X104002381Y-51752380D01*
X104002381Y-51847618D01*
X103954762Y-51990476D01*
X103859524Y-52085714D01*
X103764286Y-52133333D01*
X103573810Y-52180952D01*
X103430952Y-52180952D01*
X103240476Y-52133333D01*
X103145238Y-52085714D01*
X103050000Y-51990476D01*
X103002381Y-51847618D01*
X103002381Y-51752380D01*
X103050000Y-51609523D01*
X103097619Y-51561904D01*
X103907143Y-50561904D02*
X103954762Y-50609523D01*
X104002381Y-50752380D01*
X104002381Y-50847618D01*
X103954762Y-50990476D01*
X103859524Y-51085714D01*
X103764286Y-51133333D01*
X103573810Y-51180952D01*
X103430952Y-51180952D01*
X103240476Y-51133333D01*
X103145238Y-51085714D01*
X103050000Y-50990476D01*
X103002381Y-50847618D01*
X103002381Y-50752380D01*
X103050000Y-50609523D01*
X103097619Y-50561904D01*
X103050000Y-57061904D02*
X103002381Y-57157142D01*
X103002381Y-57299999D01*
X103050000Y-57442857D01*
X103145238Y-57538095D01*
X103240476Y-57585714D01*
X103430952Y-57633333D01*
X103573810Y-57633333D01*
X103764286Y-57585714D01*
X103859524Y-57538095D01*
X103954762Y-57442857D01*
X104002381Y-57299999D01*
X104002381Y-57204761D01*
X103954762Y-57061904D01*
X103907143Y-57014285D01*
X103573810Y-57014285D01*
X103573810Y-57204761D01*
X104002381Y-56585714D02*
X103002381Y-56585714D01*
X104002381Y-56014285D01*
X103002381Y-56014285D01*
X104002381Y-55538095D02*
X103002381Y-55538095D01*
X103002381Y-55300000D01*
X103050000Y-55157142D01*
X103145238Y-55061904D01*
X103240476Y-55014285D01*
X103430952Y-54966666D01*
X103573810Y-54966666D01*
X103764286Y-55014285D01*
X103859524Y-55061904D01*
X103954762Y-55157142D01*
X104002381Y-55300000D01*
X104002381Y-55538095D01*
X98671429Y-89928572D02*
X99271429Y-89528572D01*
X98671429Y-89528572D02*
X99271429Y-89928572D01*
X99271429Y-89014286D02*
X99271429Y-89300000D01*
X98671429Y-89300000D01*
X98671429Y-88871429D02*
X98671429Y-88500000D01*
X98900000Y-88700000D01*
X98900000Y-88614286D01*
X98928571Y-88557143D01*
X98957143Y-88528572D01*
X99014286Y-88500000D01*
X99157143Y-88500000D01*
X99214286Y-88528572D01*
X99242857Y-88557143D01*
X99271429Y-88614286D01*
X99271429Y-88785714D01*
X99242857Y-88842857D01*
X99214286Y-88871429D01*
X95471429Y-81928572D02*
X96071429Y-81528572D01*
X95471429Y-81528572D02*
X96071429Y-81928572D01*
X96071429Y-81014286D02*
X96071429Y-81300000D01*
X95471429Y-81300000D01*
X95471429Y-80528572D02*
X95471429Y-80814286D01*
X95757143Y-80842857D01*
X95728571Y-80814286D01*
X95700000Y-80757143D01*
X95700000Y-80614286D01*
X95728571Y-80557143D01*
X95757143Y-80528572D01*
X95814286Y-80500000D01*
X95957143Y-80500000D01*
X96014286Y-80528572D01*
X96042857Y-80557143D01*
X96071429Y-80614286D01*
X96071429Y-80757143D01*
X96042857Y-80814286D01*
X96014286Y-80842857D01*
X94502381Y-90264285D02*
X94502381Y-90835714D01*
X94502381Y-90550000D02*
X93502381Y-90550000D01*
X93645238Y-90645238D01*
X93740476Y-90740476D01*
X93788095Y-90835714D01*
X88871429Y-89728572D02*
X89471429Y-89328572D01*
X88871429Y-89328572D02*
X89471429Y-89728572D01*
X89471429Y-88814286D02*
X89471429Y-89100000D01*
X88871429Y-89100000D01*
X88871429Y-88357143D02*
X88871429Y-88471429D01*
X88900000Y-88528572D01*
X88928571Y-88557143D01*
X89014286Y-88614286D01*
X89128571Y-88642857D01*
X89357143Y-88642857D01*
X89414286Y-88614286D01*
X89442857Y-88585714D01*
X89471429Y-88528572D01*
X89471429Y-88414286D01*
X89442857Y-88357143D01*
X89414286Y-88328572D01*
X89357143Y-88300000D01*
X89214286Y-88300000D01*
X89157143Y-88328572D01*
X89128571Y-88357143D01*
X89100000Y-88414286D01*
X89100000Y-88528572D01*
X89128571Y-88585714D01*
X89157143Y-88614286D01*
X89214286Y-88642857D01*
X91502381Y-90264285D02*
X91502381Y-90835714D01*
X91502381Y-90550000D02*
X90502381Y-90550000D01*
X90645238Y-90645238D01*
X90740476Y-90740476D01*
X90788095Y-90835714D01*
X58452381Y-68166667D02*
X57452381Y-68166667D01*
X57452381Y-67928572D01*
X57500000Y-67785714D01*
X57595238Y-67690476D01*
X57690476Y-67642857D01*
X57880952Y-67595238D01*
X58023810Y-67595238D01*
X58214286Y-67642857D01*
X58309524Y-67690476D01*
X58404762Y-67785714D01*
X58452381Y-67928572D01*
X58452381Y-68166667D01*
X58166667Y-67214286D02*
X58166667Y-66738095D01*
X58452381Y-67309524D02*
X57452381Y-66976191D01*
X58452381Y-66642857D01*
X58452381Y-65785714D02*
X58452381Y-66357143D01*
X58452381Y-66071429D02*
X57452381Y-66071429D01*
X57595238Y-66166667D01*
X57690476Y-66261905D01*
X57738095Y-66357143D01*
X96671429Y-77700000D02*
X96385714Y-77900000D01*
X96671429Y-78042857D02*
X96071429Y-78042857D01*
X96071429Y-77814285D01*
X96100000Y-77757143D01*
X96128571Y-77728571D01*
X96185714Y-77700000D01*
X96271429Y-77700000D01*
X96328571Y-77728571D01*
X96357143Y-77757143D01*
X96385714Y-77814285D01*
X96385714Y-78042857D01*
X96671429Y-77128571D02*
X96671429Y-77471428D01*
X96671429Y-77300000D02*
X96071429Y-77300000D01*
X96157143Y-77357143D01*
X96214286Y-77414285D01*
X96242857Y-77471428D01*
X97471429Y-78157143D02*
X97471429Y-78500000D01*
X97471429Y-78328572D02*
X96871429Y-78328572D01*
X96957143Y-78385715D01*
X97014286Y-78442857D01*
X97042857Y-78500000D01*
X96871429Y-77785714D02*
X96871429Y-77728571D01*
X96900000Y-77671428D01*
X96928571Y-77642857D01*
X96985714Y-77614286D01*
X97100000Y-77585714D01*
X97242857Y-77585714D01*
X97357143Y-77614286D01*
X97414286Y-77642857D01*
X97442857Y-77671428D01*
X97471429Y-77728571D01*
X97471429Y-77785714D01*
X97442857Y-77842857D01*
X97414286Y-77871428D01*
X97357143Y-77900000D01*
X97242857Y-77928571D01*
X97100000Y-77928571D01*
X96985714Y-77900000D01*
X96928571Y-77871428D01*
X96900000Y-77842857D01*
X96871429Y-77785714D01*
X97471429Y-77328571D02*
X96871429Y-77328571D01*
X97242857Y-77271428D02*
X97471429Y-77099999D01*
X97071429Y-77099999D02*
X97300000Y-77328571D01*
X69071429Y-76000000D02*
X68785714Y-76200000D01*
X69071429Y-76342857D02*
X68471429Y-76342857D01*
X68471429Y-76114285D01*
X68500000Y-76057143D01*
X68528571Y-76028571D01*
X68585714Y-76000000D01*
X68671429Y-76000000D01*
X68728571Y-76028571D01*
X68757143Y-76057143D01*
X68785714Y-76114285D01*
X68785714Y-76342857D01*
X68528571Y-75771428D02*
X68500000Y-75742857D01*
X68471429Y-75685714D01*
X68471429Y-75542857D01*
X68500000Y-75485714D01*
X68528571Y-75457143D01*
X68585714Y-75428571D01*
X68642857Y-75428571D01*
X68728571Y-75457143D01*
X69071429Y-75800000D01*
X69071429Y-75428571D01*
X68271429Y-76007143D02*
X68271429Y-76350000D01*
X68271429Y-76178572D02*
X67671429Y-76178572D01*
X67757143Y-76235715D01*
X67814286Y-76292857D01*
X67842857Y-76350000D01*
X67671429Y-75635714D02*
X67671429Y-75578571D01*
X67700000Y-75521428D01*
X67728571Y-75492857D01*
X67785714Y-75464286D01*
X67900000Y-75435714D01*
X68042857Y-75435714D01*
X68157143Y-75464286D01*
X68214286Y-75492857D01*
X68242857Y-75521428D01*
X68271429Y-75578571D01*
X68271429Y-75635714D01*
X68242857Y-75692857D01*
X68214286Y-75721428D01*
X68157143Y-75750000D01*
X68042857Y-75778571D01*
X67900000Y-75778571D01*
X67785714Y-75750000D01*
X67728571Y-75721428D01*
X67700000Y-75692857D01*
X67671429Y-75635714D01*
X68271429Y-75178571D02*
X67671429Y-75178571D01*
X68042857Y-75121428D02*
X68271429Y-74949999D01*
X67871429Y-74949999D02*
X68100000Y-75178571D01*
X66471429Y-69700000D02*
X66185714Y-69900000D01*
X66471429Y-70042857D02*
X65871429Y-70042857D01*
X65871429Y-69814285D01*
X65900000Y-69757143D01*
X65928571Y-69728571D01*
X65985714Y-69700000D01*
X66071429Y-69700000D01*
X66128571Y-69728571D01*
X66157143Y-69757143D01*
X66185714Y-69814285D01*
X66185714Y-70042857D01*
X65871429Y-69500000D02*
X65871429Y-69128571D01*
X66100000Y-69328571D01*
X66100000Y-69242857D01*
X66128571Y-69185714D01*
X66157143Y-69157143D01*
X66214286Y-69128571D01*
X66357143Y-69128571D01*
X66414286Y-69157143D01*
X66442857Y-69185714D01*
X66471429Y-69242857D01*
X66471429Y-69414285D01*
X66442857Y-69471428D01*
X66414286Y-69500000D01*
X67271429Y-69757143D02*
X67271429Y-70100000D01*
X67271429Y-69928572D02*
X66671429Y-69928572D01*
X66757143Y-69985715D01*
X66814286Y-70042857D01*
X66842857Y-70100000D01*
X66671429Y-69385714D02*
X66671429Y-69328571D01*
X66700000Y-69271428D01*
X66728571Y-69242857D01*
X66785714Y-69214286D01*
X66900000Y-69185714D01*
X67042857Y-69185714D01*
X67157143Y-69214286D01*
X67214286Y-69242857D01*
X67242857Y-69271428D01*
X67271429Y-69328571D01*
X67271429Y-69385714D01*
X67242857Y-69442857D01*
X67214286Y-69471428D01*
X67157143Y-69500000D01*
X67042857Y-69528571D01*
X66900000Y-69528571D01*
X66785714Y-69500000D01*
X66728571Y-69471428D01*
X66700000Y-69442857D01*
X66671429Y-69385714D01*
X67271429Y-68928571D02*
X66671429Y-68928571D01*
X67042857Y-68871428D02*
X67271429Y-68699999D01*
X66871429Y-68699999D02*
X67100000Y-68928571D01*
X98271429Y-73300000D02*
X97985714Y-73500000D01*
X98271429Y-73642857D02*
X97671429Y-73642857D01*
X97671429Y-73414285D01*
X97700000Y-73357143D01*
X97728571Y-73328571D01*
X97785714Y-73300000D01*
X97871429Y-73300000D01*
X97928571Y-73328571D01*
X97957143Y-73357143D01*
X97985714Y-73414285D01*
X97985714Y-73642857D01*
X97871429Y-72785714D02*
X98271429Y-72785714D01*
X97642857Y-72928571D02*
X98071429Y-73071428D01*
X98071429Y-72700000D01*
X99071429Y-73357143D02*
X99071429Y-73700000D01*
X99071429Y-73528572D02*
X98471429Y-73528572D01*
X98557143Y-73585715D01*
X98614286Y-73642857D01*
X98642857Y-73700000D01*
X98471429Y-72985714D02*
X98471429Y-72928571D01*
X98500000Y-72871428D01*
X98528571Y-72842857D01*
X98585714Y-72814286D01*
X98700000Y-72785714D01*
X98842857Y-72785714D01*
X98957143Y-72814286D01*
X99014286Y-72842857D01*
X99042857Y-72871428D01*
X99071429Y-72928571D01*
X99071429Y-72985714D01*
X99042857Y-73042857D01*
X99014286Y-73071428D01*
X98957143Y-73100000D01*
X98842857Y-73128571D01*
X98700000Y-73128571D01*
X98585714Y-73100000D01*
X98528571Y-73071428D01*
X98500000Y-73042857D01*
X98471429Y-72985714D01*
X99071429Y-72528571D02*
X98471429Y-72528571D01*
X98842857Y-72471428D02*
X99071429Y-72299999D01*
X98671429Y-72299999D02*
X98900000Y-72528571D01*
X100071429Y-77700000D02*
X99785714Y-77900000D01*
X100071429Y-78042857D02*
X99471429Y-78042857D01*
X99471429Y-77814285D01*
X99500000Y-77757143D01*
X99528571Y-77728571D01*
X99585714Y-77700000D01*
X99671429Y-77700000D01*
X99728571Y-77728571D01*
X99757143Y-77757143D01*
X99785714Y-77814285D01*
X99785714Y-78042857D01*
X99471429Y-77157143D02*
X99471429Y-77442857D01*
X99757143Y-77471428D01*
X99728571Y-77442857D01*
X99700000Y-77385714D01*
X99700000Y-77242857D01*
X99728571Y-77185714D01*
X99757143Y-77157143D01*
X99814286Y-77128571D01*
X99957143Y-77128571D01*
X100014286Y-77157143D01*
X100042857Y-77185714D01*
X100071429Y-77242857D01*
X100071429Y-77385714D01*
X100042857Y-77442857D01*
X100014286Y-77471428D01*
X100871429Y-78157143D02*
X100871429Y-78500000D01*
X100871429Y-78328572D02*
X100271429Y-78328572D01*
X100357143Y-78385715D01*
X100414286Y-78442857D01*
X100442857Y-78500000D01*
X100271429Y-77785714D02*
X100271429Y-77728571D01*
X100300000Y-77671428D01*
X100328571Y-77642857D01*
X100385714Y-77614286D01*
X100500000Y-77585714D01*
X100642857Y-77585714D01*
X100757143Y-77614286D01*
X100814286Y-77642857D01*
X100842857Y-77671428D01*
X100871429Y-77728571D01*
X100871429Y-77785714D01*
X100842857Y-77842857D01*
X100814286Y-77871428D01*
X100757143Y-77900000D01*
X100642857Y-77928571D01*
X100500000Y-77928571D01*
X100385714Y-77900000D01*
X100328571Y-77871428D01*
X100300000Y-77842857D01*
X100271429Y-77785714D01*
X100871429Y-77328571D02*
X100271429Y-77328571D01*
X100642857Y-77271428D02*
X100871429Y-77099999D01*
X100471429Y-77099999D02*
X100700000Y-77328571D01*
M02*
