G04 #@! TF.FileFunction,Soldermask,Top*
%FSLAX46Y46*%
G04 Gerber Fmt 4.6, Leading zero omitted, Abs format (unit mm)*
G04 Created by KiCad (PCBNEW 4.0.2-stable) date 22/10/2018 19:31:19*
%MOMM*%
G01*
G04 APERTURE LIST*
%ADD10C,0.100000*%
%ADD11R,1.924000X1.924000*%
%ADD12O,1.900000X1.900000*%
%ADD13R,1.900000X1.900000*%
%ADD14C,1.900000*%
%ADD15R,1.289000X1.416000*%
%ADD16R,1.416000X1.289000*%
%ADD17R,1.400760X1.400760*%
%ADD18R,0.650000X1.100000*%
%ADD19R,1.100000X0.650000*%
%ADD20R,2.125000X2.125000*%
%ADD21R,2.550000X5.900000*%
%ADD22C,1.600000*%
%ADD23C,2.400000*%
%ADD24C,2.200000*%
%ADD25O,3.000000X4.100000*%
%ADD26C,2.100000*%
%ADD27R,2.100000X2.100000*%
%ADD28O,2.100000X2.100000*%
%ADD29R,1.050000X1.960000*%
%ADD30R,1.400000X1.300000*%
%ADD31R,2.400000X2.400000*%
G04 APERTURE END LIST*
D10*
D11*
X65910000Y-39070000D03*
D12*
X68450000Y-39070000D03*
X70990000Y-39070000D03*
X73530000Y-39070000D03*
X76070000Y-39070000D03*
X78610000Y-39070000D03*
X81150000Y-39070000D03*
X83690000Y-39070000D03*
D13*
X65910000Y-78440000D03*
D14*
X68450000Y-78440000D03*
X70990000Y-78440000D03*
X73530000Y-78440000D03*
X76070000Y-78440000D03*
X78610000Y-78440000D03*
X81150000Y-78440000D03*
X83690000Y-78440000D03*
D15*
X58038000Y-78600000D03*
X59562000Y-78600000D03*
X58038000Y-76800000D03*
X59562000Y-76800000D03*
D16*
X77600000Y-60562000D03*
X77600000Y-59038000D03*
X79200000Y-60562000D03*
X79200000Y-59038000D03*
X68200000Y-69488000D03*
X68200000Y-71012000D03*
X70400000Y-62762000D03*
X70400000Y-61238000D03*
X68800000Y-62762000D03*
X68800000Y-61238000D03*
D15*
X61162000Y-62800000D03*
X59638000Y-62800000D03*
X61162000Y-61200000D03*
X59638000Y-61200000D03*
X110362000Y-71000000D03*
X108838000Y-71000000D03*
D16*
X95200000Y-74638000D03*
X95200000Y-76162000D03*
D15*
X105638000Y-71000000D03*
X107162000Y-71000000D03*
D17*
X63600000Y-65699520D03*
X63600000Y-68300480D03*
D18*
X78950000Y-64000000D03*
X78450000Y-64000000D03*
X77950000Y-64000000D03*
X77450000Y-64000000D03*
X76950000Y-64000000D03*
X76450000Y-64000000D03*
X75950000Y-64000000D03*
X75450000Y-64000000D03*
D19*
X74800000Y-64650000D03*
X74800000Y-65150000D03*
X74800000Y-65650000D03*
X74800000Y-66150000D03*
X74800000Y-66650000D03*
X74800000Y-67150000D03*
X74800000Y-67650000D03*
X74800000Y-68150000D03*
D18*
X75450000Y-68800000D03*
X75950000Y-68800000D03*
X76450000Y-68800000D03*
X76950000Y-68800000D03*
X77450000Y-68800000D03*
X77950000Y-68800000D03*
X78450000Y-68800000D03*
X78950000Y-68800000D03*
D19*
X79600000Y-68150000D03*
X79600000Y-67650000D03*
X79600000Y-67150000D03*
X79600000Y-66650000D03*
X79600000Y-66150000D03*
X79600000Y-65650000D03*
X79600000Y-65150000D03*
X79600000Y-64650000D03*
D20*
X76337500Y-67262500D03*
X78062500Y-67262500D03*
X76337500Y-65537500D03*
X78062500Y-65537500D03*
D21*
X62300000Y-72800000D03*
X58500000Y-72800000D03*
D22*
X55000000Y-82500000D03*
X55000000Y-85000000D03*
X55000000Y-87500000D03*
D23*
X60300000Y-82300000D03*
X66800000Y-82300000D03*
X60300000Y-86800000D03*
X66800000Y-86800000D03*
X70800000Y-82300000D03*
X77300000Y-82300000D03*
X70800000Y-86800000D03*
X77300000Y-86800000D03*
X81050000Y-82300000D03*
X87550000Y-82300000D03*
X81050000Y-86800000D03*
X87550000Y-86800000D03*
D24*
X107800000Y-73800000D03*
X110350000Y-73800000D03*
X105250000Y-73800000D03*
X110300000Y-88300000D03*
X105300000Y-88300000D03*
D25*
X113650000Y-81300000D03*
X101950000Y-81300000D03*
D26*
X103770000Y-62050000D03*
D27*
X103770000Y-64590000D03*
D28*
X106310000Y-62050000D03*
X106310000Y-64590000D03*
X108850000Y-62050000D03*
X108850000Y-64590000D03*
X111390000Y-62050000D03*
X111390000Y-64590000D03*
D13*
X97050000Y-88550000D03*
D14*
X97050000Y-86010000D03*
D13*
X94050000Y-88550000D03*
D14*
X94050000Y-86010000D03*
X94050000Y-83470000D03*
X94050000Y-80930000D03*
D13*
X91050000Y-88550000D03*
D14*
X91050000Y-86010000D03*
X91050000Y-83470000D03*
D29*
X61350000Y-65650000D03*
X60400000Y-65650000D03*
X59450000Y-65650000D03*
X59450000Y-68350000D03*
X61350000Y-68350000D03*
D30*
X96800000Y-74650000D03*
X96800000Y-76150000D03*
X66600000Y-75550000D03*
X66600000Y-74050000D03*
X66600000Y-72550000D03*
X66600000Y-71050000D03*
X98400000Y-74650000D03*
X98400000Y-76150000D03*
X100000000Y-74650000D03*
X100000000Y-76150000D03*
D31*
X116800000Y-71550000D03*
D23*
X55300000Y-71550000D03*
M02*
