G04 #@! TF.FileFunction,Soldermask,Bot*
%FSLAX46Y46*%
G04 Gerber Fmt 4.6, Leading zero omitted, Abs format (unit mm)*
G04 Created by KiCad (PCBNEW 4.0.2-stable) date 22/10/2018 19:31:19*
%MOMM*%
G01*
G04 APERTURE LIST*
%ADD10C,0.100000*%
%ADD11R,1.924000X1.924000*%
%ADD12O,1.900000X1.900000*%
%ADD13R,1.900000X1.900000*%
%ADD14C,1.900000*%
%ADD15C,1.600000*%
%ADD16C,2.400000*%
%ADD17C,2.200000*%
%ADD18O,3.000000X4.100000*%
%ADD19C,2.100000*%
%ADD20R,2.100000X2.100000*%
%ADD21O,2.100000X2.100000*%
%ADD22R,2.400000X2.400000*%
G04 APERTURE END LIST*
D10*
D11*
X65910000Y-39070000D03*
D12*
X68450000Y-39070000D03*
X70990000Y-39070000D03*
X73530000Y-39070000D03*
X76070000Y-39070000D03*
X78610000Y-39070000D03*
X81150000Y-39070000D03*
X83690000Y-39070000D03*
D13*
X65910000Y-78440000D03*
D14*
X68450000Y-78440000D03*
X70990000Y-78440000D03*
X73530000Y-78440000D03*
X76070000Y-78440000D03*
X78610000Y-78440000D03*
X81150000Y-78440000D03*
X83690000Y-78440000D03*
D15*
X55000000Y-82500000D03*
X55000000Y-85000000D03*
X55000000Y-87500000D03*
D16*
X60300000Y-82300000D03*
X66800000Y-82300000D03*
X60300000Y-86800000D03*
X66800000Y-86800000D03*
X70800000Y-82300000D03*
X77300000Y-82300000D03*
X70800000Y-86800000D03*
X77300000Y-86800000D03*
X81050000Y-82300000D03*
X87550000Y-82300000D03*
X81050000Y-86800000D03*
X87550000Y-86800000D03*
D17*
X107800000Y-73800000D03*
X110350000Y-73800000D03*
X105250000Y-73800000D03*
X110300000Y-88300000D03*
X105300000Y-88300000D03*
D18*
X113650000Y-81300000D03*
X101950000Y-81300000D03*
D19*
X103770000Y-62050000D03*
D20*
X103770000Y-64590000D03*
D21*
X106310000Y-62050000D03*
X106310000Y-64590000D03*
X108850000Y-62050000D03*
X108850000Y-64590000D03*
X111390000Y-62050000D03*
X111390000Y-64590000D03*
D13*
X97050000Y-88550000D03*
D14*
X97050000Y-86010000D03*
D13*
X94050000Y-88550000D03*
D14*
X94050000Y-86010000D03*
X94050000Y-83470000D03*
X94050000Y-80930000D03*
D13*
X91050000Y-88550000D03*
D14*
X91050000Y-86010000D03*
X91050000Y-83470000D03*
D22*
X116800000Y-71550000D03*
D16*
X55300000Y-71550000D03*
M02*
