M48
;DRILL file {KiCad 4.0.2-stable} date 22/10/2018 19:20:44
;FORMAT={-:-/ absolute / inch / decimal}
FMAT,2
INCH,TZ
T1C0.016
T2C0.024
T3C0.030
T4C0.035
T5C0.039
T6C0.063
%
G90
G05
M72
T1
X2.2972Y-2.6988
X2.4114Y-3.0295
X2.5571Y-2.3366
X2.563Y-2.8602
X2.5768Y-2.689
X2.6181Y-2.5335
X2.7717Y-2.872
X2.7874Y-2.8386
X2.8386Y-2.8012
X2.8425Y-2.5433
X2.8583Y-2.7717
X2.8602Y-2.7362
X2.8799Y-2.4488
X2.8858Y-2.9508
X2.9075Y-2.5335
X2.9291Y-2.8701
X2.9291Y-2.8701
X2.9331Y-2.4429
X2.9567Y-2.4724
X2.9567Y-2.8248
X2.9961Y-2.4173
X2.9961Y-2.7461
X3.063Y-2.8268
X3.0787Y-2.4606
X3.2165Y-2.7421
X3.2559Y-2.9764
X3.2972Y-2.3701
X3.3031Y-2.502
X3.3031Y-2.9685
X3.372Y-2.9783
X3.374Y-2.811
X3.376Y-2.6535
X3.3917Y-2.7539
X3.4508Y-2.9291
X3.4744Y-2.874
X3.4843Y-2.8091
X3.5157Y-2.7362
X3.5276Y-2.9705
X3.5413Y-3.0138
X3.5433Y-2.9075
X3.5906Y-2.8642
X3.6339Y-3.1831
X3.6476Y-2.8583
X3.6949Y-2.9232
X3.7028Y-3.1862
X3.7717Y-3.1713
X3.7736Y-3.1102
X3.811Y-3.0571
T2
X2.1654Y-3.248
X2.1654Y-3.3465
X2.1654Y-3.4449
T3
X2.5949Y-1.5382
T4
X2.5949Y-3.0882
X2.6949Y-1.5382
X2.6949Y-3.0882
X2.7949Y-1.5382
X2.7949Y-3.0882
X2.8949Y-1.5382
X2.8949Y-3.0882
X2.9949Y-1.5382
X2.9949Y-3.0882
X3.0949Y-1.5382
X3.0949Y-3.0882
X3.1949Y-1.5382
X3.1949Y-3.0882
X3.2949Y-1.5382
X3.2949Y-3.0882
X3.5846Y-3.2862
X3.5846Y-3.3862
X3.5846Y-3.4862
X3.7028Y-3.1862
X3.7028Y-3.2862
X3.7028Y-3.3862
X3.7028Y-3.4862
X3.8209Y-3.3862
X3.8209Y-3.4862
T5
X2.1772Y-2.8169
X2.374Y-3.2402
X2.374Y-3.4173
X2.6299Y-3.2402
X2.6299Y-3.4173
X2.7874Y-3.2402
X2.7874Y-3.4173
X3.0433Y-3.2402
X3.0433Y-3.4173
X3.1909Y-3.2402
X3.1909Y-3.4173
X3.4469Y-3.2402
X3.4469Y-3.4173
X4.0854Y-2.4429
X4.0854Y-2.5429
X4.1437Y-2.9055
X4.1457Y-3.4764
X4.1854Y-2.4429
X4.1854Y-2.5429
X4.2441Y-2.9055
X4.2854Y-2.4429
X4.2854Y-2.5429
X4.3425Y-3.4764
X4.3445Y-2.9055
X4.3854Y-2.4429
X4.3854Y-2.5429
X4.5984Y-2.8169
T6
X4.0138Y-3.2224G85X4.0138Y-3.1791
G05
X4.4744Y-3.2224G85X4.4744Y-3.1791
G05
T0
M30
